<svg width="76" height="75" viewBox="0 0 76 75" fill="none" xmlns="http://www.w3.org/2000/svg">
<mask id="mask0_3773_17193" style="mask-type:alpha" maskUnits="userSpaceOnUse" x="16" y="17" width="40" height="40">
<rect x="16" y="17" width="40" height="40" fill="#D9D9D9"/>
</mask>
<g mask="url(#mask0_3773_17193)">
<path d="M22.124 50.334C21.374 50.334 20.7214 50.0563 20.166 49.501C19.61 48.9456 19.332 48.293 19.332 47.543V26.459C19.332 25.709 19.61 25.0563 20.166 24.501C20.7214 23.9456 21.374 23.668 22.124 23.668H43.207C43.957 23.668 44.61 23.9456 45.166 24.501C45.7214 25.0563 45.999 25.709 45.999 26.459V34.918L52.666 28.251V45.751L45.999 39.084V47.543C45.999 48.293 45.7214 48.9456 45.166 49.501C44.61 50.0563 43.957 50.334 43.207 50.334H22.124ZM22.124 47.543H43.207V26.459H22.124V47.543Z" fill="#1C1B1F"/>
</g>
</svg>
