<svg width="76" height="75" viewBox="0 0 76 75" fill="none" xmlns="http://www.w3.org/2000/svg">
<rect x="16" y="17.5" width="40" height="40" rx="20" fill="#7FCC26"/>
<mask id="mask0_3773_17029" style="mask-type:alpha" maskUnits="userSpaceOnUse" x="16" y="17" width="40" height="41">
<rect x="16" y="17.5" width="40" height="40" fill="#FF1313"/>
</mask>
<g mask="url(#mask0_3773_17029)">
<path d="M26.65 47C26.2017 47 25.8147 46.845 25.4891 46.5349C25.163 46.2248 25 45.8499 25 45.4102C25 44.9701 25.1579 44.5899 25.4737 44.2698C25.7896 43.9501 26.1816 43.7902 26.65 43.7902C27.0983 43.7902 27.4801 43.9501 27.7955 44.2698C28.1113 44.5899 28.2692 44.9701 28.2692 45.4102C28.2692 45.8499 28.1113 46.2248 27.7955 46.5349C27.4801 46.845 27.0983 47 26.65 47ZM31.1109 46.4002V44.39H47V46.4002H31.1109ZM26.65 39.5898C26.2017 39.5898 25.8147 39.4347 25.4891 39.1246C25.163 38.815 25 38.4402 25 38C25 37.5598 25.1579 37.185 25.4737 36.8754C25.7896 36.5653 26.1816 36.4102 26.65 36.4102C27.0983 36.4102 27.4801 36.5653 27.7955 36.8754C28.1113 37.185 28.2692 37.5598 28.2692 38C28.2692 38.4402 28.1113 38.815 27.7955 39.1246C27.4801 39.4347 27.0983 39.5898 26.65 39.5898ZM31.1109 38.99V37.01H47V38.99H31.1109ZM26.6192 32.2098C26.1714 32.2098 25.7896 32.055 25.4737 31.7454C25.1579 31.4353 25 31.0501 25 30.5898C25 30.1501 25.1579 29.7752 25.4737 29.4651C25.7896 29.155 26.1714 29 26.6192 29C27.088 29 27.4801 29.155 27.7955 29.4651C28.1113 29.7752 28.2692 30.1501 28.2692 30.5898C28.2692 31.0501 28.1113 31.4353 27.7955 31.7454C27.4801 32.055 27.088 32.2098 26.6192 32.2098ZM31.1109 31.61V29.5998H47V31.61H31.1109Z" fill="#1C1B1F"/>
</g>
</svg>
