<svg width="76" height="75" viewBox="0 0 76 75" fill="none" xmlns="http://www.w3.org/2000/svg">
<mask id="mask0_3773_17069" style="mask-type:alpha" maskUnits="userSpaceOnUse" x="16" y="17" width="40" height="40">
<rect x="16" y="17" width="40" height="40" fill="#D9D9D9"/>
</mask>
<g mask="url(#mask0_3773_17069)">
<path d="M23.875 50.334C22.125 50.334 20.6807 49.723 19.542 48.501C18.4027 47.279 17.8053 45.8483 17.75 44.209C17.75 43.987 17.764 43.737 17.792 43.459C17.8193 43.1816 17.861 42.9316 17.917 42.709L21.417 28.709C21.8057 27.237 22.604 26.0286 23.812 25.084C25.0207 24.14 26.375 23.668 27.875 23.668H44.125C45.625 23.668 46.9793 24.14 48.188 25.084C49.396 26.0286 50.1943 27.237 50.583 28.709L54.083 42.709C54.139 42.959 54.1877 43.216 54.229 43.48C54.271 43.744 54.292 44.001 54.292 44.251C54.292 45.9176 53.7017 47.3483 52.521 48.543C51.3403 49.737 49.875 50.334 48.125 50.334C46.9583 50.334 45.875 50.0286 44.875 49.418C43.875 48.8066 43.125 47.9733 42.625 46.918L41.458 44.501C41.3193 44.1956 41.118 43.9803 40.854 43.855C40.59 43.7303 40.2913 43.668 39.958 43.668H32.042C31.7087 43.668 31.41 43.7303 31.146 43.855C30.882 43.9803 30.6807 44.1956 30.542 44.501L29.375 46.918C28.875 47.9733 28.125 48.8066 27.125 49.418C26.125 50.0286 25.0417 50.334 23.875 50.334ZM24 47.543C24.5833 47.543 25.132 47.397 25.646 47.105C26.16 46.8136 26.5837 46.3483 26.917 45.709L28.083 43.334C28.4723 42.5566 29.014 41.9526 29.708 41.522C30.4027 41.0913 31.1807 40.876 32.042 40.876H39.958C40.7913 40.876 41.5623 41.0983 42.271 41.543C42.979 41.987 43.5413 42.584 43.958 43.334L45.125 45.709C45.4583 46.3483 45.889 46.8136 46.417 47.105C46.9443 47.397 47.486 47.543 48.042 47.543C48.9027 47.543 49.6803 47.2443 50.375 46.647C51.0697 46.0496 51.4307 45.265 51.458 44.293V43.834C51.458 43.6673 51.4303 43.5146 51.375 43.376L47.875 29.418C47.653 28.5286 47.2017 27.8133 46.521 27.272C45.8403 26.73 45.0417 26.459 44.125 26.459H27.875C26.9863 26.459 26.1947 26.73 25.5 27.272C24.8053 27.8133 24.347 28.5286 24.125 29.418L20.625 43.376C20.597 43.4873 20.5693 43.779 20.542 44.251C20.542 45.223 20.903 46.0146 21.625 46.626C22.347 47.2373 23.1387 47.543 24 47.543ZM38.5 35.043C38.1113 35.043 37.785 34.911 37.521 34.647C37.257 34.383 37.125 34.0566 37.125 33.668C37.125 33.2786 37.257 32.9523 37.521 32.689C37.785 32.425 38.1113 32.293 38.5 32.293C38.8887 32.293 39.215 32.425 39.479 32.689C39.743 32.9523 39.875 33.2786 39.875 33.668C39.875 34.0566 39.743 34.383 39.479 34.647C39.215 34.911 38.8887 35.043 38.5 35.043ZM41.833 31.709C41.4443 31.709 41.118 31.5773 40.854 31.314C40.59 31.05 40.458 30.7233 40.458 30.334C40.458 29.9453 40.59 29.619 40.854 29.355C41.118 29.091 41.4443 28.959 41.833 28.959C42.2223 28.959 42.5487 29.091 42.812 29.355C43.076 29.619 43.208 29.9453 43.208 30.334C43.208 30.7233 43.076 31.05 42.812 31.314C42.5487 31.5773 42.2223 31.709 41.833 31.709ZM41.833 38.376C41.4443 38.376 41.118 38.244 40.854 37.98C40.59 37.716 40.458 37.3896 40.458 37.001C40.458 36.6123 40.59 36.286 40.854 36.022C41.118 35.758 41.4443 35.626 41.833 35.626C42.2223 35.626 42.5487 35.758 42.812 36.022C43.076 36.286 43.208 36.6123 43.208 37.001C43.208 37.3896 43.076 37.716 42.812 37.98C42.5487 38.244 42.2223 38.376 41.833 38.376ZM45.167 35.043C44.7777 35.043 44.4513 34.911 44.188 34.647C43.924 34.383 43.792 34.0566 43.792 33.668C43.792 33.2786 43.924 32.9523 44.188 32.689C44.4513 32.425 44.7777 32.293 45.167 32.293C45.5557 32.293 45.882 32.425 46.146 32.689C46.41 32.9523 46.542 33.2786 46.542 33.668C46.542 34.0566 46.41 34.383 46.146 34.647C45.882 34.911 45.5557 35.043 45.167 35.043ZM30.167 37.709C29.861 37.709 29.597 37.598 29.375 37.376C29.153 37.154 29.042 36.89 29.042 36.584V34.793H27.25C26.9447 34.793 26.6807 34.6816 26.458 34.459C26.236 34.237 26.125 33.9733 26.125 33.668C26.125 33.362 26.236 33.098 26.458 32.876C26.6807 32.654 26.9447 32.543 27.25 32.543H29.042V30.751C29.042 30.4456 29.153 30.1816 29.375 29.959C29.597 29.737 29.861 29.626 30.167 29.626C30.4723 29.626 30.736 29.737 30.958 29.959C31.1807 30.1816 31.292 30.4456 31.292 30.751V32.543H33.083C33.389 32.543 33.653 32.654 33.875 32.876C34.097 33.098 34.208 33.362 34.208 33.668C34.208 33.9733 34.097 34.237 33.875 34.459C33.653 34.6816 33.389 34.793 33.083 34.793H31.292V36.584C31.292 36.89 31.1807 37.154 30.958 37.376C30.736 37.598 30.4723 37.709 30.167 37.709Z" fill="#1C1B1F"/>
</g>
</svg>
