<svg width="76" height="75" viewBox="0 0 76 75" fill="none" xmlns="http://www.w3.org/2000/svg">
<mask id="mask0_3773_17049" style="mask-type:alpha" maskUnits="userSpaceOnUse" x="16" y="17" width="40" height="40">
<rect x="16" y="17" width="40" height="40" fill="#D9D9D9"/>
</mask>
<g mask="url(#mask0_3773_17049)">
<path d="M29.2635 41.8655C30.2681 41.8655 31.253 41.978 32.2183 42.203C33.1832 42.428 34.1287 42.7655 35.0548 43.2156V31.5155C34.1878 30.9903 33.2619 30.5871 32.2772 30.3059C31.2925 30.0246 30.2879 29.884 29.2635 29.884C28.5346 29.884 27.8106 29.9638 27.0915 30.1236C26.373 30.2829 25.6688 30.4937 24.9791 30.7561V42.5972C25.6097 42.3533 26.2992 42.1704 27.0476 42.0485C27.7959 41.9265 28.5346 41.8655 29.2635 41.8655ZM37.0339 43.2156C37.9793 42.7655 38.9102 42.428 39.8263 42.203C40.742 41.978 41.7121 41.8655 42.7365 41.8655C43.4654 41.8655 44.2091 41.9218 44.9673 42.0343C45.7256 42.1468 46.4101 42.3063 47.0209 42.5129V30.7561C46.3709 30.4559 45.6814 30.2357 44.9524 30.0953C44.2235 29.9544 43.4848 29.884 42.7365 29.884C41.7121 29.884 40.7174 30.0246 39.7526 30.3059C38.7873 30.5871 37.881 30.9903 37.0339 31.5155V43.2156ZM36.0298 46C35.0446 45.2876 33.976 44.7393 32.8239 44.355C31.6714 43.9707 30.4846 43.7785 29.2635 43.7785C28.5152 43.7785 27.7765 43.8676 27.0476 44.0458C26.3186 44.2236 25.5996 44.4531 24.8905 44.7343C24.4574 44.9409 24.0341 44.9222 23.6205 44.6783C23.2068 44.4344 23 44.0782 23 43.6098V30.3902C23 30.1468 23.0638 29.9125 23.1915 29.6875C23.3196 29.4625 23.5117 29.2938 23.768 29.1813C24.6151 28.7875 25.5015 28.4921 26.4271 28.295C27.3527 28.0983 28.2982 28 29.2635 28C30.4652 28 31.6421 28.1546 32.7941 28.4637C33.9467 28.7733 35.0252 29.2375 36.0298 29.8563C37.0343 29.2375 38.1027 28.7733 39.2349 28.4637C40.3676 28.1546 41.5348 28 42.7365 28C43.7018 28 44.6423 28.0983 45.558 28.295C46.4742 28.4921 47.3556 28.7875 48.2023 29.1813C48.4585 29.2938 48.6556 29.4625 48.7937 29.6875C48.9312 29.9125 49 30.1468 49 30.3902V43.6098C49 44.0971 48.7885 44.4675 48.3654 44.7208C47.9418 44.9737 47.5132 44.9783 47.0797 44.7343C46.3905 44.4346 45.6814 44.2004 44.9524 44.0317C44.2235 43.8629 43.4848 43.7785 42.7365 43.7785C41.5154 43.7785 40.3385 43.9754 39.2059 44.3692C38.0732 44.7629 37.0145 45.3065 36.0298 46Z" fill="#1C1B1F"/>
</g>
</svg>
