<svg width="76" height="75" viewBox="0 0 76 75" fill="none" xmlns="http://www.w3.org/2000/svg">
<mask id="mask0_3773_17080" style="mask-type:alpha" maskUnits="userSpaceOnUse" x="16" y="17" width="40" height="40">
<rect x="16" y="17" width="40" height="40" fill="#D9D9D9"/>
</mask>
<g mask="url(#mask0_3773_17080)">
<path d="M30.792 52H23.792C23.042 52 22.389 51.7223 21.833 51.167C21.2777 50.611 21 49.958 21 49.208V42.208C22.25 42.1247 23.3333 41.6663 24.25 40.833C25.1667 39.9997 25.625 38.972 25.625 37.75C25.625 36.528 25.1667 35.5003 24.25 34.667C23.3333 33.8337 22.25 33.3753 21 33.292V26.292C21 25.542 21.2777 24.889 21.833 24.333C22.389 23.7777 23.042 23.5 23.792 23.5H30.917C31.111 22.3613 31.611 21.41 32.417 20.646C33.2223 19.882 34.1807 19.5 35.292 19.5C36.4307 19.5 37.396 19.882 38.188 20.646C38.9793 21.41 39.486 22.3613 39.708 23.5H46.708C47.458 23.5 48.111 23.7777 48.667 24.333C49.2223 24.889 49.5 25.542 49.5 26.292V33.292C50.6387 33.514 51.576 34.0417 52.312 34.875C53.0487 35.7083 53.417 36.6807 53.417 37.792C53.417 38.9307 53.0487 39.882 52.312 40.646C51.576 41.41 50.6387 41.903 49.5 42.125V49.208C49.5 49.958 49.2223 50.611 48.667 51.167C48.111 51.7223 47.458 52 46.708 52H39.708C39.6247 50.6387 39.1527 49.5277 38.292 48.667C37.4307 47.8057 36.4167 47.375 35.25 47.375C34.0833 47.375 33.0693 47.8057 32.208 48.667C31.3473 49.5277 30.8753 50.6387 30.792 52ZM23.792 49.208H28.583C29.2497 47.486 30.2497 46.2847 31.583 45.604C32.9163 44.9233 34.1387 44.583 35.25 44.583C36.3613 44.583 37.5837 44.9233 38.917 45.604C40.2503 46.2847 41.2503 47.486 41.917 49.208H46.708V39.375H49.083C49.5277 39.375 49.896 39.2223 50.188 38.917C50.4793 38.611 50.625 38.236 50.625 37.792C50.625 37.3473 50.4793 36.9793 50.188 36.688C49.896 36.396 49.5277 36.25 49.083 36.25H46.708V26.292H36.875V23.833C36.875 23.389 36.7223 23.021 36.417 22.729C36.111 22.4377 35.736 22.292 35.292 22.292C34.8473 22.292 34.4793 22.4377 34.188 22.729C33.896 23.021 33.75 23.389 33.75 23.833V26.292H23.792V31.125C25.1807 31.625 26.2987 32.4793 27.146 33.688C27.9933 34.896 28.417 36.25 28.417 37.75C28.417 39.222 27.9933 40.5623 27.146 41.771C26.2987 42.979 25.1807 43.847 23.792 44.375V49.208Z" fill="#1C1B1F"/>
</g>
</svg>
