<svg width="199" height="62" viewBox="0 0 199 62" fill="none" xmlns="http://www.w3.org/2000/svg">
<g filter="url(#filter0_i_3773_18469)">
<rect width="199" height="62" rx="15" fill="#7FCC26"/>
</g>
<rect x="1.5" y="1.5" width="196" height="59" rx="13.5" stroke="#231F20" stroke-opacity="0.25" stroke-width="3"/>
<path d="M80.707 24.4492L75.0586 40H72.75L79.2539 22.9375H80.7422L80.707 24.4492ZM85.4414 40L79.7812 24.4492L79.7461 22.9375H81.2344L87.7617 40H85.4414ZM85.1484 33.6836V35.5352H75.5625V33.6836H85.1484ZM94.793 38.4531C95.3086 38.4531 95.7852 38.3477 96.2227 38.1367C96.6602 37.9258 97.0195 37.6367 97.3008 37.2695C97.582 36.8945 97.7422 36.4688 97.7812 35.9922H99.8438C99.8047 36.7422 99.5508 37.4414 99.082 38.0898C98.6211 38.7305 98.0156 39.25 97.2656 39.6484C96.5156 40.0391 95.6914 40.2344 94.793 40.2344C93.8398 40.2344 93.0078 40.0664 92.2969 39.7305C91.5938 39.3945 91.0078 38.9336 90.5391 38.3477C90.0781 37.7617 89.7305 37.0898 89.4961 36.332C89.2695 35.5664 89.1562 34.7578 89.1562 33.9062V33.4141C89.1562 32.5625 89.2695 31.7578 89.4961 31C89.7305 30.2344 90.0781 29.5586 90.5391 28.9727C91.0078 28.3867 91.5938 27.9258 92.2969 27.5898C93.0078 27.2539 93.8398 27.0859 94.793 27.0859C95.7852 27.0859 96.6523 27.2891 97.3945 27.6953C98.1367 28.0938 98.7188 28.6406 99.1406 29.3359C99.5703 30.0234 99.8047 30.8047 99.8438 31.6797H97.7812C97.7422 31.1562 97.5938 30.6836 97.3359 30.2617C97.0859 29.8398 96.7422 29.5039 96.3047 29.2539C95.875 28.9961 95.3711 28.8672 94.793 28.8672C94.1289 28.8672 93.5703 29 93.1172 29.2656C92.6719 29.5234 92.3164 29.875 92.0508 30.3203C91.793 30.7578 91.6055 31.2461 91.4883 31.7852C91.3789 32.3164 91.3242 32.8594 91.3242 33.4141V33.9062C91.3242 34.4609 91.3789 35.0078 91.4883 35.5469C91.5977 36.0859 91.7812 36.5742 92.0391 37.0117C92.3047 37.4492 92.6602 37.8008 93.1055 38.0664C93.5586 38.3242 94.1211 38.4531 94.793 38.4531ZM107.59 27.3203V28.9844H100.734V27.3203H107.59ZM103.055 24.2383H105.223V36.8594C105.223 37.2891 105.289 37.6133 105.422 37.832C105.555 38.0508 105.727 38.1953 105.938 38.2656C106.148 38.3359 106.375 38.3711 106.617 38.3711C106.797 38.3711 106.984 38.3555 107.18 38.3242C107.383 38.2852 107.535 38.2539 107.637 38.2305L107.648 40C107.477 40.0547 107.25 40.1055 106.969 40.1523C106.695 40.207 106.363 40.2344 105.973 40.2344C105.441 40.2344 104.953 40.1289 104.508 39.918C104.062 39.707 103.707 39.3555 103.441 38.8633C103.184 38.3633 103.055 37.6914 103.055 36.8477V24.2383ZM112.488 27.3203V40H110.309V27.3203H112.488ZM110.145 23.957C110.145 23.6055 110.25 23.3086 110.461 23.0664C110.68 22.8242 111 22.7031 111.422 22.7031C111.836 22.7031 112.152 22.8242 112.371 23.0664C112.598 23.3086 112.711 23.6055 112.711 23.957C112.711 24.293 112.598 24.582 112.371 24.8242C112.152 25.0586 111.836 25.1758 111.422 25.1758C111 25.1758 110.68 25.0586 110.461 24.8242C110.25 24.582 110.145 24.293 110.145 23.957ZM119.824 38.043L123.293 27.3203H125.508L120.949 40H119.496L119.824 38.043ZM116.93 27.3203L120.504 38.1016L120.75 40H119.297L114.703 27.3203H116.93ZM129.949 27.3203V40H127.77V27.3203H129.949ZM127.605 23.957C127.605 23.6055 127.711 23.3086 127.922 23.0664C128.141 22.8242 128.461 22.7031 128.883 22.7031C129.297 22.7031 129.613 22.8242 129.832 23.0664C130.059 23.3086 130.172 23.6055 130.172 23.957C130.172 24.293 130.059 24.582 129.832 24.8242C129.613 25.0586 129.297 25.1758 128.883 25.1758C128.461 25.1758 128.141 25.0586 127.922 24.8242C127.711 24.582 127.605 24.293 127.605 23.957ZM138.738 27.3203V28.9844H131.883V27.3203H138.738ZM134.203 24.2383H136.371V36.8594C136.371 37.2891 136.438 37.6133 136.57 37.832C136.703 38.0508 136.875 38.1953 137.086 38.2656C137.297 38.3359 137.523 38.3711 137.766 38.3711C137.945 38.3711 138.133 38.3555 138.328 38.3242C138.531 38.2852 138.684 38.2539 138.785 38.2305L138.797 40C138.625 40.0547 138.398 40.1055 138.117 40.1523C137.844 40.207 137.512 40.2344 137.121 40.2344C136.59 40.2344 136.102 40.1289 135.656 39.918C135.211 39.707 134.855 39.3555 134.59 38.8633C134.332 38.3633 134.203 37.6914 134.203 36.8477V24.2383ZM143.637 27.3203V40H141.457V27.3203H143.637ZM141.293 23.957C141.293 23.6055 141.398 23.3086 141.609 23.0664C141.828 22.8242 142.148 22.7031 142.57 22.7031C142.984 22.7031 143.301 22.8242 143.52 23.0664C143.746 23.3086 143.859 23.6055 143.859 23.957C143.859 24.293 143.746 24.582 143.52 24.8242C143.301 25.0586 142.984 25.1758 142.57 25.1758C142.148 25.1758 141.828 25.0586 141.609 24.8242C141.398 24.582 141.293 24.293 141.293 23.957ZM152.379 40.2344C151.496 40.2344 150.695 40.0859 149.977 39.7891C149.266 39.4844 148.652 39.0586 148.137 38.5117C147.629 37.9648 147.238 37.3164 146.965 36.5664C146.691 35.8164 146.555 34.9961 146.555 34.1055V33.6133C146.555 32.582 146.707 31.6641 147.012 30.8594C147.316 30.0469 147.73 29.3594 148.254 28.7969C148.777 28.2344 149.371 27.8086 150.035 27.5195C150.699 27.2305 151.387 27.0859 152.098 27.0859C153.004 27.0859 153.785 27.2422 154.441 27.5547C155.105 27.8672 155.648 28.3047 156.07 28.8672C156.492 29.4219 156.805 30.0781 157.008 30.8359C157.211 31.5859 157.312 32.4062 157.312 33.2969V34.2695H147.844V32.5H155.145V32.3359C155.113 31.7734 154.996 31.2266 154.793 30.6953C154.598 30.1641 154.285 29.7266 153.855 29.3828C153.426 29.0391 152.84 28.8672 152.098 28.8672C151.605 28.8672 151.152 28.9727 150.738 29.1836C150.324 29.3867 149.969 29.6914 149.672 30.0977C149.375 30.5039 149.145 31 148.98 31.5859C148.816 32.1719 148.734 32.8477 148.734 33.6133V34.1055C148.734 34.707 148.816 35.2734 148.98 35.8047C149.152 36.3281 149.398 36.7891 149.719 37.1875C150.047 37.5859 150.441 37.8984 150.902 38.125C151.371 38.3516 151.902 38.4648 152.496 38.4648C153.262 38.4648 153.91 38.3086 154.441 37.9961C154.973 37.6836 155.438 37.2656 155.836 36.7422L157.148 37.7852C156.875 38.1992 156.527 38.5938 156.105 38.9688C155.684 39.3438 155.164 39.6484 154.547 39.8828C153.938 40.1172 153.215 40.2344 152.379 40.2344ZM167.227 36.6367C167.227 36.3242 167.156 36.0352 167.016 35.7695C166.883 35.4961 166.605 35.25 166.184 35.0312C165.77 34.8047 165.145 34.6094 164.309 34.4453C163.605 34.2969 162.969 34.1211 162.398 33.918C161.836 33.7148 161.355 33.4688 160.957 33.1797C160.566 32.8906 160.266 32.5508 160.055 32.1602C159.844 31.7695 159.738 31.3125 159.738 30.7891C159.738 30.2891 159.848 29.8164 160.066 29.3711C160.293 28.9258 160.609 28.5312 161.016 28.1875C161.43 27.8438 161.926 27.5742 162.504 27.3789C163.082 27.1836 163.727 27.0859 164.438 27.0859C165.453 27.0859 166.32 27.2656 167.039 27.625C167.758 27.9844 168.309 28.4648 168.691 29.0664C169.074 29.6602 169.266 30.3203 169.266 31.0469H167.098C167.098 30.6953 166.992 30.3555 166.781 30.0273C166.578 29.6914 166.277 29.4141 165.879 29.1953C165.488 28.9766 165.008 28.8672 164.438 28.8672C163.836 28.8672 163.348 28.9609 162.973 29.1484C162.605 29.3281 162.336 29.5586 162.164 29.8398C162 30.1211 161.918 30.418 161.918 30.7305C161.918 30.9648 161.957 31.1758 162.035 31.3633C162.121 31.543 162.27 31.7109 162.48 31.8672C162.691 32.0156 162.988 32.1562 163.371 32.2891C163.754 32.4219 164.242 32.5547 164.836 32.6875C165.875 32.9219 166.73 33.2031 167.402 33.5312C168.074 33.8594 168.574 34.2617 168.902 34.7383C169.23 35.2148 169.395 35.793 169.395 36.4727C169.395 37.0273 169.277 37.5352 169.043 37.9961C168.816 38.457 168.484 38.8555 168.047 39.1914C167.617 39.5195 167.102 39.7773 166.5 39.9648C165.906 40.1445 165.238 40.2344 164.496 40.2344C163.379 40.2344 162.434 40.0352 161.66 39.6367C160.887 39.2383 160.301 38.7227 159.902 38.0898C159.504 37.457 159.305 36.7891 159.305 36.0859H161.484C161.516 36.6797 161.688 37.1523 162 37.5039C162.312 37.8477 162.695 38.0938 163.148 38.2422C163.602 38.3828 164.051 38.4531 164.496 38.4531C165.09 38.4531 165.586 38.375 165.984 38.2188C166.391 38.0625 166.699 37.8477 166.91 37.5742C167.121 37.3008 167.227 36.9883 167.227 36.6367Z" fill="black"/>
<path d="M44.2819 46.0718C43.6698 42.6631 47.1998 37.3511 51.8231 34.2107C53.0236 33.3963 54.0995 33.0871 56.1232 31.4086C60.7199 27.5878 61.9914 24.0457 61.9076 24.036C61.872 24.0308 61.676 24.7293 59.8271 26.5783C58.4404 28.1961 58.4404 27.965 57.0537 29.3517C55.4359 30.2761 55.0558 30.3567 51.3725 32.7826C49.0108 34.3397 47.6289 35.2503 46.0879 36.7967C45.7093 37.1738 41.0184 42.1032 40.1193 46.1011C40.0409 46.4461 39.1878 49.9099 42.3066 50.9126C46.362 52.2142 44.6247 47.9726 44.2819 46.0718Z" fill="#B58863"/>
<path d="M41.5866 40.1827C41.8058 36.7259 36.8391 31.1971 31.8884 28.6075C30.6029 27.9361 29.4989 27.7524 27.2972 26.3169C22.2953 23.0482 22.0117 14.4892 22.0939 14.47C22.1286 14.4607 22.2553 15.673 23.0482 17.9386C23.9626 20.549 24.5909 22.3373 25.9389 23.8155C27.3402 25.3539 28.2375 25.1493 32.1731 27.137C34.6966 28.413 36.1733 29.1591 37.8804 30.5187C38.2995 30.8499 42.7288 34.7017 44.0779 38.5706C44.1951 38.9043 46.2305 42.7553 43.2467 44.1093C38.3705 49.0014 41.4629 42.1106 41.5866 40.1827Z" fill="#B58863"/>
<path d="M44.4705 38.3733C39.944 32.3135 44.5944 21.6178 48.5199 17.642C49.5394 16.6107 50.7717 15.2116 52.4309 13.1732C54.9792 9.51204 55.2882 7.85078 55.2042 7.85753C55.1682 7.85929 54.1865 9.79964 53.3555 10.6306C53.1244 10.8617 52.2974 11.7862 51.9688 12.2484C51.6403 12.7107 50.9425 13.2353 47.8003 16.3283C45.786 18.313 44.6071 19.4738 43.3959 21.2892C43.0977 21.7324 39.8524 28.1763 39.7472 32.2723C39.7373 32.6258 39.7056 33.0598 40.1408 35.6183C42.1088 38.9637 44.4705 41.743 44.4705 38.3733Z" fill="#B58863"/>
<defs>
<filter id="filter0_i_3773_18469" x="-10" y="-15" width="209" height="77" filterUnits="userSpaceOnUse" color-interpolation-filters="sRGB">
<feFlood flood-opacity="0" result="BackgroundImageFix"/>
<feBlend mode="normal" in="SourceGraphic" in2="BackgroundImageFix" result="shape"/>
<feColorMatrix in="SourceAlpha" type="matrix" values="0 0 0 0 0 0 0 0 0 0 0 0 0 0 0 0 0 0 127 0" result="hardAlpha"/>
<feOffset dx="-10" dy="-15"/>
<feGaussianBlur stdDeviation="12.5"/>
<feComposite in2="hardAlpha" operator="arithmetic" k2="-1" k3="1"/>
<feColorMatrix type="matrix" values="0 0 0 0 0.137255 0 0 0 0 0.121569 0 0 0 0 0.12549 0 0 0 0.1 0"/>
<feBlend mode="normal" in2="shape" result="effect1_innerShadow_3773_18469"/>
</filter>
</defs>
</svg>
