<svg width="199" height="62" viewBox="0 0 199 62" fill="none" xmlns="http://www.w3.org/2000/svg">
<g filter="url(#filter0_i_3773_18437)">
<rect width="199" height="62" rx="15" fill="#7FCC26"/>
</g>
<rect x="1.5" y="1.5" width="196" height="59" rx="13.5" stroke="#231F20" stroke-opacity="0.25" stroke-width="3"/>
<path d="M66.4336 37.1602V39H57.9023V37.1602H66.4336ZM58.3477 21.9375V39H56.0859V21.9375H58.3477ZM73.957 39.2344C73.0742 39.2344 72.2734 39.0859 71.5547 38.7891C70.8438 38.4844 70.2305 38.0586 69.7148 37.5117C69.207 36.9648 68.8164 36.3164 68.543 35.5664C68.2695 34.8164 68.1328 33.9961 68.1328 33.1055V32.6133C68.1328 31.582 68.2852 30.6641 68.5898 29.8594C68.8945 29.0469 69.3086 28.3594 69.832 27.7969C70.3555 27.2344 70.9492 26.8086 71.6133 26.5195C72.2773 26.2305 72.9648 26.0859 73.6758 26.0859C74.582 26.0859 75.3633 26.2422 76.0195 26.5547C76.6836 26.8672 77.2266 27.3047 77.6484 27.8672C78.0703 28.4219 78.3828 29.0781 78.5859 29.8359C78.7891 30.5859 78.8906 31.4062 78.8906 32.2969V33.2695H69.4219V31.5H76.7227V31.3359C76.6914 30.7734 76.5742 30.2266 76.3711 29.6953C76.1758 29.1641 75.8633 28.7266 75.4336 28.3828C75.0039 28.0391 74.418 27.8672 73.6758 27.8672C73.1836 27.8672 72.7305 27.9727 72.3164 28.1836C71.9023 28.3867 71.5469 28.6914 71.25 29.0977C70.9531 29.5039 70.7227 30 70.5586 30.5859C70.3945 31.1719 70.3125 31.8477 70.3125 32.6133V33.1055C70.3125 33.707 70.3945 34.2734 70.5586 34.8047C70.7305 35.3281 70.9766 35.7891 71.2969 36.1875C71.625 36.5859 72.0195 36.8984 72.4805 37.125C72.9492 37.3516 73.4805 37.4648 74.0742 37.4648C74.8398 37.4648 75.4883 37.3086 76.0195 36.9961C76.5508 36.6836 77.0156 36.2656 77.4141 35.7422L78.7266 36.7852C78.4531 37.1992 78.1055 37.5938 77.6836 37.9688C77.2617 38.3438 76.7422 38.6484 76.125 38.8828C75.5156 39.1172 74.793 39.2344 73.957 39.2344ZM88.8984 36.832V30.3047C88.8984 29.8047 88.7969 29.3711 88.5938 29.0039C88.3984 28.6289 88.1016 28.3398 87.7031 28.1367C87.3047 27.9336 86.8125 27.832 86.2266 27.832C85.6797 27.832 85.1992 27.9258 84.7852 28.1133C84.3789 28.3008 84.0586 28.5469 83.8242 28.8516C83.5977 29.1562 83.4844 29.4844 83.4844 29.8359H81.3164C81.3164 29.3828 81.4336 28.9336 81.668 28.4883C81.9023 28.043 82.2383 27.6406 82.6758 27.2812C83.1211 26.9141 83.6523 26.625 84.2695 26.4141C84.8945 26.1953 85.5898 26.0859 86.3555 26.0859C87.2773 26.0859 88.0898 26.2422 88.793 26.5547C89.5039 26.8672 90.0586 27.3398 90.457 27.9727C90.8633 28.5977 91.0664 29.3828 91.0664 30.3281V36.2344C91.0664 36.6562 91.1016 37.1055 91.1719 37.582C91.25 38.0586 91.3633 38.4688 91.5117 38.8125V39H89.25C89.1406 38.75 89.0547 38.418 88.9922 38.0039C88.9297 37.582 88.8984 37.1914 88.8984 36.832ZM89.2734 31.3125L89.2969 32.8359H87.1055C86.4883 32.8359 85.9375 32.8867 85.4531 32.9883C84.9688 33.082 84.5625 33.2266 84.2344 33.4219C83.9062 33.6172 83.6562 33.8633 83.4844 34.1602C83.3125 34.4492 83.2266 34.7891 83.2266 35.1797C83.2266 35.5781 83.3164 35.9414 83.4961 36.2695C83.6758 36.5977 83.9453 36.8594 84.3047 37.0547C84.6719 37.2422 85.1211 37.3359 85.6523 37.3359C86.3164 37.3359 86.9023 37.1953 87.4102 36.9141C87.918 36.6328 88.3203 36.2891 88.6172 35.8828C88.9219 35.4766 89.0859 35.082 89.1094 34.6992L90.0352 35.7422C89.9805 36.0703 89.832 36.4336 89.5898 36.832C89.3477 37.2305 89.0234 37.6133 88.6172 37.9805C88.2188 38.3398 87.7422 38.6406 87.1875 38.8828C86.6406 39.1172 86.0234 39.2344 85.3359 39.2344C84.4766 39.2344 83.7227 39.0664 83.0742 38.7305C82.4336 38.3945 81.9336 37.9453 81.5742 37.3828C81.2227 36.8125 81.0469 36.1758 81.0469 35.4727C81.0469 34.793 81.1797 34.1953 81.4453 33.6797C81.7109 33.1562 82.0938 32.7227 82.5938 32.3789C83.0938 32.0273 83.6953 31.7617 84.3984 31.582C85.1016 31.4023 85.8867 31.3125 86.7539 31.3125H89.2734ZM102.469 36.5391V21H104.648V39H102.656L102.469 36.5391ZM93.9375 32.8008V32.5547C93.9375 31.5859 94.0547 30.707 94.2891 29.918C94.5312 29.1211 94.8711 28.4375 95.3086 27.8672C95.7539 27.2969 96.2812 26.8594 96.8906 26.5547C97.5078 26.2422 98.1953 26.0859 98.9531 26.0859C99.75 26.0859 100.445 26.2266 101.039 26.5078C101.641 26.7812 102.148 27.1836 102.562 27.7148C102.984 28.2383 103.316 28.8711 103.559 29.6133C103.801 30.3555 103.969 31.1953 104.062 32.1328V33.2109C103.977 34.1406 103.809 34.9766 103.559 35.7188C103.316 36.4609 102.984 37.0938 102.562 37.6172C102.148 38.1406 101.641 38.543 101.039 38.8242C100.438 39.0977 99.7344 39.2344 98.9297 39.2344C98.1875 39.2344 97.5078 39.0742 96.8906 38.7539C96.2812 38.4336 95.7539 37.9844 95.3086 37.4062C94.8711 36.8281 94.5312 36.1484 94.2891 35.3672C94.0547 34.5781 93.9375 33.7227 93.9375 32.8008ZM96.1172 32.5547V32.8008C96.1172 33.4336 96.1797 34.0273 96.3047 34.582C96.4375 35.1367 96.6406 35.625 96.9141 36.0469C97.1875 36.4688 97.5352 36.8008 97.957 37.043C98.3789 37.2773 98.8828 37.3945 99.4688 37.3945C100.188 37.3945 100.777 37.2422 101.238 36.9375C101.707 36.6328 102.082 36.2305 102.363 35.7305C102.645 35.2305 102.863 34.6875 103.02 34.1016V31.2773C102.926 30.8477 102.789 30.4336 102.609 30.0352C102.438 29.6289 102.211 29.2695 101.93 28.957C101.656 28.6367 101.316 28.3828 100.91 28.1953C100.512 28.0078 100.039 27.9141 99.4922 27.9141C98.8984 27.9141 98.3867 28.0391 97.957 28.2891C97.5352 28.5312 97.1875 28.8672 96.9141 29.2969C96.6406 29.7188 96.4375 30.2109 96.3047 30.7734C96.1797 31.3281 96.1172 31.9219 96.1172 32.5547ZM113.285 39.2344C112.402 39.2344 111.602 39.0859 110.883 38.7891C110.172 38.4844 109.559 38.0586 109.043 37.5117C108.535 36.9648 108.145 36.3164 107.871 35.5664C107.598 34.8164 107.461 33.9961 107.461 33.1055V32.6133C107.461 31.582 107.613 30.6641 107.918 29.8594C108.223 29.0469 108.637 28.3594 109.16 27.7969C109.684 27.2344 110.277 26.8086 110.941 26.5195C111.605 26.2305 112.293 26.0859 113.004 26.0859C113.91 26.0859 114.691 26.2422 115.348 26.5547C116.012 26.8672 116.555 27.3047 116.977 27.8672C117.398 28.4219 117.711 29.0781 117.914 29.8359C118.117 30.5859 118.219 31.4062 118.219 32.2969V33.2695H108.75V31.5H116.051V31.3359C116.02 30.7734 115.902 30.2266 115.699 29.6953C115.504 29.1641 115.191 28.7266 114.762 28.3828C114.332 28.0391 113.746 27.8672 113.004 27.8672C112.512 27.8672 112.059 27.9727 111.645 28.1836C111.23 28.3867 110.875 28.6914 110.578 29.0977C110.281 29.5039 110.051 30 109.887 30.5859C109.723 31.1719 109.641 31.8477 109.641 32.6133V33.1055C109.641 33.707 109.723 34.2734 109.887 34.8047C110.059 35.3281 110.305 35.7891 110.625 36.1875C110.953 36.5859 111.348 36.8984 111.809 37.125C112.277 37.3516 112.809 37.4648 113.402 37.4648C114.168 37.4648 114.816 37.3086 115.348 36.9961C115.879 36.6836 116.344 36.2656 116.742 35.7422L118.055 36.7852C117.781 37.1992 117.434 37.5938 117.012 37.9688C116.59 38.3438 116.07 38.6484 115.453 38.8828C114.844 39.1172 114.121 39.2344 113.285 39.2344ZM122.918 28.3125V39H120.75V26.3203H122.859L122.918 28.3125ZM126.879 26.25L126.867 28.2656C126.688 28.2266 126.516 28.2031 126.352 28.1953C126.195 28.1797 126.016 28.1719 125.812 28.1719C125.312 28.1719 124.871 28.25 124.488 28.4062C124.105 28.5625 123.781 28.7812 123.516 29.0625C123.25 29.3438 123.039 29.6797 122.883 30.0703C122.734 30.4531 122.637 30.875 122.59 31.3359L121.98 31.6875C121.98 30.9219 122.055 30.2031 122.203 29.5312C122.359 28.8594 122.598 28.2656 122.918 27.75C123.238 27.2266 123.645 26.8203 124.137 26.5312C124.637 26.2344 125.23 26.0859 125.918 26.0859C126.074 26.0859 126.254 26.1055 126.457 26.1445C126.66 26.1758 126.801 26.2109 126.879 26.25ZM128.871 21H131.051V36.5391L130.863 39H128.871V21ZM139.617 32.5547V32.8008C139.617 33.7227 139.508 34.5781 139.289 35.3672C139.07 36.1484 138.75 36.8281 138.328 37.4062C137.906 37.9844 137.391 38.4336 136.781 38.7539C136.172 39.0742 135.473 39.2344 134.684 39.2344C133.879 39.2344 133.172 39.0977 132.562 38.8242C131.961 38.543 131.453 38.1406 131.039 37.6172C130.625 37.0938 130.293 36.4609 130.043 35.7188C129.801 34.9766 129.633 34.1406 129.539 33.2109V32.1328C129.633 31.1953 129.801 30.3555 130.043 29.6133C130.293 28.8711 130.625 28.2383 131.039 27.7148C131.453 27.1836 131.961 26.7812 132.562 26.5078C133.164 26.2266 133.863 26.0859 134.66 26.0859C135.457 26.0859 136.164 26.2422 136.781 26.5547C137.398 26.8594 137.914 27.2969 138.328 27.8672C138.75 28.4375 139.07 29.1211 139.289 29.918C139.508 30.707 139.617 31.5859 139.617 32.5547ZM137.438 32.8008V32.5547C137.438 31.9219 137.379 31.3281 137.262 30.7734C137.145 30.2109 136.957 29.7188 136.699 29.2969C136.441 28.8672 136.102 28.5312 135.68 28.2891C135.258 28.0391 134.738 27.9141 134.121 27.9141C133.574 27.9141 133.098 28.0078 132.691 28.1953C132.293 28.3828 131.953 28.6367 131.672 28.957C131.391 29.2695 131.16 29.6289 130.98 30.0352C130.809 30.4336 130.68 30.8477 130.594 31.2773V34.1016C130.719 34.6484 130.922 35.1758 131.203 35.6836C131.492 36.1836 131.875 36.5938 132.352 36.9141C132.836 37.2344 133.434 37.3945 134.145 37.3945C134.73 37.3945 135.23 37.2773 135.645 37.043C136.066 36.8008 136.406 36.4688 136.664 36.0469C136.93 35.625 137.125 35.1367 137.25 34.582C137.375 34.0273 137.438 33.4336 137.438 32.8008ZM141.785 32.8008V32.5312C141.785 31.6172 141.918 30.7695 142.184 29.9883C142.449 29.1992 142.832 28.5156 143.332 27.9375C143.832 27.3516 144.438 26.8984 145.148 26.5781C145.859 26.25 146.656 26.0859 147.539 26.0859C148.43 26.0859 149.23 26.25 149.941 26.5781C150.66 26.8984 151.27 27.3516 151.77 27.9375C152.277 28.5156 152.664 29.1992 152.93 29.9883C153.195 30.7695 153.328 31.6172 153.328 32.5312V32.8008C153.328 33.7148 153.195 34.5625 152.93 35.3438C152.664 36.125 152.277 36.8086 151.77 37.3945C151.27 37.9727 150.664 38.4258 149.953 38.7539C149.25 39.0742 148.453 39.2344 147.562 39.2344C146.672 39.2344 145.871 39.0742 145.16 38.7539C144.449 38.4258 143.84 37.9727 143.332 37.3945C142.832 36.8086 142.449 36.125 142.184 35.3438C141.918 34.5625 141.785 33.7148 141.785 32.8008ZM143.953 32.5312V32.8008C143.953 33.4336 144.027 34.0312 144.176 34.5938C144.324 35.1484 144.547 35.6406 144.844 36.0703C145.148 36.5 145.527 36.8398 145.98 37.0898C146.434 37.332 146.961 37.4531 147.562 37.4531C148.156 37.4531 148.676 37.332 149.121 37.0898C149.574 36.8398 149.949 36.5 150.246 36.0703C150.543 35.6406 150.766 35.1484 150.914 34.5938C151.07 34.0312 151.148 33.4336 151.148 32.8008V32.5312C151.148 31.9062 151.07 31.3164 150.914 30.7617C150.766 30.1992 150.539 29.7031 150.234 29.2734C149.938 28.8359 149.562 28.4922 149.109 28.2422C148.664 27.9922 148.141 27.8672 147.539 27.8672C146.945 27.8672 146.422 27.9922 145.969 28.2422C145.523 28.4922 145.148 28.8359 144.844 29.2734C144.547 29.7031 144.324 30.1992 144.176 30.7617C144.027 31.3164 143.953 31.9062 143.953 32.5312ZM163.523 36.832V30.3047C163.523 29.8047 163.422 29.3711 163.219 29.0039C163.023 28.6289 162.727 28.3398 162.328 28.1367C161.93 27.9336 161.438 27.832 160.852 27.832C160.305 27.832 159.824 27.9258 159.41 28.1133C159.004 28.3008 158.684 28.5469 158.449 28.8516C158.223 29.1562 158.109 29.4844 158.109 29.8359H155.941C155.941 29.3828 156.059 28.9336 156.293 28.4883C156.527 28.043 156.863 27.6406 157.301 27.2812C157.746 26.9141 158.277 26.625 158.895 26.4141C159.52 26.1953 160.215 26.0859 160.98 26.0859C161.902 26.0859 162.715 26.2422 163.418 26.5547C164.129 26.8672 164.684 27.3398 165.082 27.9727C165.488 28.5977 165.691 29.3828 165.691 30.3281V36.2344C165.691 36.6562 165.727 37.1055 165.797 37.582C165.875 38.0586 165.988 38.4688 166.137 38.8125V39H163.875C163.766 38.75 163.68 38.418 163.617 38.0039C163.555 37.582 163.523 37.1914 163.523 36.832ZM163.898 31.3125L163.922 32.8359H161.73C161.113 32.8359 160.562 32.8867 160.078 32.9883C159.594 33.082 159.188 33.2266 158.859 33.4219C158.531 33.6172 158.281 33.8633 158.109 34.1602C157.938 34.4492 157.852 34.7891 157.852 35.1797C157.852 35.5781 157.941 35.9414 158.121 36.2695C158.301 36.5977 158.57 36.8594 158.93 37.0547C159.297 37.2422 159.746 37.3359 160.277 37.3359C160.941 37.3359 161.527 37.1953 162.035 36.9141C162.543 36.6328 162.945 36.2891 163.242 35.8828C163.547 35.4766 163.711 35.082 163.734 34.6992L164.66 35.7422C164.605 36.0703 164.457 36.4336 164.215 36.832C163.973 37.2305 163.648 37.6133 163.242 37.9805C162.844 38.3398 162.367 38.6406 161.812 38.8828C161.266 39.1172 160.648 39.2344 159.961 39.2344C159.102 39.2344 158.348 39.0664 157.699 38.7305C157.059 38.3945 156.559 37.9453 156.199 37.3828C155.848 36.8125 155.672 36.1758 155.672 35.4727C155.672 34.793 155.805 34.1953 156.07 33.6797C156.336 33.1562 156.719 32.7227 157.219 32.3789C157.719 32.0273 158.32 31.7617 159.023 31.582C159.727 31.4023 160.512 31.3125 161.379 31.3125H163.898ZM171.27 28.3125V39H169.102V26.3203H171.211L171.27 28.3125ZM175.23 26.25L175.219 28.2656C175.039 28.2266 174.867 28.2031 174.703 28.1953C174.547 28.1797 174.367 28.1719 174.164 28.1719C173.664 28.1719 173.223 28.25 172.84 28.4062C172.457 28.5625 172.133 28.7812 171.867 29.0625C171.602 29.3438 171.391 29.6797 171.234 30.0703C171.086 30.4531 170.988 30.875 170.941 31.3359L170.332 31.6875C170.332 30.9219 170.406 30.2031 170.555 29.5312C170.711 28.8594 170.949 28.2656 171.27 27.75C171.59 27.2266 171.996 26.8203 172.488 26.5312C172.988 26.2344 173.582 26.0859 174.27 26.0859C174.426 26.0859 174.605 26.1055 174.809 26.1445C175.012 26.1758 175.152 26.2109 175.23 26.25ZM184.992 36.5391V21H187.172V39H185.18L184.992 36.5391ZM176.461 32.8008V32.5547C176.461 31.5859 176.578 30.707 176.812 29.918C177.055 29.1211 177.395 28.4375 177.832 27.8672C178.277 27.2969 178.805 26.8594 179.414 26.5547C180.031 26.2422 180.719 26.0859 181.477 26.0859C182.273 26.0859 182.969 26.2266 183.562 26.5078C184.164 26.7812 184.672 27.1836 185.086 27.7148C185.508 28.2383 185.84 28.8711 186.082 29.6133C186.324 30.3555 186.492 31.1953 186.586 32.1328V33.2109C186.5 34.1406 186.332 34.9766 186.082 35.7188C185.84 36.4609 185.508 37.0938 185.086 37.6172C184.672 38.1406 184.164 38.543 183.562 38.8242C182.961 39.0977 182.258 39.2344 181.453 39.2344C180.711 39.2344 180.031 39.0742 179.414 38.7539C178.805 38.4336 178.277 37.9844 177.832 37.4062C177.395 36.8281 177.055 36.1484 176.812 35.3672C176.578 34.5781 176.461 33.7227 176.461 32.8008ZM178.641 32.5547V32.8008C178.641 33.4336 178.703 34.0273 178.828 34.582C178.961 35.1367 179.164 35.625 179.438 36.0469C179.711 36.4688 180.059 36.8008 180.48 37.043C180.902 37.2773 181.406 37.3945 181.992 37.3945C182.711 37.3945 183.301 37.2422 183.762 36.9375C184.23 36.6328 184.605 36.2305 184.887 35.7305C185.168 35.2305 185.387 34.6875 185.543 34.1016V31.2773C185.449 30.8477 185.312 30.4336 185.133 30.0352C184.961 29.6289 184.734 29.2695 184.453 28.957C184.18 28.6367 183.84 28.3828 183.434 28.1953C183.035 28.0078 182.562 27.9141 182.016 27.9141C181.422 27.9141 180.91 28.0391 180.48 28.2891C180.059 28.5312 179.711 28.8672 179.438 29.2969C179.164 29.7188 178.961 30.2109 178.828 30.7734C178.703 31.3281 178.641 31.9219 178.641 32.5547Z" fill="black"/>
<g clip-path="url(#clip0_3773_18437)">
<path d="M18.4809 16L10.9766 34.9109H25.988L18.4809 16Z" fill="#808080"/>
<path d="M36.1254 16L28.6211 34.9109H43.6297L36.1254 16Z" fill="#808080"/>
<path opacity="0.65" d="M18.4809 16L10.9766 34.9109H25.988L18.4809 16Z" fill="#808080"/>
<path opacity="0.65" d="M36.1254 16L28.6211 34.9109H43.6297L36.1254 16Z" fill="#808080"/>
<path d="M47.0827 44.9231H7.02914C6.73475 44.9231 6.49609 45.1641 6.49609 45.4615C6.49609 45.7589 6.73475 46 7.02914 46H47.0827C47.3771 46 47.6158 45.7589 47.6158 45.4615C47.6158 45.1641 47.3771 44.9231 47.0827 44.9231Z" fill="#808080"/>
<path opacity="0.15" d="M47.0827 44.9231H7.02914C6.73475 44.9231 6.49609 45.1641 6.49609 45.4615C6.49609 45.7589 6.73475 46 7.02914 46H47.0827C47.3771 46 47.6158 45.7589 47.6158 45.4615C47.6158 45.1641 47.3771 44.9231 47.0827 44.9231Z" fill="url(#paint0_radial_3773_18437)"/>
<path d="M27.9947 16L19.788 27.0891C18.8496 28.3539 16.9728 28.3567 16.0344 27.0891L7.8499 16.0505C7.8499 16.0505 14.4464 44.0172 7.8499 44.0172C1.25343 44.0172 14.4186 44.0172 14.4186 44.0172H41.568C41.568 44.0172 51.7847 44.0172 46.6764 44.0172C41.568 44.0172 46.6764 16.0505 46.6764 16.0505L39.2775 26.8171C38.3447 28.1744 36.3597 28.1744 35.4268 26.8171C32.6866 22.8318 27.9947 16 27.9947 16Z" fill="#808080"/>
<g opacity="0.25">
<path d="M27.9947 16L19.788 27.0891C18.8496 28.3539 16.9728 28.3567 16.0344 27.0891L7.8499 16.0505C7.8499 16.0505 14.4464 44.0172 7.8499 44.0172C1.25343 44.0172 14.4186 44.0172 14.4186 44.0172H41.568C41.568 44.0172 51.7847 44.0172 46.6764 44.0172C41.568 44.0172 46.6764 16.0505 46.6764 16.0505L39.2775 26.8171C38.3447 28.1744 36.3597 28.1744 35.4268 26.8171C32.6866 22.8318 27.9947 16 27.9947 16Z" fill="url(#paint1_radial_3773_18437)"/>
</g>
</g>
<defs>
<filter id="filter0_i_3773_18437" x="-10" y="-15" width="209" height="77" filterUnits="userSpaceOnUse" color-interpolation-filters="sRGB">
<feFlood flood-opacity="0" result="BackgroundImageFix"/>
<feBlend mode="normal" in="SourceGraphic" in2="BackgroundImageFix" result="shape"/>
<feColorMatrix in="SourceAlpha" type="matrix" values="0 0 0 0 0 0 0 0 0 0 0 0 0 0 0 0 0 0 127 0" result="hardAlpha"/>
<feOffset dx="-10" dy="-15"/>
<feGaussianBlur stdDeviation="12.5"/>
<feComposite in2="hardAlpha" operator="arithmetic" k2="-1" k3="1"/>
<feColorMatrix type="matrix" values="0 0 0 0 0.137255 0 0 0 0 0.121569 0 0 0 0 0.12549 0 0 0 0.1 0"/>
<feBlend mode="normal" in2="shape" result="effect1_innerShadow_3773_18437"/>
</filter>
<radialGradient id="paint0_radial_3773_18437" cx="0" cy="0" r="1" gradientUnits="userSpaceOnUse" gradientTransform="translate(22.2599 45.4784) scale(11.8992 12.0202)">
<stop stop-color="white"/>
<stop offset="1" stop-color="#808080"/>
</radialGradient>
<radialGradient id="paint1_radial_3773_18437" cx="0" cy="0" r="1" gradientUnits="userSpaceOnUse" gradientTransform="translate(27.0535 30.0086) scale(17.8266 18.0079)">
<stop stop-color="white"/>
<stop offset="1" stop-color="#A3978C" stop-opacity="0.7"/>
</radialGradient>
<clipPath id="clip0_3773_18437">
<rect width="42.1053" height="30" fill="white" transform="translate(6 16)"/>
</clipPath>
</defs>
</svg>
