<svg width="969" height="580" viewBox="0 0 969 580" fill="none" xmlns="http://www.w3.org/2000/svg">
<g filter="url(#filter0_d_6171_11736)">
<path d="M207.501 41.5C194.883 41.5001 154.457 46.0924 135.003 85C127.003 101 129.949 120.811 125.003 134C121.481 143.391 97.0062 183 97.004 274C97.0036 288.609 105.004 363 105.004 390C105.004 441 132.41 445.761 140.955 446.803C298.499 466 233.711 336.282 236.501 286.375C244.954 135.211 268.501 170.392 268.501 85C268.501 74.0439 230.193 41.4999 207.501 41.5Z" fill="#CCB013"/>
<path d="M137 154.5C125.4 155.3 122.167 146.5 122 142C120 142 114.5 158 112 166C115.333 171.167 125 181.5 137 181.5C149 181.5 161.333 188.5 166 192L168.5 181.5C168.667 179.167 168.9 173.4 168.5 169C168 163.5 151.5 153.5 137 154.5Z" fill="#22371B"/>
<path opacity="0.5" d="M207.498 41.5C194.879 41.5001 154.453 46.0924 134.999 85C126.999 101 129.945 120.811 124.999 134C121.477 143.391 97.0023 183 97.0001 274C96.9997 288.609 105 363 105 390C105 441 132.406 445.761 140.951 446.803C298.495 466 233.707 336.282 236.498 286.375C244.95 135.211 268.498 170.392 268.498 85C268.498 74.0439 230.189 41.4999 207.498 41.5Z" fill="url(#paint0_linear_6171_11736)"/>
<g style="mix-blend-mode:multiply">
<path d="M137 154.5C125.4 155.3 122.167 146.5 122 142C120 142 114.5 158 112 166C115.333 171.167 125 181.5 137 181.5C149 181.5 161.333 188.5 166 192L168.5 181.5C168.667 179.167 168.9 173.4 168.5 169C168 163.5 151.5 153.5 137 154.5Z" fill="#22371B"/>
</g>
<path d="M364.634 28.4785H406.893L364.634 55.8687H322.375L364.634 28.4785Z" fill="#132D1F"/>
<path d="M664.956 32H707L661.044 54H619L664.956 32Z" fill="#132D1F"/>
<path d="M205.691 41.7832C193.073 41.7833 179.87 48.8265 164.218 66.0431C150.523 91.0856 172.686 172.588 167.74 185.777C164.218 195.168 167.74 208 167.737 289C167.736 303.61 163.033 384.48 155.997 415C150.37 439.403 154.251 442.532 161.954 446.374C193.332 462.025 379.51 445.338 381.771 446.374C394.77 452.333 530.464 446.374 604 453C689.907 460.741 821.292 439.716 859 453C896.709 466.285 903.818 449 903.818 415C903.818 381 921.035 298.468 913.926 216.298C912.307 197.586 903.818 177.58 903.818 151.343C903.818 123.953 905.393 141.069 903.818 130C894 61.0005 850.54 48.524 832.538 54.0015C814.535 59.479 561.767 50.3917 530.464 50.3917H265.953C254.997 50.3917 228.383 41.7831 205.691 41.7832Z" fill="#DFC52F"/>
<rect x="180" y="284" width="155" height="126" rx="15" fill="#C9B32B"/>
<rect x="185" y="290" width="141" height="115" rx="15" fill="#DFC52F"/>
<rect x="732" y="284" width="155" height="126" rx="15" fill="#C9B32B"/>
<rect x="737" y="290" width="141" height="115" rx="15" fill="#DFC52F"/>
<rect x="548" y="284" width="155" height="126" rx="15" fill="#C9B32B"/>
<rect x="553" y="290" width="141" height="115" rx="15" fill="#DFC52F"/>
<rect x="365" y="284" width="155" height="126" rx="15" fill="#C9B32B"/>
<rect x="370" y="290" width="141" height="115" rx="15" fill="#DFC52F"/>
<path opacity="0.9" d="M407 168H665V46H707V168H905L907 180L909.5 192H165L167.5 181V168H365V46H407V168Z" fill="#0D2719"/>
<rect x="364.641" y="28.4785" width="42.2591" height="25.0424" fill="#1F432F"/>
<rect x="665" y="32" width="42" height="25" fill="#1F432F"/>
<line x1="366.219" y1="57.5505" x2="405.219" y2="76.5505" stroke="#132D1F"/>
<line x1="365.785" y1="76.5484" x2="405.785" y2="57.5484" stroke="#132D1F"/>
<path d="M303.371 224.908C303.547 224.908 303.703 224.976 303.839 225.112L305.111 226.492C304.407 227.364 303.539 228.032 302.507 228.496C301.483 228.96 300.251 229.192 298.811 229.192C297.523 229.192 296.363 228.972 295.331 228.532C294.307 228.092 293.431 227.48 292.703 226.696C291.975 225.912 291.415 224.976 291.023 223.888C290.639 222.8 290.447 221.612 290.447 220.324C290.447 219.02 290.655 217.828 291.071 216.748C291.487 215.66 292.071 214.724 292.823 213.94C293.583 213.156 294.487 212.548 295.535 212.116C296.583 211.676 297.743 211.456 299.015 211.456C300.279 211.456 301.399 211.664 302.375 212.08C303.359 212.496 304.195 213.04 304.883 213.712L303.803 215.212C303.739 215.308 303.655 215.392 303.551 215.464C303.455 215.536 303.319 215.572 303.143 215.572C303.023 215.572 302.899 215.54 302.771 215.476C302.643 215.404 302.503 215.32 302.351 215.224C302.199 215.12 302.023 215.008 301.823 214.888C301.623 214.768 301.391 214.66 301.127 214.564C300.863 214.46 300.555 214.376 300.203 214.312C299.859 214.24 299.459 214.204 299.003 214.204C298.227 214.204 297.515 214.344 296.867 214.624C296.227 214.896 295.675 215.296 295.211 215.824C294.747 216.344 294.387 216.984 294.131 217.744C293.875 218.496 293.747 219.356 293.747 220.324C293.747 221.3 293.883 222.168 294.155 222.928C294.435 223.688 294.811 224.328 295.283 224.848C295.755 225.368 296.311 225.768 296.951 226.048C297.591 226.32 298.279 226.456 299.015 226.456C299.455 226.456 299.851 226.432 300.203 226.384C300.563 226.336 300.891 226.26 301.187 226.156C301.491 226.052 301.775 225.92 302.039 225.76C302.311 225.592 302.579 225.388 302.843 225.148C302.923 225.076 303.007 225.02 303.095 224.98C303.183 224.932 303.275 224.908 303.371 224.908ZM309.855 211.168V229H306.891V211.168H309.855ZM315.88 216.688V229H312.904V216.688H315.88ZM316.288 213.1C316.288 213.356 316.236 213.596 316.132 213.82C316.028 214.044 315.888 214.24 315.712 214.408C315.544 214.576 315.344 214.712 315.112 214.816C314.88 214.912 314.632 214.96 314.368 214.96C314.112 214.96 313.868 214.912 313.636 214.816C313.412 214.712 313.216 214.576 313.048 214.408C312.88 214.24 312.744 214.044 312.64 213.82C312.544 213.596 312.496 213.356 312.496 213.1C312.496 212.836 312.544 212.588 312.64 212.356C312.744 212.124 312.88 211.924 313.048 211.756C313.216 211.588 313.412 211.456 313.636 211.36C313.868 211.256 314.112 211.204 314.368 211.204C314.632 211.204 314.88 211.256 315.112 211.36C315.344 211.456 315.544 211.588 315.712 211.756C315.888 211.924 316.028 212.124 316.132 212.356C316.236 212.588 316.288 212.836 316.288 213.1ZM327.722 219.292C327.634 219.404 327.546 219.492 327.458 219.556C327.378 219.62 327.258 219.652 327.098 219.652C326.946 219.652 326.798 219.608 326.654 219.52C326.51 219.424 326.338 219.32 326.138 219.208C325.938 219.088 325.698 218.984 325.418 218.896C325.146 218.8 324.806 218.752 324.398 218.752C323.878 218.752 323.422 218.848 323.03 219.04C322.638 219.224 322.31 219.492 322.046 219.844C321.79 220.196 321.598 220.624 321.47 221.128C321.342 221.624 321.278 222.188 321.278 222.82C321.278 223.476 321.346 224.06 321.482 224.572C321.626 225.084 321.83 225.516 322.094 225.868C322.358 226.212 322.678 226.476 323.054 226.66C323.43 226.836 323.854 226.924 324.326 226.924C324.798 226.924 325.178 226.868 325.466 226.756C325.762 226.636 326.01 226.508 326.21 226.372C326.41 226.228 326.582 226.1 326.726 225.988C326.878 225.868 327.046 225.808 327.23 225.808C327.47 225.808 327.65 225.9 327.77 226.084L328.622 227.164C328.294 227.548 327.938 227.872 327.554 228.136C327.17 228.392 326.77 228.6 326.354 228.76C325.946 228.912 325.522 229.02 325.082 229.084C324.65 229.148 324.218 229.18 323.786 229.18C323.026 229.18 322.31 229.04 321.638 228.76C320.966 228.472 320.378 228.056 319.874 227.512C319.37 226.968 318.97 226.304 318.674 225.52C318.386 224.728 318.242 223.828 318.242 222.82C318.242 221.916 318.37 221.08 318.626 220.312C318.89 219.536 319.274 218.868 319.778 218.308C320.282 217.74 320.906 217.296 321.65 216.976C322.394 216.656 323.25 216.496 324.217 216.496C325.138 216.496 325.942 216.644 326.63 216.94C327.326 217.236 327.95 217.66 328.502 218.212L327.722 219.292ZM333.444 211.168V221.38H333.996C334.196 221.38 334.352 221.356 334.464 221.308C334.584 221.252 334.704 221.144 334.824 220.984L337.884 217.204C338.012 217.036 338.152 216.908 338.304 216.82C338.464 216.732 338.668 216.688 338.916 216.688H341.628L337.8 221.26C337.528 221.62 337.232 221.896 336.912 222.088C337.08 222.208 337.228 222.348 337.356 222.508C337.492 222.668 337.62 222.84 337.74 223.024L341.844 229H339.168C338.936 229 338.736 228.964 338.568 228.892C338.4 228.812 338.26 228.672 338.148 228.472L335.004 223.804C334.892 223.62 334.776 223.5 334.656 223.444C334.536 223.388 334.356 223.36 334.116 223.36H333.444V229H330.48V211.168H333.444ZM354.584 216.496C355.496 216.496 356.324 216.644 357.068 216.94C357.82 217.236 358.46 217.656 358.988 218.2C359.524 218.744 359.936 219.408 360.224 220.192C360.512 220.976 360.656 221.852 360.656 222.82C360.656 223.796 360.512 224.676 360.224 225.46C359.936 226.244 359.524 226.912 358.988 227.464C358.46 228.016 357.82 228.44 357.068 228.736C356.324 229.032 355.496 229.18 354.584 229.18C353.664 229.18 352.828 229.032 352.076 228.736C351.324 228.44 350.68 228.016 350.144 227.464C349.616 226.912 349.204 226.244 348.908 225.46C348.62 224.676 348.476 223.796 348.476 222.82C348.476 221.852 348.62 220.976 348.908 220.192C349.204 219.408 349.616 218.744 350.144 218.2C350.68 217.656 351.324 217.236 352.076 216.94C352.828 216.644 353.664 216.496 354.584 216.496ZM354.584 226.9C355.608 226.9 356.364 226.556 356.852 225.868C357.348 225.18 357.596 224.172 357.596 222.844C357.596 221.516 357.348 220.504 356.852 219.808C356.364 219.112 355.608 218.764 354.584 218.764C353.544 218.764 352.772 219.116 352.268 219.82C351.772 220.516 351.524 221.524 351.524 222.844C351.524 224.164 351.772 225.172 352.268 225.868C352.772 226.556 353.544 226.9 354.584 226.9ZM365.689 218.2C365.937 217.952 366.197 217.724 366.469 217.516C366.749 217.3 367.041 217.12 367.345 216.976C367.657 216.824 367.989 216.708 368.341 216.628C368.693 216.54 369.077 216.496 369.493 216.496C370.165 216.496 370.761 216.612 371.281 216.844C371.801 217.068 372.233 217.388 372.577 217.804C372.929 218.212 373.193 218.704 373.369 219.28C373.553 219.848 373.645 220.476 373.645 221.164V229H370.681V221.164C370.681 220.412 370.509 219.832 370.165 219.424C369.821 219.008 369.297 218.8 368.593 218.8C368.081 218.8 367.601 218.916 367.153 219.148C366.705 219.38 366.281 219.696 365.881 220.096V229H362.917V216.688H364.729C365.113 216.688 365.365 216.868 365.485 217.228L365.689 218.2ZM386.404 229.192C385.332 229.192 384.508 228.892 383.932 228.292C383.364 227.684 383.08 226.848 383.08 225.784V218.908H381.82C381.66 218.908 381.524 218.856 381.412 218.752C381.3 218.648 381.244 218.492 381.244 218.284V217.108L383.224 216.784L383.848 213.424C383.888 213.264 383.964 213.14 384.076 213.052C384.188 212.964 384.332 212.92 384.508 212.92H386.044V216.796H389.332V218.908H386.044V225.58C386.044 225.964 386.136 226.264 386.32 226.48C386.512 226.696 386.772 226.804 387.1 226.804C387.284 226.804 387.436 226.784 387.556 226.744C387.684 226.696 387.792 226.648 387.88 226.6C387.976 226.552 388.06 226.508 388.132 226.468C388.204 226.42 388.276 226.396 388.348 226.396C388.436 226.396 388.508 226.42 388.564 226.468C388.62 226.508 388.68 226.572 388.744 226.66L389.632 228.1C389.2 228.46 388.704 228.732 388.144 228.916C387.584 229.1 387.004 229.192 386.404 229.192ZM394.194 218.008C394.674 217.56 395.202 217.196 395.778 216.916C396.354 216.636 397.03 216.496 397.806 216.496C398.478 216.496 399.074 216.612 399.594 216.844C400.114 217.068 400.546 217.388 400.89 217.804C401.242 218.212 401.506 218.704 401.682 219.28C401.866 219.848 401.958 220.476 401.958 221.164V229H398.994V221.164C398.994 220.412 398.822 219.832 398.478 219.424C398.134 219.008 397.61 218.8 396.906 218.8C396.394 218.8 395.914 218.916 395.466 219.148C395.018 219.38 394.594 219.696 394.194 220.096V229H391.23V211.168H394.194V218.008ZM412.709 221.428C412.709 221.044 412.653 220.684 412.541 220.348C412.437 220.004 412.277 219.704 412.061 219.448C411.845 219.192 411.569 218.992 411.233 218.848C410.905 218.696 410.521 218.62 410.081 218.62C409.225 218.62 408.549 218.864 408.053 219.352C407.565 219.84 407.253 220.532 407.117 221.428H412.709ZM407.057 223.216C407.105 223.848 407.217 224.396 407.393 224.86C407.569 225.316 407.801 225.696 408.089 226C408.377 226.296 408.717 226.52 409.109 226.672C409.509 226.816 409.949 226.888 410.429 226.888C410.909 226.888 411.321 226.832 411.665 226.72C412.017 226.608 412.321 226.484 412.577 226.348C412.841 226.212 413.069 226.088 413.261 225.976C413.461 225.864 413.653 225.808 413.837 225.808C414.085 225.808 414.269 225.9 414.389 226.084L415.241 227.164C414.913 227.548 414.545 227.872 414.137 228.136C413.729 228.392 413.301 228.6 412.853 228.76C412.413 228.912 411.961 229.02 411.497 229.084C411.041 229.148 410.597 229.18 410.165 229.18C409.309 229.18 408.513 229.04 407.777 228.76C407.041 228.472 406.401 228.052 405.857 227.5C405.313 226.94 404.885 226.252 404.573 225.436C404.261 224.612 404.104 223.66 404.104 222.58C404.104 221.74 404.241 220.952 404.513 220.216C404.785 219.472 405.173 218.828 405.677 218.284C406.189 217.732 406.809 217.296 407.537 216.976C408.273 216.656 409.101 216.496 410.021 216.496C410.797 216.496 411.513 216.62 412.169 216.868C412.825 217.116 413.389 217.48 413.861 217.96C414.333 218.432 414.701 219.016 414.965 219.712C415.237 220.4 415.372 221.188 415.372 222.076C415.372 222.524 415.325 222.828 415.229 222.988C415.133 223.14 414.949 223.216 414.677 223.216H407.057ZM427.537 229.192C426.465 229.192 425.641 228.892 425.065 228.292C424.497 227.684 424.213 226.848 424.213 225.784V218.908H422.953C422.793 218.908 422.657 218.856 422.545 218.752C422.433 218.648 422.377 218.492 422.377 218.284V217.108L424.357 216.784L424.981 213.424C425.021 213.264 425.097 213.14 425.209 213.052C425.321 212.964 425.465 212.92 425.641 212.92H427.177V216.796H430.465V218.908H427.177V225.58C427.177 225.964 427.269 226.264 427.453 226.48C427.645 226.696 427.905 226.804 428.233 226.804C428.417 226.804 428.569 226.784 428.689 226.744C428.817 226.696 428.925 226.648 429.013 226.6C429.109 226.552 429.193 226.508 429.265 226.468C429.337 226.42 429.409 226.396 429.481 226.396C429.569 226.396 429.641 226.42 429.697 226.468C429.753 226.508 429.813 226.572 429.877 226.66L430.765 228.1C430.333 228.46 429.837 228.732 429.277 228.916C428.717 229.1 428.137 229.192 427.537 229.192ZM437.717 216.496C438.629 216.496 439.457 216.644 440.201 216.94C440.953 217.236 441.593 217.656 442.121 218.2C442.657 218.744 443.069 219.408 443.357 220.192C443.645 220.976 443.789 221.852 443.789 222.82C443.789 223.796 443.645 224.676 443.357 225.46C443.069 226.244 442.657 226.912 442.121 227.464C441.593 228.016 440.953 228.44 440.201 228.736C439.457 229.032 438.629 229.18 437.717 229.18C436.797 229.18 435.961 229.032 435.209 228.736C434.457 228.44 433.813 228.016 433.277 227.464C432.749 226.912 432.337 226.244 432.041 225.46C431.753 224.676 431.609 223.796 431.609 222.82C431.609 221.852 431.753 220.976 432.041 220.192C432.337 219.408 432.749 218.744 433.277 218.2C433.813 217.656 434.457 217.236 435.209 216.94C435.961 216.644 436.797 216.496 437.717 216.496ZM437.717 226.9C438.741 226.9 439.497 226.556 439.985 225.868C440.481 225.18 440.729 224.172 440.729 222.844C440.729 221.516 440.481 220.504 439.985 219.808C439.497 219.112 438.741 218.764 437.717 218.764C436.677 218.764 435.905 219.116 435.401 219.82C434.905 220.516 434.657 221.524 434.657 222.844C434.657 224.164 434.905 225.172 435.401 225.868C435.905 226.556 436.677 226.9 437.717 226.9ZM449.014 225.808C449.35 226.216 449.714 226.504 450.106 226.672C450.506 226.84 450.938 226.924 451.402 226.924C451.85 226.924 452.254 226.84 452.614 226.672C452.974 226.504 453.278 226.248 453.526 225.904C453.782 225.56 453.978 225.128 454.114 224.608C454.25 224.08 454.318 223.46 454.318 222.748C454.318 222.028 454.258 221.42 454.138 220.924C454.026 220.42 453.862 220.012 453.646 219.7C453.43 219.388 453.166 219.16 452.854 219.016C452.55 218.872 452.202 218.8 451.81 218.8C451.194 218.8 450.67 218.932 450.238 219.196C449.806 219.452 449.398 219.816 449.014 220.288V225.808ZM448.858 218.368C449.362 217.8 449.934 217.34 450.574 216.988C451.214 216.636 451.966 216.46 452.83 216.46C453.502 216.46 454.114 216.6 454.666 216.88C455.226 217.16 455.706 217.568 456.106 218.104C456.514 218.632 456.826 219.288 457.042 220.072C457.266 220.848 457.378 221.74 457.378 222.748C457.378 223.668 457.254 224.52 457.006 225.304C456.758 226.088 456.402 226.768 455.938 227.344C455.482 227.92 454.926 228.372 454.27 228.7C453.622 229.02 452.894 229.18 452.086 229.18C451.398 229.18 450.81 229.076 450.322 228.868C449.834 228.652 449.398 228.356 449.014 227.98V233.02H446.05V216.688H447.862C448.246 216.688 448.498 216.868 448.618 217.228L448.858 218.368ZM462.763 216.688V229H459.787V216.688H462.763ZM463.171 213.1C463.171 213.356 463.119 213.596 463.015 213.82C462.911 214.044 462.771 214.24 462.595 214.408C462.427 214.576 462.227 214.712 461.995 214.816C461.763 214.912 461.515 214.96 461.251 214.96C460.995 214.96 460.751 214.912 460.519 214.816C460.295 214.712 460.099 214.576 459.931 214.408C459.763 214.24 459.627 214.044 459.523 213.82C459.427 213.596 459.379 213.356 459.379 213.1C459.379 212.836 459.427 212.588 459.523 212.356C459.627 212.124 459.763 211.924 459.931 211.756C460.099 211.588 460.295 211.456 460.519 211.36C460.751 211.256 460.995 211.204 461.251 211.204C461.515 211.204 461.763 211.256 461.995 211.36C462.227 211.456 462.427 211.588 462.595 211.756C462.771 211.924 462.911 212.124 463.015 212.356C463.119 212.588 463.171 212.836 463.171 213.1ZM474.604 219.292C474.516 219.404 474.428 219.492 474.34 219.556C474.26 219.62 474.14 219.652 473.98 219.652C473.828 219.652 473.68 219.608 473.536 219.52C473.392 219.424 473.22 219.32 473.02 219.208C472.82 219.088 472.58 218.984 472.3 218.896C472.028 218.8 471.688 218.752 471.28 218.752C470.76 218.752 470.304 218.848 469.912 219.04C469.52 219.224 469.192 219.492 468.928 219.844C468.672 220.196 468.48 220.624 468.352 221.128C468.224 221.624 468.16 222.188 468.16 222.82C468.16 223.476 468.228 224.06 468.364 224.572C468.508 225.084 468.712 225.516 468.976 225.868C469.24 226.212 469.56 226.476 469.936 226.66C470.312 226.836 470.736 226.924 471.208 226.924C471.68 226.924 472.06 226.868 472.348 226.756C472.644 226.636 472.892 226.508 473.092 226.372C473.292 226.228 473.464 226.1 473.608 225.988C473.76 225.868 473.928 225.808 474.112 225.808C474.352 225.808 474.532 225.9 474.652 226.084L475.504 227.164C475.176 227.548 474.82 227.872 474.436 228.136C474.052 228.392 473.652 228.6 473.236 228.76C472.828 228.912 472.404 229.02 471.964 229.084C471.532 229.148 471.1 229.18 470.668 229.18C469.908 229.18 469.192 229.04 468.52 228.76C467.848 228.472 467.26 228.056 466.756 227.512C466.252 226.968 465.852 226.304 465.556 225.52C465.268 224.728 465.124 223.828 465.124 222.82C465.124 221.916 465.252 221.08 465.508 220.312C465.772 219.536 466.156 218.868 466.66 218.308C467.164 217.74 467.788 217.296 468.532 216.976C469.276 216.656 470.132 216.496 471.1 216.496C472.02 216.496 472.824 216.644 473.512 216.94C474.208 217.236 474.832 217.66 475.384 218.212L474.604 219.292ZM493.773 216.688L487.065 232.384C486.977 232.592 486.861 232.748 486.717 232.852C486.581 232.964 486.369 233.02 486.081 233.02H483.873L486.177 228.076L481.197 216.688H483.801C484.033 216.688 484.213 216.744 484.341 216.856C484.477 216.968 484.577 217.096 484.641 217.24L487.257 223.624C487.345 223.84 487.417 224.056 487.473 224.272C487.537 224.488 487.597 224.708 487.653 224.932C487.725 224.708 487.797 224.488 487.869 224.272C487.941 224.048 488.021 223.828 488.109 223.612L490.581 217.24C490.645 217.08 490.749 216.948 490.893 216.844C491.045 216.74 491.213 216.688 491.397 216.688H493.773ZM500.318 216.496C501.23 216.496 502.058 216.644 502.802 216.94C503.554 217.236 504.194 217.656 504.722 218.2C505.258 218.744 505.67 219.408 505.958 220.192C506.246 220.976 506.39 221.852 506.39 222.82C506.39 223.796 506.246 224.676 505.958 225.46C505.67 226.244 505.258 226.912 504.722 227.464C504.194 228.016 503.554 228.44 502.802 228.736C502.058 229.032 501.23 229.18 500.318 229.18C499.398 229.18 498.562 229.032 497.81 228.736C497.058 228.44 496.414 228.016 495.878 227.464C495.35 226.912 494.938 226.244 494.642 225.46C494.354 224.676 494.21 223.796 494.21 222.82C494.21 221.852 494.354 220.976 494.642 220.192C494.938 219.408 495.35 218.744 495.878 218.2C496.414 217.656 497.058 217.236 497.81 216.94C498.562 216.644 499.398 216.496 500.318 216.496ZM500.318 226.9C501.342 226.9 502.098 226.556 502.586 225.868C503.082 225.18 503.33 224.172 503.33 222.844C503.33 221.516 503.082 220.504 502.586 219.808C502.098 219.112 501.342 218.764 500.318 218.764C499.278 218.764 498.506 219.116 498.002 219.82C497.506 220.516 497.258 221.524 497.258 222.844C497.258 224.164 497.506 225.172 498.002 225.868C498.506 226.556 499.278 226.9 500.318 226.9ZM519.26 216.688V229H517.448C517.056 229 516.808 228.82 516.704 228.46L516.5 227.476C515.996 227.988 515.44 228.404 514.832 228.724C514.224 229.036 513.508 229.192 512.684 229.192C512.012 229.192 511.416 229.08 510.896 228.856C510.384 228.624 509.952 228.3 509.6 227.884C509.248 227.468 508.98 226.976 508.796 226.408C508.62 225.832 508.532 225.2 508.532 224.512V216.688H511.496V224.512C511.496 225.264 511.668 225.848 512.012 226.264C512.364 226.672 512.888 226.876 513.584 226.876C514.096 226.876 514.576 226.764 515.024 226.54C515.472 226.308 515.896 225.992 516.296 225.592V216.688H519.26ZM545.122 216.688L541.21 229H538.834C538.562 229 538.374 228.824 538.27 228.472L536.062 221.356C535.99 221.116 535.922 220.88 535.858 220.648C535.802 220.408 535.754 220.168 535.714 219.928C535.666 220.168 535.61 220.412 535.546 220.66C535.49 220.9 535.426 221.14 535.354 221.38L533.11 228.472C533.014 228.824 532.802 229 532.474 229H530.194L526.294 216.688H528.658C528.874 216.688 529.058 216.74 529.21 216.844C529.362 216.948 529.462 217.08 529.51 217.24L531.274 223.816C531.362 224.176 531.438 224.528 531.502 224.872C531.574 225.216 531.634 225.56 531.682 225.904C531.77 225.56 531.862 225.216 531.958 224.872C532.062 224.528 532.17 224.176 532.282 223.816L534.322 217.216C534.37 217.056 534.462 216.924 534.598 216.82C534.742 216.716 534.914 216.664 535.114 216.664H536.422C536.63 216.664 536.806 216.716 536.95 216.82C537.102 216.924 537.202 217.056 537.25 217.216L539.23 223.816C539.334 224.176 539.43 224.532 539.518 224.884C539.614 225.228 539.706 225.572 539.794 225.916C539.898 225.236 540.046 224.536 540.238 223.816L542.05 217.24C542.106 217.08 542.206 216.948 542.35 216.844C542.494 216.74 542.666 216.688 542.866 216.688H545.122ZM553.148 223.744C552.292 223.784 551.572 223.86 550.988 223.972C550.404 224.076 549.936 224.212 549.584 224.38C549.232 224.548 548.98 224.744 548.828 224.968C548.676 225.192 548.6 225.436 548.6 225.7C548.6 226.22 548.752 226.592 549.056 226.816C549.368 227.04 549.772 227.152 550.268 227.152C550.876 227.152 551.4 227.044 551.84 226.828C552.288 226.604 552.724 226.268 553.148 225.82V223.744ZM546.356 218.404C547.772 217.108 549.476 216.46 551.468 216.46C552.188 216.46 552.832 216.58 553.4 216.82C553.968 217.052 554.448 217.38 554.84 217.804C555.232 218.22 555.528 218.72 555.728 219.304C555.936 219.888 556.04 220.528 556.04 221.224V229H554.696C554.416 229 554.2 228.96 554.048 228.88C553.896 228.792 553.776 228.62 553.688 228.364L553.424 227.476C553.112 227.756 552.808 228.004 552.512 228.22C552.216 228.428 551.908 228.604 551.588 228.748C551.268 228.892 550.924 229 550.556 229.072C550.196 229.152 549.796 229.192 549.356 229.192C548.836 229.192 548.356 229.124 547.916 228.988C547.476 228.844 547.096 228.632 546.776 228.352C546.456 228.072 546.208 227.724 546.032 227.308C545.856 226.892 545.768 226.408 545.768 225.856C545.768 225.544 545.82 225.236 545.924 224.932C546.028 224.62 546.196 224.324 546.428 224.044C546.668 223.764 546.976 223.5 547.352 223.252C547.728 223.004 548.188 222.788 548.732 222.604C549.284 222.42 549.924 222.272 550.652 222.16C551.38 222.04 552.212 221.968 553.148 221.944V221.224C553.148 220.4 552.972 219.792 552.62 219.4C552.268 219 551.76 218.8 551.096 218.8C550.616 218.8 550.216 218.856 549.896 218.968C549.584 219.08 549.308 219.208 549.068 219.352C548.828 219.488 548.608 219.612 548.408 219.724C548.216 219.836 548 219.892 547.76 219.892C547.552 219.892 547.376 219.84 547.232 219.736C547.088 219.624 546.972 219.496 546.884 219.352L546.356 218.404ZM561.603 218.2C561.851 217.952 562.111 217.724 562.383 217.516C562.663 217.3 562.955 217.12 563.259 216.976C563.571 216.824 563.903 216.708 564.255 216.628C564.607 216.54 564.991 216.496 565.407 216.496C566.079 216.496 566.675 216.612 567.195 216.844C567.715 217.068 568.147 217.388 568.491 217.804C568.843 218.212 569.107 218.704 569.283 219.28C569.467 219.848 569.559 220.476 569.559 221.164V229H566.595V221.164C566.595 220.412 566.423 219.832 566.079 219.424C565.735 219.008 565.211 218.8 564.507 218.8C563.995 218.8 563.515 218.916 563.067 219.148C562.619 219.38 562.195 219.696 561.795 220.096V229H558.831V216.688H560.643C561.027 216.688 561.279 216.868 561.399 217.228L561.603 218.2ZM576.318 229.192C575.246 229.192 574.422 228.892 573.846 228.292C573.278 227.684 572.994 226.848 572.994 225.784V218.908H571.734C571.574 218.908 571.438 218.856 571.326 218.752C571.214 218.648 571.158 218.492 571.158 218.284V217.108L573.138 216.784L573.762 213.424C573.802 213.264 573.878 213.14 573.99 213.052C574.102 212.964 574.246 212.92 574.422 212.92H575.958V216.796H579.246V218.908H575.958V225.58C575.958 225.964 576.05 226.264 576.234 226.48C576.426 226.696 576.686 226.804 577.014 226.804C577.198 226.804 577.35 226.784 577.47 226.744C577.598 226.696 577.706 226.648 577.794 226.6C577.89 226.552 577.974 226.508 578.046 226.468C578.118 226.42 578.19 226.396 578.262 226.396C578.35 226.396 578.422 226.42 578.478 226.468C578.534 226.508 578.594 226.572 578.658 226.66L579.546 228.1C579.114 228.46 578.618 228.732 578.058 228.916C577.498 229.1 576.918 229.192 576.318 229.192ZM591.084 229.192C590.012 229.192 589.188 228.892 588.612 228.292C588.044 227.684 587.76 226.848 587.76 225.784V218.908H586.5C586.34 218.908 586.204 218.856 586.092 218.752C585.98 218.648 585.924 218.492 585.924 218.284V217.108L587.904 216.784L588.528 213.424C588.568 213.264 588.644 213.14 588.756 213.052C588.868 212.964 589.012 212.92 589.188 212.92H590.724V216.796H594.012V218.908H590.724V225.58C590.724 225.964 590.816 226.264 591 226.48C591.192 226.696 591.452 226.804 591.78 226.804C591.964 226.804 592.116 226.784 592.236 226.744C592.364 226.696 592.472 226.648 592.56 226.6C592.656 226.552 592.74 226.508 592.812 226.468C592.884 226.42 592.956 226.396 593.028 226.396C593.116 226.396 593.188 226.42 593.244 226.468C593.3 226.508 593.36 226.572 593.424 226.66L594.312 228.1C593.88 228.46 593.384 228.732 592.824 228.916C592.264 229.1 591.684 229.192 591.084 229.192ZM601.264 216.496C602.176 216.496 603.004 216.644 603.748 216.94C604.5 217.236 605.14 217.656 605.668 218.2C606.204 218.744 606.616 219.408 606.904 220.192C607.192 220.976 607.336 221.852 607.336 222.82C607.336 223.796 607.192 224.676 606.904 225.46C606.616 226.244 606.204 226.912 605.668 227.464C605.14 228.016 604.5 228.44 603.748 228.736C603.004 229.032 602.176 229.18 601.264 229.18C600.344 229.18 599.508 229.032 598.756 228.736C598.004 228.44 597.36 228.016 596.824 227.464C596.296 226.912 595.884 226.244 595.588 225.46C595.3 224.676 595.156 223.796 595.156 222.82C595.156 221.852 595.3 220.976 595.588 220.192C595.884 219.408 596.296 218.744 596.824 218.2C597.36 217.656 598.004 217.236 598.756 216.94C599.508 216.644 600.344 216.496 601.264 216.496ZM601.264 226.9C602.288 226.9 603.044 226.556 603.532 225.868C604.028 225.18 604.276 224.172 604.276 222.844C604.276 221.516 604.028 220.504 603.532 219.808C603.044 219.112 602.288 218.764 601.264 218.764C600.224 218.764 599.452 219.116 598.948 219.82C598.452 220.516 598.204 221.524 598.204 222.844C598.204 224.164 598.452 225.172 598.948 225.868C599.452 226.556 600.224 226.9 601.264 226.9ZM618.397 211.168V221.38H618.949C619.149 221.38 619.305 221.356 619.417 221.308C619.537 221.252 619.657 221.144 619.777 220.984L622.837 217.204C622.965 217.036 623.105 216.908 623.257 216.82C623.417 216.732 623.621 216.688 623.869 216.688H626.581L622.753 221.26C622.481 221.62 622.185 221.896 621.865 222.088C622.033 222.208 622.181 222.348 622.309 222.508C622.445 222.668 622.573 222.84 622.693 223.024L626.797 229H624.121C623.889 229 623.689 228.964 623.521 228.892C623.353 228.812 623.213 228.672 623.101 228.472L619.957 223.804C619.845 223.62 619.729 223.5 619.609 223.444C619.489 223.388 619.309 223.36 619.069 223.36H618.397V229H615.433V211.168H618.397ZM631.025 218.2C631.273 217.952 631.533 217.724 631.805 217.516C632.085 217.3 632.377 217.12 632.681 216.976C632.993 216.824 633.325 216.708 633.677 216.628C634.029 216.54 634.413 216.496 634.829 216.496C635.501 216.496 636.097 216.612 636.617 216.844C637.137 217.068 637.569 217.388 637.913 217.804C638.265 218.212 638.529 218.704 638.705 219.28C638.889 219.848 638.981 220.476 638.981 221.164V229H636.017V221.164C636.017 220.412 635.845 219.832 635.501 219.424C635.157 219.008 634.633 218.8 633.929 218.8C633.417 218.8 632.937 218.916 632.489 219.148C632.041 219.38 631.617 219.696 631.217 220.096V229H628.253V216.688H630.065C630.449 216.688 630.701 216.868 630.821 217.228L631.025 218.2ZM647.248 216.496C648.16 216.496 648.988 216.644 649.732 216.94C650.484 217.236 651.124 217.656 651.652 218.2C652.188 218.744 652.6 219.408 652.888 220.192C653.176 220.976 653.32 221.852 653.32 222.82C653.32 223.796 653.176 224.676 652.888 225.46C652.6 226.244 652.188 226.912 651.652 227.464C651.124 228.016 650.484 228.44 649.732 228.736C648.988 229.032 648.16 229.18 647.248 229.18C646.328 229.18 645.492 229.032 644.74 228.736C643.988 228.44 643.344 228.016 642.808 227.464C642.28 226.912 641.868 226.244 641.572 225.46C641.284 224.676 641.14 223.796 641.14 222.82C641.14 221.852 641.284 220.976 641.572 220.192C641.868 219.408 642.28 218.744 642.808 218.2C643.344 217.656 643.988 217.236 644.74 216.94C645.492 216.644 646.328 216.496 647.248 216.496ZM647.248 226.9C648.272 226.9 649.028 226.556 649.516 225.868C650.012 225.18 650.26 224.172 650.26 222.844C650.26 221.516 650.012 220.504 649.516 219.808C649.028 219.112 648.272 218.764 647.248 218.764C646.208 218.764 645.436 219.116 644.932 219.82C644.436 220.516 644.188 221.524 644.188 222.844C644.188 224.164 644.436 225.172 644.932 225.868C645.436 226.556 646.208 226.9 647.248 226.9ZM672.95 216.688L669.038 229H666.662C666.39 229 666.202 228.824 666.098 228.472L663.89 221.356C663.818 221.116 663.75 220.88 663.686 220.648C663.63 220.408 663.582 220.168 663.542 219.928C663.494 220.168 663.438 220.412 663.374 220.66C663.318 220.9 663.254 221.14 663.182 221.38L660.938 228.472C660.842 228.824 660.63 229 660.302 229H658.022L654.122 216.688H656.486C656.702 216.688 656.886 216.74 657.038 216.844C657.19 216.948 657.29 217.08 657.338 217.24L659.102 223.816C659.19 224.176 659.266 224.528 659.33 224.872C659.402 225.216 659.462 225.56 659.51 225.904C659.598 225.56 659.69 225.216 659.786 224.872C659.89 224.528 659.998 224.176 660.11 223.816L662.15 217.216C662.198 217.056 662.29 216.924 662.426 216.82C662.57 216.716 662.742 216.664 662.942 216.664H664.25C664.458 216.664 664.634 216.716 664.778 216.82C664.93 216.924 665.03 217.056 665.078 217.216L667.058 223.816C667.162 224.176 667.258 224.532 667.346 224.884C667.442 225.228 667.534 225.572 667.622 225.916C667.726 225.236 667.874 224.536 668.066 223.816L669.878 217.24C669.934 217.08 670.034 216.948 670.178 216.844C670.322 216.74 670.494 216.688 670.694 216.688H672.95ZM679.98 229V216.688H681.792C682.176 216.688 682.428 216.868 682.548 217.228L682.74 218.14C682.956 217.9 683.18 217.68 683.412 217.48C683.652 217.28 683.904 217.108 684.168 216.964C684.44 216.82 684.728 216.708 685.032 216.628C685.344 216.54 685.684 216.496 686.052 216.496C686.828 216.496 687.464 216.708 687.96 217.132C688.464 217.548 688.84 218.104 689.088 218.8C689.28 218.392 689.52 218.044 689.808 217.756C690.096 217.46 690.412 217.22 690.756 217.036C691.1 216.852 691.464 216.716 691.848 216.628C692.24 216.54 692.632 216.496 693.024 216.496C693.704 216.496 694.308 216.6 694.836 216.808C695.364 217.016 695.808 217.32 696.168 217.72C696.528 218.12 696.8 218.608 696.984 219.184C697.176 219.76 697.272 220.42 697.272 221.164V229H694.308V221.164C694.308 220.38 694.136 219.792 693.792 219.4C693.448 219 692.944 218.8 692.28 218.8C691.976 218.8 691.692 218.852 691.428 218.956C691.172 219.06 690.944 219.212 690.744 219.412C690.552 219.604 690.4 219.848 690.288 220.144C690.176 220.44 690.12 220.78 690.12 221.164V229H687.144V221.164C687.144 220.34 686.976 219.74 686.64 219.364C686.312 218.988 685.828 218.8 685.188 218.8C684.756 218.8 684.352 218.908 683.976 219.124C683.608 219.332 683.264 219.62 682.944 219.988V229H679.98ZM705.537 216.496C706.449 216.496 707.277 216.644 708.021 216.94C708.773 217.236 709.413 217.656 709.941 218.2C710.477 218.744 710.889 219.408 711.177 220.192C711.465 220.976 711.609 221.852 711.609 222.82C711.609 223.796 711.465 224.676 711.177 225.46C710.889 226.244 710.477 226.912 709.941 227.464C709.413 228.016 708.773 228.44 708.021 228.736C707.277 229.032 706.449 229.18 705.537 229.18C704.617 229.18 703.781 229.032 703.029 228.736C702.277 228.44 701.633 228.016 701.097 227.464C700.569 226.912 700.157 226.244 699.861 225.46C699.573 224.676 699.429 223.796 699.429 222.82C699.429 221.852 699.573 220.976 699.861 220.192C700.157 219.408 700.569 218.744 701.097 218.2C701.633 217.656 702.277 217.236 703.029 216.94C703.781 216.644 704.617 216.496 705.537 216.496ZM705.537 226.9C706.561 226.9 707.317 226.556 707.805 225.868C708.301 225.18 708.549 224.172 708.549 222.844C708.549 221.516 708.301 220.504 707.805 219.808C707.317 219.112 706.561 218.764 705.537 218.764C704.497 218.764 703.725 219.116 703.221 219.82C702.725 220.516 702.477 221.524 702.477 222.844C702.477 224.164 702.725 225.172 703.221 225.868C703.725 226.556 704.497 226.9 705.537 226.9ZM716.666 218.824C717.05 218.088 717.506 217.512 718.034 217.096C718.562 216.672 719.186 216.46 719.906 216.46C720.474 216.46 720.93 216.584 721.274 216.832L721.082 219.052C721.042 219.196 720.982 219.3 720.902 219.364C720.83 219.42 720.73 219.448 720.602 219.448C720.482 219.448 720.302 219.428 720.062 219.388C719.83 219.348 719.602 219.328 719.378 219.328C719.05 219.328 718.758 219.376 718.502 219.472C718.246 219.568 718.014 219.708 717.806 219.892C717.606 220.068 717.426 220.284 717.266 220.54C717.114 220.796 716.97 221.088 716.834 221.416V229H713.87V216.688H715.61C715.914 216.688 716.126 216.744 716.246 216.856C716.366 216.96 716.446 217.152 716.486 217.432L716.666 218.824ZM730.404 221.428C730.404 221.044 730.348 220.684 730.236 220.348C730.132 220.004 729.972 219.704 729.756 219.448C729.54 219.192 729.264 218.992 728.928 218.848C728.6 218.696 728.216 218.62 727.776 218.62C726.92 218.62 726.244 218.864 725.748 219.352C725.26 219.84 724.948 220.532 724.812 221.428H730.404ZM724.752 223.216C724.8 223.848 724.912 224.396 725.088 224.86C725.264 225.316 725.496 225.696 725.784 226C726.072 226.296 726.412 226.52 726.804 226.672C727.204 226.816 727.644 226.888 728.124 226.888C728.604 226.888 729.016 226.832 729.36 226.72C729.712 226.608 730.016 226.484 730.272 226.348C730.536 226.212 730.764 226.088 730.956 225.976C731.156 225.864 731.348 225.808 731.532 225.808C731.78 225.808 731.964 225.9 732.084 226.084L732.936 227.164C732.608 227.548 732.24 227.872 731.832 228.136C731.424 228.392 730.996 228.6 730.548 228.76C730.108 228.912 729.656 229.02 729.192 229.084C728.736 229.148 728.292 229.18 727.86 229.18C727.004 229.18 726.208 229.04 725.472 228.76C724.736 228.472 724.096 228.052 723.552 227.5C723.008 226.94 722.58 226.252 722.268 225.436C721.956 224.612 721.8 223.66 721.8 222.58C721.8 221.74 721.936 220.952 722.208 220.216C722.48 219.472 722.868 218.828 723.372 218.284C723.884 217.732 724.504 217.296 725.232 216.976C725.968 216.656 726.796 216.496 727.716 216.496C728.492 216.496 729.208 216.62 729.864 216.868C730.52 217.116 731.084 217.48 731.556 217.96C732.028 218.432 732.396 219.016 732.66 219.712C732.932 220.4 733.068 221.188 733.068 222.076C733.068 222.524 733.02 222.828 732.924 222.988C732.828 223.14 732.644 223.216 732.372 223.216H724.752ZM747.632 223.744C746.776 223.784 746.056 223.86 745.472 223.972C744.888 224.076 744.42 224.212 744.068 224.38C743.716 224.548 743.464 224.744 743.312 224.968C743.16 225.192 743.084 225.436 743.084 225.7C743.084 226.22 743.236 226.592 743.54 226.816C743.852 227.04 744.256 227.152 744.752 227.152C745.36 227.152 745.884 227.044 746.324 226.828C746.772 226.604 747.208 226.268 747.632 225.82V223.744ZM740.84 218.404C742.256 217.108 743.96 216.46 745.952 216.46C746.672 216.46 747.316 216.58 747.884 216.82C748.452 217.052 748.932 217.38 749.324 217.804C749.716 218.22 750.012 218.72 750.212 219.304C750.42 219.888 750.524 220.528 750.524 221.224V229H749.18C748.9 229 748.684 228.96 748.532 228.88C748.38 228.792 748.26 228.62 748.172 228.364L747.908 227.476C747.596 227.756 747.292 228.004 746.996 228.22C746.7 228.428 746.392 228.604 746.072 228.748C745.752 228.892 745.408 229 745.04 229.072C744.68 229.152 744.28 229.192 743.84 229.192C743.32 229.192 742.84 229.124 742.4 228.988C741.96 228.844 741.58 228.632 741.26 228.352C740.94 228.072 740.692 227.724 740.516 227.308C740.34 226.892 740.252 226.408 740.252 225.856C740.252 225.544 740.304 225.236 740.408 224.932C740.512 224.62 740.68 224.324 740.912 224.044C741.152 223.764 741.46 223.5 741.836 223.252C742.212 223.004 742.672 222.788 743.216 222.604C743.768 222.42 744.408 222.272 745.136 222.16C745.864 222.04 746.696 221.968 747.632 221.944V221.224C747.632 220.4 747.456 219.792 747.104 219.4C746.752 219 746.244 218.8 745.58 218.8C745.1 218.8 744.7 218.856 744.38 218.968C744.068 219.08 743.792 219.208 743.552 219.352C743.312 219.488 743.092 219.612 742.892 219.724C742.7 219.836 742.484 219.892 742.244 219.892C742.036 219.892 741.86 219.84 741.716 219.736C741.572 219.624 741.456 219.496 741.368 219.352L740.84 218.404ZM756.28 225.808C756.616 226.216 756.98 226.504 757.372 226.672C757.772 226.84 758.192 226.924 758.632 226.924C759.088 226.924 759.496 226.844 759.856 226.684C760.224 226.516 760.536 226.26 760.792 225.916C761.048 225.564 761.244 225.12 761.38 224.584C761.516 224.04 761.584 223.392 761.584 222.64C761.584 221.288 761.36 220.312 760.912 219.712C760.464 219.104 759.82 218.8 758.98 218.8C758.412 218.8 757.916 218.932 757.492 219.196C757.068 219.452 756.664 219.816 756.28 220.288V225.808ZM756.28 218.2C756.776 217.68 757.324 217.268 757.924 216.964C758.532 216.652 759.224 216.496 760 216.496C760.712 216.496 761.352 216.636 761.92 216.916C762.496 217.196 762.984 217.6 763.384 218.128C763.792 218.648 764.104 219.28 764.32 220.024C764.536 220.768 764.644 221.604 764.644 222.532C764.644 223.532 764.52 224.44 764.272 225.256C764.024 226.072 763.668 226.772 763.204 227.356C762.748 227.932 762.196 228.38 761.548 228.7C760.9 229.02 760.18 229.18 759.388 229.18C759.004 229.18 758.656 229.14 758.344 229.06C758.032 228.988 757.744 228.884 757.48 228.748C757.216 228.612 756.972 228.448 756.748 228.256C756.532 228.056 756.324 227.836 756.124 227.596L755.992 228.424C755.944 228.632 755.86 228.78 755.74 228.868C755.628 228.956 755.472 229 755.272 229H753.316V211.168H756.28V218.2ZM772.381 216.496C773.293 216.496 774.121 216.644 774.865 216.94C775.617 217.236 776.257 217.656 776.785 218.2C777.321 218.744 777.733 219.408 778.021 220.192C778.309 220.976 778.453 221.852 778.453 222.82C778.453 223.796 778.309 224.676 778.021 225.46C777.733 226.244 777.321 226.912 776.785 227.464C776.257 228.016 775.617 228.44 774.865 228.736C774.121 229.032 773.293 229.18 772.381 229.18C771.461 229.18 770.625 229.032 769.873 228.736C769.121 228.44 768.477 228.016 767.941 227.464C767.413 226.912 767.001 226.244 766.705 225.46C766.417 224.676 766.273 223.796 766.273 222.82C766.273 221.852 766.417 220.976 766.705 220.192C767.001 219.408 767.413 218.744 767.941 218.2C768.477 217.656 769.121 217.236 769.873 216.94C770.625 216.644 771.461 216.496 772.381 216.496ZM772.381 226.9C773.405 226.9 774.161 226.556 774.649 225.868C775.145 225.18 775.393 224.172 775.393 222.844C775.393 221.516 775.145 220.504 774.649 219.808C774.161 219.112 773.405 218.764 772.381 218.764C771.341 218.764 770.569 219.116 770.065 219.82C769.569 220.516 769.321 221.524 769.321 222.844C769.321 224.164 769.569 225.172 770.065 225.868C770.569 226.556 771.341 226.9 772.381 226.9ZM791.322 216.688V229H789.51C789.118 229 788.87 228.82 788.766 228.46L788.562 227.476C788.058 227.988 787.502 228.404 786.894 228.724C786.286 229.036 785.57 229.192 784.746 229.192C784.074 229.192 783.478 229.08 782.958 228.856C782.446 228.624 782.014 228.3 781.662 227.884C781.31 227.468 781.042 226.976 780.858 226.408C780.682 225.832 780.594 225.2 780.594 224.512V216.688H783.558V224.512C783.558 225.264 783.73 225.848 784.074 226.264C784.426 226.672 784.95 226.876 785.646 226.876C786.158 226.876 786.638 226.764 787.086 226.54C787.534 226.308 787.958 225.992 788.358 225.592V216.688H791.322ZM798.365 229.192C797.293 229.192 796.469 228.892 795.893 228.292C795.325 227.684 795.041 226.848 795.041 225.784V218.908H793.781C793.621 218.908 793.485 218.856 793.373 218.752C793.261 218.648 793.205 218.492 793.205 218.284V217.108L795.185 216.784L795.809 213.424C795.849 213.264 795.925 213.14 796.037 213.052C796.149 212.964 796.293 212.92 796.469 212.92H798.005V216.796H801.293V218.908H798.005V225.58C798.005 225.964 798.097 226.264 798.281 226.48C798.473 226.696 798.733 226.804 799.061 226.804C799.245 226.804 799.397 226.784 799.517 226.744C799.645 226.696 799.753 226.648 799.841 226.6C799.937 226.552 800.021 226.508 800.093 226.468C800.165 226.42 800.237 226.396 800.309 226.396C800.397 226.396 800.469 226.42 800.525 226.468C800.581 226.508 800.641 226.572 800.705 226.66L801.593 228.1C801.161 228.46 800.665 228.732 800.105 228.916C799.545 229.1 798.965 229.192 798.365 229.192ZM806.503 211.648V218.512C806.503 219.24 806.467 219.956 806.395 220.66C806.323 221.356 806.231 222.096 806.119 222.88H804.103C803.991 222.096 803.899 221.356 803.827 220.66C803.755 219.956 803.719 219.24 803.719 218.512V211.648H806.503ZM803.251 227.368C803.251 227.12 803.295 226.884 803.383 226.66C803.479 226.436 803.607 226.244 803.767 226.084C803.935 225.924 804.131 225.796 804.355 225.7C804.579 225.604 804.819 225.556 805.075 225.556C805.323 225.556 805.559 225.604 805.783 225.7C806.007 225.796 806.199 225.924 806.359 226.084C806.527 226.244 806.659 226.436 806.755 226.66C806.851 226.884 806.899 227.12 806.899 227.368C806.899 227.624 806.851 227.864 806.755 228.088C806.659 228.304 806.527 228.492 806.359 228.652C806.199 228.812 806.007 228.936 805.783 229.024C805.559 229.12 805.323 229.168 805.075 229.168C804.819 229.168 804.579 229.12 804.355 229.024C804.131 228.936 803.935 228.812 803.767 228.652C803.607 228.492 803.479 228.304 803.383 228.088C803.295 227.864 803.251 227.624 803.251 227.368Z" fill="#231F20"/>
<path d="M482.648 73.4739C470.885 71.8314 470.427 61.8523 470.427 61.8523C470.427 61.8523 473.963 52.5054 485.647 54.6098C497.339 56.7197 512.827 68.6261 512.827 68.6261C512.827 68.6261 494.405 75.1108 482.641 73.4683L482.648 73.4739Z" fill="#81C341"/>
<path d="M470.528 61.7172L505.023 67.1992" stroke="black" stroke-opacity="0.3"/>
<path d="M470.528 61.7172L505.023 67.1992" stroke="black" stroke-opacity="0.3"/>
<path d="M472.092 62.0004L482.457 58.2432" stroke="black" stroke-opacity="0.3"/>
<path d="M482.452 63.5688L488.767 68.7536" stroke="black" stroke-opacity="0.3"/>
<path d="M490.757 64.9217L498.566 62.7959" stroke="black" stroke-opacity="0.3"/>
<path d="M499.061 66.2732L502.184 68.6172" stroke="black" stroke-opacity="0.3"/>
<g style="mix-blend-mode:multiply">
<path d="M482.648 73.4739C470.885 71.8314 470.427 61.8523 470.427 61.8523C470.427 61.8523 473.963 52.5054 485.647 54.6098C497.339 56.7197 512.827 68.6261 512.827 68.6261C512.827 68.6261 494.405 75.1108 482.641 73.4683L482.648 73.4739Z" fill="#81C341" fill-opacity="0.25"/>
</g>
<path d="M314.789 50.9879C322.686 53.0431 332.616 56.0888 340.11 59.4669C361.557 69.124 379.86 70.8422 395.922 72.2157C412.769 73.6589 432.079 75.3053 456.027 69.9832C476.232 65.4852 503.962 55.0815 519.289 47.4608C523.077 45.5729 540.526 37.821 557 36.4997C558.925 36.3502 579.16 39.1623 592.34 51.9997L600 51.9997C591.131 49.5237 584.28 34.1619 561.186 30.2172C561.186 30.2172 556.5 29.4997 551.848 30.2989C524.777 31.3763 489.089 48.0388 461.049 54.9642C427.413 63.28 398.481 59.1364 384.721 57.1733C357.091 53.2228 344.886 42.4038 329.244 40.0526C308.052 36.867 303.507 36.1049 267.228 51.0346L314.789 50.9879Z" fill="#5F9340"/>
<path d="M314.789 50.9879C322.686 53.0431 332.616 56.0888 340.11 59.4669C361.557 69.124 379.86 70.8422 395.922 72.2157C412.769 73.6589 432.079 75.3053 456.027 69.9832C476.232 65.4852 503.962 55.0815 519.289 47.4608C523.077 45.5729 540.526 37.821 557 36.4997C558.925 36.3502 579.16 39.1623 592.34 51.9997L600 51.9997C591.131 49.5237 584.28 34.1619 561.186 30.2172C561.186 30.2172 556.5 29.4997 551.848 30.2989C524.777 31.3763 489.089 48.0388 461.049 54.9642C427.413 63.28 398.481 59.1364 384.721 57.1733C357.091 53.2228 344.886 42.4038 329.244 40.0526C308.052 36.867 303.507 36.1049 267.228 51.0346L314.789 50.9879Z" fill="url(#paint1_linear_6171_11736)" fill-opacity="0.25"/>
<rect opacity="0.15" x="365" y="79" width="42" height="88" fill="#DFC52F"/>
<rect opacity="0.15" x="665" y="79" width="42" height="88" fill="#DFC52F"/>
<line x1="666.219" y1="58.5505" x2="705.219" y2="77.5505" stroke="#132D1F"/>
<line x1="665.785" y1="77.5484" x2="705.785" y2="58.5484" stroke="#132D1F"/>
</g>
<defs>
<filter id="filter0_d_6171_11736" x="0" y="-5" width="969" height="585.11" filterUnits="userSpaceOnUse" color-interpolation-filters="sRGB">
<feFlood flood-opacity="0" result="BackgroundImageFix"/>
<feColorMatrix in="SourceAlpha" type="matrix" values="0 0 0 0 0 0 0 0 0 0 0 0 0 0 0 0 0 0 127 0" result="hardAlpha"/>
<feOffset dx="-22" dy="47"/>
<feGaussianBlur stdDeviation="37.5"/>
<feComposite in2="hardAlpha" operator="out"/>
<feColorMatrix type="matrix" values="0 0 0 0 0 0 0 0 0 0 0 0 0 0 0 0 0 0 0.25 0"/>
<feBlend mode="normal" in2="BackgroundImageFix" result="effect1_dropShadow_6171_11736"/>
<feBlend mode="normal" in="SourceGraphic" in2="effect1_dropShadow_6171_11736" result="shape"/>
</filter>
<linearGradient id="paint0_linear_6171_11736" x1="268" y1="298" x2="-45.8236" y2="504.886" gradientUnits="userSpaceOnUse">
<stop stop-color="#817116"/>
<stop offset="1" stop-color="#1B1805"/>
</linearGradient>
<linearGradient id="paint1_linear_6171_11736" x1="446.332" y1="-38.8359" x2="562.785" y2="55.8542" gradientUnits="userSpaceOnUse">
<stop stop-color="#DBFF00"/>
<stop offset="1" stop-color="#DBFF00" stop-opacity="0.25"/>
</linearGradient>
</defs>
</svg>
