<?xml version="1.0" standalone="no"?>
<!DOCTYPE svg PUBLIC "-//W3C//DTD SVG 1.1//EN" "http://www.w3.org/Graphics/SVG/1.1/DTD/svg11.dtd">
<svg xmlns="http://www.w3.org/2000/svg" xmlns:xlink="http://www.w3.org/1999/xlink" version="1.1" id="Layer_1" x="0px" y="0px" viewBox="0 0 288.25 90.58" style="enable-background:new 0 0 288.25 90.58;" xml:space="preserve" width="288.25" height="90.58000183105469">
<style type="text/css">
	.st0{fill:#E92E3A;}
</style>
<g>
	<g>
		<path class="st0" d="M212.59,55.15c0.19-0.13,0.36-0.28,0.51-0.44c0.15-0.16,0.26-0.34,0.33-0.53c0.07-0.19,0.05-0.42-0.04-0.69    c-0.04-0.06-0.04-0.1-0.01-0.11c0.03-0.01,0.05-0.05,0.04-0.11c-0.04-0.06-0.06-0.13-0.07-0.22c-0.01-0.09-0.03-0.16-0.07-0.22    c-0.11-0.15-0.24-0.3-0.37-0.47s-0.27-0.32-0.42-0.47c-0.04-0.06-0.08-0.1-0.11-0.11c-0.03-0.01-0.09-0.05-0.16-0.11    c-0.21-0.15-0.44-0.28-0.69-0.4c-0.25-0.12-0.44-0.28-0.6-0.49c-0.19-0.27-0.42-0.49-0.67-0.69c-0.25-0.19-0.56-0.32-0.94-0.38    c-0.1,0-0.19-0.03-0.26-0.09c-0.54-0.44-1.08-0.49-1.62-0.13c-0.38,0.24-0.71,0.5-0.98,0.8c-0.15,0.17-0.27,0.35-0.39,0.52    c-1.37,1.12-2.69,2.24-3.94,3.49c-1.31,1.32-2.81,2.46-3.92,3.92c-0.02,0.02-0.06,0.01-0.08,0.03c-0.21,0.23-0.38,0.48-0.54,0.73    c-0.37,0.41-0.74,0.83-1.1,1.25c-0.45,0.52-0.88,1.03-1.3,1.53c-0.09,0.12-0.16,0.26-0.21,0.42c-0.05,0.16-0.11,0.31-0.18,0.44    c-0.07,0.13-0.17,0.25-0.29,0.35c-0.12,0.1-0.32,0.16-0.58,0.16c0.04,0.41-0.09,0.71-0.37,0.89c-0.29,0.18-0.54,0.38-0.75,0.62    c-0.27,0.29-0.53,0.6-0.77,0.91c-0.24,0.31-0.42,0.67-0.55,1.08c-0.14,0.33-0.35,0.64-0.65,0.93c-0.29,0.29-0.59,0.59-0.9,0.89    c-0.53,0.47-0.96,0.99-1.29,1.55c-0.33,0.56-0.61,1.17-0.81,1.82c0.01,0.06-0.03,0.1-0.11,0.13c-0.08,0.03-0.15,0.07-0.21,0.13    c-0.34,0.35-0.66,0.72-0.96,1.08c-0.3,0.37-0.59,0.75-0.85,1.13c-0.15,0.18-0.28,0.36-0.38,0.55c-0.1,0.19-0.21,0.38-0.33,0.55    l0-0.04c0.05-0.15,0.07-0.3,0.06-0.46c-0.01-0.16,0-0.32,0.06-0.47c0.02-0.15,0.05-0.28,0.09-0.4c0.04-0.12,0.07-0.25,0.09-0.4    c0.04-0.29,0.07-0.58,0.1-0.86c0.02-0.28,0.06-0.57,0.1-0.86c0.02-0.18,0.04-0.35,0.08-0.53c0.03-0.18,0.08-0.35,0.13-0.53    c0.13-0.03,0.27-0.22,0.4-0.58c0.14-0.35,0.26-0.74,0.37-1.15c0.11-0.41,0.21-0.8,0.27-1.17c0.07-0.37,0.08-0.58,0.04-0.64    c0.17-0.33,0.32-0.61,0.45-0.84c0.13-0.24,0.27-0.47,0.41-0.71l-0.16-0.04c-0.07,0.03-0.2,0.1-0.4,0.22    c-0.04-0.03-0.06-0.06-0.08-0.09c-0.02-0.03-0.05-0.06-0.08-0.09c0.06-0.06,0.11-0.12,0.16-0.2c0.04-0.07,0.1-0.11,0.17-0.11    c0.24,0.03,0.39-0.01,0.45-0.11c0.06-0.1,0.12-0.21,0.17-0.33c0.06-0.15,0.12-0.27,0.2-0.38c0.08-0.1,0.12-0.23,0.15-0.38    c0.02-0.15,0.01-0.29-0.02-0.44c-0.03-0.15-0.05-0.29-0.07-0.44c0-0.03,0-0.04,0.02-0.04c0.02,0,0.02-0.01,0.02-0.04    c0.07,0,0.14-0.01,0.22-0.02c0.08-0.01,0.16-0.02,0.22-0.02c-0.3-0.32-0.38-0.55-0.26-0.69c0.12-0.13,0.33-0.27,0.61-0.42    c-0.01-0.12-0.06-0.27-0.14-0.44c0.03,0,0.07,0.01,0.1,0.02c0.03,0.02,0.07,0.02,0.1,0.02c0.06-0.09,0.13-0.17,0.2-0.24    c0.08-0.07,0.14-0.15,0.2-0.24c0.06-0.06,0.09-0.13,0.08-0.22c-0.01-0.09,0-0.16,0.03-0.22c0.25-0.5,0.5-0.99,0.75-1.46    c0.24-0.47,0.52-0.94,0.85-1.42c0.24-0.35,0.42-0.74,0.55-1.15c0.13-0.41,0.42-0.74,0.86-0.97c0.06-0.06,0.17-0.14,0.33-0.24    c0.16-0.1,0.14-0.27-0.05-0.51c-0.03,0-0.03-0.03,0.02-0.09c0.04-0.06,0.08-0.1,0.11-0.13c0.17-0.29,0.38-0.58,0.63-0.84    c0.24-0.27,0.38-0.56,0.42-0.89c0.09-0.09,0.12-0.13,0.09-0.13c0.26-0.09,0.42-0.24,0.49-0.44c0.07-0.21,0.14-0.41,0.22-0.62    c0.14-0.27,0.39-0.53,0.73-0.8c0.56-0.44,0.87-0.96,0.91-1.55c-0.01-0.06,0.01-0.1,0.04-0.13c0.03-0.03,0.06-0.07,0.09-0.13    c0.09-0.12,0.19-0.23,0.3-0.33c0.11-0.1,0.19-0.21,0.25-0.33c0.09-0.15,0.14-0.29,0.16-0.44s0.15-0.25,0.37-0.31    c0.06-0.03,0.11-0.1,0.13-0.2c0.02-0.1,0.07-0.18,0.13-0.24c0.18-0.18,0.34-0.29,0.47-0.35c0.03-0.06,0.08-0.08,0.14-0.07    c0.07,0.02,0.12-0.01,0.14-0.07c0.18-0.24,0.36-0.47,0.54-0.71c0.18-0.24,0.36-0.47,0.54-0.71c0.33-0.41,0.64-0.83,0.94-1.24    c0.3-0.41,0.59-0.83,0.89-1.24c0.12-0.18,0.21-0.36,0.28-0.55c0.07-0.19,0.14-0.39,0.22-0.6c0.03-0.06,0.07-0.12,0.11-0.18    c0.04-0.06,0.1-0.12,0.16-0.18c0.06-0.06,0.14-0.12,0.24-0.18c0.09-0.06,0.17-0.12,0.23-0.18c0.2-0.41,0.21-0.8,0.04-1.17    c-0.17-0.37-0.33-0.73-0.5-1.09c-0.17-0.38-4.75-2.21-4.9-1.98c-0.27,0.49-0.56,0.99-0.87,1.48c-0.31,0.49-0.63,0.99-0.97,1.48    c-0.58,0.93-1.17,1.86-1.75,2.78c-0.58,0.93-1.17,1.86-1.75,2.78c-0.56,0.84-1.11,1.69-1.67,2.54c-0.56,0.86-1.09,1.7-1.62,2.55    c-0.58,0.93-1.15,1.87-1.7,2.83c-0.14,0.25-0.28,0.48-0.43,0.73c-0.62,0.99-1.22,2.02-1.79,3.08c-0.1,0.18-0.21,0.35-0.3,0.53    c-0.27,0.51-0.53,1.03-0.76,1.55c-0.18,0.35-0.34,0.71-0.49,1.09c0,0.01-0.01,0.02-0.01,0.03c-0.8,1.8-1.46,3.64-1.93,5.5    c-0.05,0.21-0.13,0.42-0.18,0.63c-0.04,0.15-0.05,0.3-0.09,0.45c-0.09,0.41-0.17,0.82-0.24,1.23c-0.04,0.23-0.1,0.45-0.13,0.69    c-0.11,0.81-0.21,1.6-0.31,2.37c-0.27,1.51-0.16,2.98,0.3,4.43c0.18,0.5,0.39,0.98,0.63,1.44c0.24,0.46,0.63,0.85,1.16,1.17    c0.31,0.15,0.55,0.35,0.71,0.62c0.24,0.44,0.6,0.69,1.07,0.75l0.01,0.13c0.07,0,0.11-0.01,0.12-0.02    c0.02-0.02,0.06-0.02,0.12-0.02c0.06-0.03,0.14-0.06,0.22-0.09c0.08-0.03,0.15-0.06,0.22-0.09h0.05c0.25-0.15,0.49-0.31,0.71-0.49    c0.22-0.18,0.45-0.34,0.71-0.49l-0.02-0.18c-0.13-0.68-0.05-1.28,0.25-1.79c0.29-0.52,0.62-1.03,0.98-1.53    c0.27-0.35,0.57-0.69,0.9-1.02c0.33-0.32,0.56-0.68,0.69-1.06c0.1-0.32,0.21-0.63,0.31-0.93c0.11-0.29,0.26-0.58,0.47-0.84    c0.33-0.38,0.63-0.77,0.89-1.15c0.26-0.38,0.54-0.78,0.84-1.19c0.33-0.41,0.65-0.83,0.98-1.26c0.33-0.43,0.65-0.85,0.98-1.26    c0.42-0.47,0.84-0.97,1.26-1.51c0.05-0.07,0.09-0.14,0.14-0.21c0.36-0.4,0.69-0.81,0.93-1.31c0.38-0.78,0.92-1.39,1.44-2.09    c0.53-0.71,0.87-1.58,1.48-2.24c0.05-0.03,0.1-0.07,0.14-0.12c1.17-1.59,2.86-2.81,4.26-4.23c0.39-0.4,0.81-0.75,1.22-1.12    c-0.28,0.53-0.55,1.06-0.81,1.58c-0.33,0.65-0.66,1.3-1,1.95c-0.31,0.68-0.63,1.34-0.97,1.99c-0.34,0.65-0.66,1.31-0.96,1.99    c-0.4,1.03-0.8,2.05-1.19,3.06c-0.39,1-0.77,2.02-1.14,3.06c-0.32,0.86-0.62,1.72-0.91,2.59c-0.28,0.87-0.57,1.73-0.86,2.59    c-0.12,0.47-0.26,0.95-0.42,1.42c-0.16,0.47-0.29,0.96-0.41,1.46c-0.12,0.5-0.22,1-0.31,1.51c-0.09,0.5-0.17,1-0.26,1.51    c-0.04,0.33-0.08,0.63-0.14,0.91c-0.06,0.28-0.09,0.58-0.09,0.91c-0.02,0.53-0.02,1.07,0,1.62c0.02,0.55,0.06,1.09,0.15,1.62    c0.09,0.94,0.31,1.83,0.67,2.66c0.36,0.83,1.02,1.53,1.98,2.13c0.11,0.06,0.2,0.14,0.27,0.24c0.08,0.1,0.17,0.17,0.27,0.2    c0.28,0.09,0.55,0.15,0.82,0.18c0.27,0.03,0.52,0.15,0.74,0.35c0.04,0.06,0.14,0.09,0.31,0.09c0.82-0.18,1.19-0.71,1.11-1.59    c-0.17,0.03-0.34,0.05-0.5,0.07c-0.01,0-0.01,0-0.02,0c-0.42-0.41-0.81-1.04-1.07-1.67c0-0.06,0.02-0.11,0.02-0.18    c-0.02-0.27-0.05-0.54-0.07-0.82c-0.03-0.28-0.03-0.57-0.03-0.86c0.01-0.15,0.01-0.3,0.02-0.44c0.01-0.15,0.02-0.3,0.05-0.44    c0.04-0.33,0.08-0.66,0.13-1.02c0.05-0.35,0.09-0.69,0.13-1.02h-0.06c0.07-0.3,0.16-0.59,0.24-0.89c0.05-0.09,0.12-0.16,0.16-0.26    c0.14-0.33,0.25-0.66,0.33-1.02c0.07-0.29,0.15-0.59,0.23-0.88c0.28-0.8,0.51-1.63,0.56-2.45c0.15-0.43,0.32-0.85,0.49-1.28    c0.02-0.02,0.06-0.02,0.08-0.04c0.06-0.07,0.07-0.21,0.07-0.38c0.06-0.17,0.13-0.33,0.17-0.5c0.01-0.02-0.02-0.04-0.01-0.06    c0.05-0.12,0.1-0.24,0.15-0.37c0.01-0.02,0.01-0.04,0.02-0.06c0.13-0.42,0.25-0.85,0.4-1.24c0.19-0.48,0.37-0.96,0.52-1.43    c0.06-0.01,0.12-0.02,0.11-0.07c0.06-0.09,0.05-0.16-0.02-0.22c0.09-0.3,0.17-0.6,0.24-0.9c0,0,0,0,0,0    c0.2-0.22,0.4-0.45,0.62-0.69c-0.01-0.12-0.01-0.24-0.01-0.35c0.01-0.12,0.02-0.25,0.04-0.4c-0.01-0.06,0.01-0.12,0.06-0.18    c0.04-0.06,0.06-0.12,0.06-0.18c-0.04-0.38,0.05-0.69,0.27-0.93c0.21-0.24,0.44-0.47,0.69-0.71c0.55-0.53,0.92-1.09,1.1-1.68    c0.02-0.12,0.07-0.22,0.15-0.31c0.07-0.09,0.14-0.19,0.2-0.31s0.09-0.24,0.09-0.38c0.01-0.13,0.06-0.23,0.15-0.29    c0.25-0.15,0.4-0.32,0.43-0.53c0.03-0.21,0.12-0.4,0.27-0.58c0.12-0.15,0.23-0.28,0.31-0.4c0.09-0.12,0.18-0.25,0.27-0.4    c0.06-0.06,0.09-0.1,0.09-0.13c-0.09-0.24-0.05-0.43,0.12-0.6c0.17-0.16,0.3-0.33,0.38-0.51c0.59-0.89,1.24-1.8,1.96-2.75    c0.15-0.24,0.31-0.45,0.49-0.64c0.18-0.19,0.37-0.39,0.55-0.6C212.25,55.42,212.4,55.28,212.59,55.15z"/>
		<path class="st0" d="M286.55,59.82c-0.03-0.35-0.04-0.71-0.02-1.06c0.02-0.35-0.02-0.71-0.12-1.06c-0.1-0.35-0.24-0.7-0.42-1.04    c-0.18-0.34-0.34-0.69-0.47-1.04c-0.05-0.18-0.1-0.33-0.14-0.44c-0.05-0.12-0.15-0.15-0.31-0.09c-0.04-0.12-0.07-0.22-0.08-0.31    c-0.01-0.09-0.05-0.16-0.12-0.22c-0.22-0.23-0.44-0.46-0.67-0.7c-0.22-0.24-0.51-0.45-0.86-0.63c-0.49-0.24-0.96-0.49-1.4-0.75    c-0.44-0.27-0.89-0.52-1.35-0.75c-0.21-0.12-0.29-0.24-0.23-0.35c0.05-0.24,0.12-0.46,0.22-0.66c0.1-0.21,0.2-0.41,0.32-0.62    c0.05-0.18,0.09-0.34,0.11-0.49c0.02-0.15-0.11-0.29-0.39-0.44c-0.07-0.06-0.11-0.12-0.12-0.18c-0.09-0.29-0.26-0.5-0.48-0.62    c-0.23-0.12-0.45-0.25-0.66-0.4c-0.22-0.18-0.4-0.31-0.54-0.4c0.06-0.06,0.09-0.1,0.09-0.13c-0.17-0.03-0.36-0.05-0.56-0.07    c-0.2-0.01-0.39-0.04-0.56-0.07c-0.24-0.06-0.38-0.12-0.42-0.18c-0.11-0.15-0.27-0.25-0.48-0.31c-0.21-0.06-0.39-0.03-0.54,0.09    c-0.25,0.24-0.48,0.47-0.69,0.71s-0.44,0.47-0.69,0.71c-0.34,0.33-0.64,0.69-0.9,1.11c-0.26,0.41-0.64,0.74-1.12,0.97    c0.16,0.27,0.15,0.45-0.03,0.55c-0.17,0.1-0.34,0.2-0.5,0.29c-0.36,0.12-0.7,0.22-1.03,0.31c-0.33,0.09-0.67,0.19-1.03,0.31    c-0.62,0.21-1.23,0.41-1.83,0.62c-0.6,0.21-1.22,0.43-1.87,0.66c-0.06,0.06-0.12,0.1-0.16,0.13c-0.05,0.03-0.1,0.07-0.16,0.13    c-0.15,0.24-0.31,0.41-0.48,0.53c-0.07,0.05-0.2,0.04-0.29,0.07c0.29-0.41,0.57-0.81,0.86-1.22c0.06-0.12,0.12-0.24,0.19-0.35    c0.07-0.12,0.12-0.24,0.14-0.35c0.05-0.24,0.06-0.48,0.06-0.73c-0.01-0.25,0.01-0.49,0.06-0.73c0.05-0.21,0.04-0.39-0.03-0.55    c-0.06-0.16-0.14-0.32-0.22-0.47c-0.12-0.18-0.22-0.36-0.3-0.55c-0.09-0.19-0.21-0.32-0.39-0.38c-0.49-0.24-0.75-0.49-0.77-0.75    c-0.18-0.12-0.33-0.22-0.46-0.31c-0.12-0.09-0.26-0.16-0.4-0.22c-0.25-0.12-0.47-0.23-0.68-0.33c-0.21-0.1-0.44-0.2-0.68-0.29    c-0.17-0.06-0.37-0.05-0.6,0.02c-0.23,0.07-0.42-0.02-0.58-0.29c0-0.03-0.05-0.04-0.13-0.04c-0.08,0-0.16,0.02-0.22,0.04    c-0.16,0.12-0.3,0.23-0.42,0.33c-0.12,0.1-0.25,0.23-0.37,0.38c-0.09,0.12-0.15,0.25-0.19,0.4c-0.04,0.15-0.12,0.27-0.24,0.35    c-0.44,0.38-0.88,0.75-1.33,1.09c-0.45,0.34-0.92,0.69-1.39,1.04c-0.03,0.03-0.05,0.06-0.07,0.09c-0.01,0.01-0.02,0.02-0.03,0.03    c-0.23,0.15-0.43,0.33-0.64,0.55c-0.02-0.02-0.05-0.03-0.07-0.05c-2.57,2.25-4.76,4.77-6.57,7.57c-0.25,0.12-0.42,0.28-0.51,0.52    c-0.01,0.01-0.01,0.02-0.02,0.02c-0.09,0.09-0.17,0.19-0.22,0.31c-0.18,0.24-0.35,0.49-0.51,0.75c-0.16,0.27-0.31,0.52-0.46,0.75    c-0.29,0.47-0.59,0.93-0.88,1.37c-0.29,0.44-0.57,0.89-0.83,1.33c-0.38,0.62-0.74,1.24-1.09,1.86c-0.34,0.62-0.69,1.24-1.04,1.86    l-3.08,5.85c-0.06,0.06-0.13,0.1-0.21,0.13c-0.08,0.03-0.17,0.07-0.26,0.13c0.08-0.27,0.14-0.5,0.19-0.71    c0.05-0.21,0.11-0.4,0.2-0.58c0.05-0.15,0.14-0.29,0.26-0.44c0.12-0.15,0.14-0.27,0.07-0.35c-0.2-0.35-0.22-0.69-0.07-1    c0.16-0.31,0.25-0.63,0.29-0.95c0.07-0.32,0.21-0.66,0.41-1c0.2-0.34,0.39-0.67,0.56-1c0.05-0.15,0.15-0.29,0.29-0.42    c0.14-0.13,0.19-0.26,0.14-0.38c-0.09-0.27-0.08-0.48,0.04-0.64c0.12-0.16,0.24-0.32,0.36-0.47c0.21-0.24,0.37-0.49,0.48-0.78    c0.11-0.28,0.05-0.58-0.18-0.91c0.36-0.06,0.61-0.2,0.74-0.42c0.13-0.22,0.23-0.47,0.31-0.73c0.13-0.41,0.29-0.81,0.47-1.2    c0.18-0.38,0.5-0.71,0.94-0.97c0.16-0.12,0.29-0.26,0.41-0.42s0.22-0.33,0.31-0.51c0.17-0.32,0.33-0.67,0.48-1.04    c0.15-0.37,0.31-0.72,0.48-1.04c0.05-0.15,0.15-0.27,0.29-0.35c0.14-0.09,0.22-0.21,0.24-0.35c0.13-0.41,0.32-0.78,0.58-1.09    c0.26-0.31,0.52-0.63,0.79-0.95c0.37-0.38,0.56-0.81,0.59-1.29c0.02-0.47,0.08-0.93,0.18-1.37c-0.01-0.06-0.03-0.13-0.07-0.22    c-0.04-0.09-0.08-0.16-0.12-0.22c-0.2-0.35-0.45-0.65-0.76-0.89c-0.31-0.24-0.6-0.47-0.89-0.71c-0.25-0.21-0.5-0.38-0.72-0.51    c-0.23-0.13-0.52-0.14-0.88-0.02l-0.04-0.4c-0.1-0.03-0.23-0.04-0.38-0.02c-0.15,0.02-0.28,0.03-0.4,0.04    c-0.12,0.02-0.23-0.01-0.36-0.07c-0.12-0.06-0.23-0.18-0.31-0.35c-0.79,0.18-1.29,0.59-1.49,1.24c-0.22,0.5-0.46,1-0.72,1.48    c-0.26,0.49-0.48,1-0.66,1.53c-0.19,0.5-0.44,0.98-0.75,1.44c-0.31,0.46-0.52,0.95-0.64,1.48c-0.07,0.29-0.17,0.58-0.3,0.84    c-0.13,0.27-0.26,0.55-0.4,0.84c-0.27,0.68-0.55,1.34-0.82,1.99c-0.28,0.65-0.55,1.31-0.82,1.99c-0.24,0.62-0.48,1.25-0.71,1.88    c-0.1,0.27-0.19,0.54-0.28,0.81c-0.24,0.3-0.49,0.61-0.73,0.92c-0.18,0.14-0.32,0.32-0.46,0.5c0,0-0.01,0-0.01,0    c-0.05,0.05-0.08,0.09-0.12,0.14c0,0-0.01,0-0.01-0.01c-0.09,0.12-0.18,0.24-0.27,0.35c-0.09,0.12-0.2,0.22-0.32,0.31    c-0.43,0.41-0.87,0.81-1.32,1.2c-0.45,0.38-0.91,0.77-1.38,1.15c-0.52,0.5-1.05,0.99-1.57,1.46c-0.53,0.47-1.07,0.95-1.63,1.42    c-0.65,0.53-1.31,1.06-1.96,1.59c-0.65,0.53-1.33,1.05-2.02,1.55c-0.29,0.18-0.62,0.41-1.02,0.69c-0.39,0.28-0.81,0.56-1.25,0.84    c-0.44,0.28-0.87,0.55-1.28,0.8c-0.41,0.25-0.76,0.47-1.05,0.64c-0.54,0.32-1.22,0.58-2.04,0.77c-0.82,0.19-1.57,0.24-2.24,0.16    c-0.37-0.06-0.67-0.22-0.9-0.49c-0.11-0.15-0.19-0.3-0.22-0.47c-0.03-0.16-0.07-0.32-0.12-0.47l-0.17-0.27    c-0.09-0.21-0.18-0.33-0.28-0.35c-0.21-0.15-0.26-0.32-0.15-0.53c0.12-0.18,0.12-0.34,0-0.49c-0.27-0.35-0.26-0.66,0.02-0.93    c0.06-0.03,0.12-0.1,0.18-0.22c0.02-0.15,0.04-0.29,0.06-0.44c0.02-0.15,0.06-0.29,0.11-0.44c-0.07-0.06-0.17-0.11-0.29-0.16    c-0.12-0.04-0.11-0.14,0.05-0.29c0.06-0.06,0.1-0.11,0.11-0.16c0.01-0.04,0.05-0.1,0.11-0.16c0.03-0.06,0.05-0.12,0.06-0.18    c0.01-0.06,0.05-0.1,0.11-0.13c0.35-0.18,0.48-0.41,0.39-0.71l0.29-0.13l0.05,0.04c0.44,0.09,1.03,0.12,1.76,0.09    c0.73-0.03,1.31-0.09,1.74-0.18h0.05c0.1,0,0.25-0.03,0.44-0.09c0.52-0.15,1.04-0.29,1.57-0.42c0.52-0.13,1-0.36,1.44-0.69    c0.03-0.03,0.08-0.04,0.15-0.04c0.22-0.15,0.43-0.28,0.64-0.4s0.4-0.25,0.59-0.4c0.16-0.12,0.3-0.24,0.44-0.35    c0.14-0.12,0.29-0.24,0.44-0.35c0.19-0.15,0.39-0.29,0.61-0.44c0.22-0.15,0.41-0.29,0.56-0.44c0.21-0.24,0.4-0.48,0.56-0.73    c0.16-0.25,0.4-0.45,0.72-0.6c0.1-0.03,0.17-0.12,0.23-0.27c0.08-0.24,0.18-0.43,0.3-0.58c0.15-0.24,0.3-0.44,0.47-0.62    c0.17-0.18,0.32-0.38,0.47-0.62c0.18-0.24,0.36-0.49,0.53-0.75c0.18-0.27,0.35-0.53,0.53-0.8c0.3-0.35,0.58-0.77,0.84-1.24    c0.18-0.27,0.33-0.55,0.47-0.84c0.03-0.06,0.04-0.12,0.03-0.2c-0.01-0.07,0.02-0.14,0.08-0.2c0.16-0.12,0.24-0.24,0.24-0.38    c0-0.13,0.03-0.27,0.09-0.42c0.05-0.18,0.09-0.35,0.1-0.51c0.02-0.16,0.04-0.33,0.05-0.51c0.05-0.18,0.14-0.35,0.26-0.51    c0.12-0.16,0.02-0.33-0.3-0.51c0.03-0.06,0.06-0.11,0.09-0.16c0.03-0.04,0.04-0.08,0.04-0.11c-0.16-0.32-0.19-0.65-0.09-0.97    c0.1-0.32,0.06-0.65-0.14-0.97c-0.19-0.29-0.35-0.59-0.46-0.89c-0.11-0.29-0.26-0.61-0.46-0.93c-0.12-0.21-0.2-0.41-0.23-0.62    c-0.04-0.21-0.09-0.4-0.18-0.58c-0.04-0.03-0.06-0.06-0.06-0.09c-0.2-0.32-0.39-0.62-0.58-0.89c-0.19-0.27-0.48-0.5-0.87-0.71    c-0.14-0.06-0.28-0.13-0.42-0.22c-0.14-0.09-0.27-0.19-0.38-0.31c-0.11-0.15-0.24-0.25-0.38-0.31c-0.14-0.06-0.3-0.12-0.47-0.18    c-0.03,0-0.07-0.01-0.1-0.02c-0.03-0.01-0.07-0.02-0.1-0.02l-1.4-0.53c-0.07-0.03-0.17-0.02-0.3,0.04    c-0.1,0.06-0.19,0.11-0.29,0.15c-0.1,0.04-0.18,0.1-0.24,0.16c-0.44,0.33-0.84,0.66-1.21,1c-0.37,0.34-0.7,0.73-1,1.17    c-0.23,0.38-0.53,0.73-0.89,1.04c-0.36,0.31-0.69,0.64-0.99,1c-0.3,0.32-0.61,0.63-0.92,0.93c-0.31,0.3-0.58,0.62-0.81,0.97    c-0.09,0.15-0.22,0.28-0.39,0.4c-0.12,0.08-0.14,0.21-0.12,0.36c-0.03,0.04-0.09,0.06-0.11,0.12c-0.01,0.04-0.03,0.07-0.04,0.1    c-0.26,0.06-0.52,0.21-0.76,0.44c-0.25,0.24-0.34,0.44-0.29,0.62c0.01,0.04,0,0.06,0,0.1c-0.08,0.16-0.18,0.29-0.27,0.44    c-0.16,0.1-0.32,0.2-0.51,0.3c-0.18,0.09-0.24,0.23-0.23,0.38c-0.26,0.33-0.51,0.64-0.75,0.94c-0.06,0.04-0.13,0.05-0.17,0.12    c-0.05,0.08-0.07,0.16-0.11,0.23c-0.04,0.05-0.09,0.11-0.12,0.15c0.01,0.01,0.02,0.02,0.03,0.04c-0.07,0.19-0.13,0.38-0.19,0.6    c-0.07,0.28-0.17,0.51-0.3,0.72c-0.04,0.02-0.07,0.03-0.12,0.06c-0.03,0-0.06,0.01-0.07,0.02c-0.02,0.02-0.04,0.02-0.07,0.02    c-0.05,0.15-0.12,0.28-0.19,0.4c-0.07,0.12-0.14,0.24-0.19,0.35c-0.12,0.15-0.23,0.29-0.34,0.42c-0.11,0.13-0.23,0.27-0.39,0.42    c0.03,0.04,0,0.06,0.01,0.09c-0.1,0-0.2,0.02-0.3,0.08c-0.44,0.29-0.52,0.72-0.49,1.18c-0.01,0.01-0.01,0.03-0.02,0.04    c-0.05,0.04-0.09,0.07-0.14,0.13c-0.1,0.13-0.14,0.21-0.1,0.24c0.02,0.02,0.02,0.03,0.03,0.06c-0.07,0.15-0.15,0.3-0.24,0.44    c-0.15,0.22-0.25,0.43-0.34,0.64c-0.02,0.04-0.04,0.08-0.04,0.12c-0.06,0.17-0.08,0.35-0.07,0.54c-0.02,0.02-0.01,0.04-0.03,0.06    c-0.49,0.15-0.57,0.4-0.23,0.75c-0.16,0.06-0.26,0.13-0.28,0.22c-0.13,0.41-0.28,0.83-0.44,1.26c-0.16,0.43-0.2,0.89-0.12,1.4    c0.01,0.06-0.01,0.1-0.04,0.13c-0.01,0.29-0.02,0.58-0.05,0.84c-0.03,0.27-0.04,0.55-0.05,0.84c-0.03,0.41,0.02,0.82,0.14,1.22    c0.12,0.4,0.27,0.8,0.44,1.22c0.08,0.18,0.16,0.34,0.22,0.49c0.06,0.15,0.15,0.3,0.27,0.44c0.11,0.15,0.23,0.3,0.37,0.44    c0.13,0.15,0.25,0.3,0.37,0.44c0.08,0.15,0.15,0.29,0.21,0.42c0.06,0.13,0.16,0.24,0.31,0.33c0.36,0.3,0.65,0.71,0.87,1.24    l0.18,0.27l0,0.04c0.04,0.03,0.05,0.06,0.06,0.09c0.04,0.03,0.06,0.06,0.06,0.09c0.15,0.15,0.28,0.29,0.39,0.42    c0.11,0.13,0.26,0.27,0.44,0.42c-0.01-0.12-0.01-0.21,0-0.29c0.01-0.07,0.01-0.14,0.01-0.2c0.03,0,0.06-0.01,0.07-0.02    c0.02-0.01,0.04-0.02,0.07-0.02c0.05,0.24,0.16,0.39,0.32,0.47c0.16,0.07,0.34,0.11,0.54,0.11c0.2,0.03,0.4,0.04,0.58,0.04    c0.18,0,0.32-0.1,0.4-0.31c0.15-0.24,0.36-0.27,0.64-0.09c0.39,0.27,0.81,0.4,1.24,0.4c0.43,0,0.87-0.03,1.3-0.09    c0.43-0.06,0.84-0.15,1.23-0.27c0.39-0.12,0.76-0.29,1.1-0.53c0.16-0.09,0.4-0.23,0.72-0.42c0.32-0.19,0.64-0.39,0.98-0.6    c0.33-0.21,0.66-0.4,0.98-0.58c0.32-0.18,0.57-0.31,0.77-0.4c0.06-0.03,0.12-0.06,0.17-0.09c0.05-0.03,0.1-0.06,0.17-0.09    c0.41-0.32,0.81-0.66,1.22-1c0.4-0.34,0.79-0.67,1.16-1c0.37-0.35,0.77-0.67,1.19-0.95c0.43-0.28,0.75-0.66,0.98-1.13    c0.09-0.09,0.14-0.12,0.14-0.09l0.42-0.4c0.06-0.06,0.11-0.12,0.16-0.18c0.05-0.06,0.1-0.12,0.16-0.18    c0.06-0.06,0.13-0.1,0.22-0.11c0.08-0.01,0.15-0.05,0.22-0.11c0.31-0.29,0.61-0.59,0.9-0.89c0.29-0.29,0.61-0.61,0.94-0.93    l0.4-0.38c0.27-0.22,0.53-0.45,0.81-0.66c0.31-0.24,0.6-0.49,0.89-0.75c-0.22,0.97-0.4,1.95-0.53,2.95    c-0.2,1.51-0.16,3.03,0.11,4.56c0.12,0.59,0.31,1.17,0.56,1.73c0.25,0.56,0.6,1.09,1.05,1.6c0.19,0.24,0.39,0.38,0.62,0.44    c0.22,0.06,0.44,0.15,0.65,0.27c0.85,0.47,1.47,0.37,1.88-0.31c0.24-0.32,0.49-0.63,0.75-0.91c0.26-0.28,0.47-0.61,0.64-1    c0.14-0.32,0.32-0.64,0.54-0.95c0.22-0.31,0.42-0.64,0.59-1c0.37-0.71,0.71-1.42,1.01-2.15c0.3-0.72,0.64-1.44,1.01-2.15    c0.42-0.86,0.85-1.73,1.27-2.61c0.42-0.88,0.88-1.76,1.37-2.61c0.58-0.97,1.16-1.94,1.74-2.9c0.58-0.96,1.18-1.91,1.8-2.86    c0.23-0.41,0.49-0.8,0.77-1.17c0.28-0.37,0.56-0.74,0.83-1.13c0.12-0.15,0.23-0.28,0.34-0.4c0.11-0.12,0.2-0.25,0.29-0.4    c0.15-0.24,0.27-0.47,0.39-0.69c0.11-0.22,0.24-0.44,0.39-0.64c0.33-0.38,0.65-0.75,0.95-1.11c0.3-0.35,0.62-0.71,0.96-1.06    c0.06-0.06,0.15-0.12,0.26-0.18c0.11-0.06,0.2-0.12,0.26-0.18l0.16,0.13c-0.08,0.27-0.14,0.53-0.2,0.8    c-0.06,0.27-0.15,0.52-0.26,0.75c-0.79,2.01-1.1,4.06-0.95,6.16c0.12,1.3,0.48,2.5,1.08,3.61c0.6,1.11,1.57,2.05,2.92,2.81    c0.6,0.35,1.17,0.35,1.71,0c-0.16-0.27-0.31-0.52-0.45-0.78c-0.14-0.25-0.29-0.49-0.44-0.73c-0.01-0.12-0.01-0.23,0-0.33    c0.01-0.1,0.01-0.2,0-0.29c0.01-0.29-0.03-0.59-0.11-0.89c-0.08-0.29-0.06-0.53,0.06-0.71c0.24-0.35,0.3-0.72,0.2-1.08    c-0.1-0.37-0.07-0.72,0.11-1.04c0.08-0.21,0.14-0.42,0.17-0.64c0.03-0.22,0.12-0.43,0.27-0.64c0.11-0.21,0.23-0.41,0.35-0.6    c0.12-0.19,0.21-0.41,0.29-0.64c0.09-0.15,0.15-0.32,0.18-0.51c0.03-0.19,0.11-0.33,0.24-0.42c0.25-0.15,0.42-0.32,0.5-0.53    c0.08-0.21,0.16-0.43,0.24-0.66c0.06-0.12,0.09-0.24,0.12-0.38c0.02-0.13,0.08-0.26,0.17-0.38c0.41-0.59,0.83-1.18,1.24-1.77    c0.03-0.04,0.06-0.09,0.09-0.13c0.16,0.02,0.31,0.08,0.48,0.08c0.42,0,0.77-0.05,1.06-0.16c0.39-0.13,0.69-0.19,0.89-0.18    c0.2,0.01,0.4,0.13,0.58,0.34c0.16-0.06,0.33-0.11,0.51-0.16c0.18-0.04,0.35-0.08,0.52-0.11c0.23,0,0.44,0.1,0.63,0.31    c0.04,0.03,0.04,0.09,0.02,0.18c-0.03,0.09-0.07,0.16-0.13,0.22c-0.15,0.24-0.28,0.47-0.41,0.69c-0.13,0.22-0.27,0.45-0.41,0.69    c-0.52,0.92-1.02,1.86-1.5,2.83c-0.2,0.35-0.39,0.71-0.56,1.06c-0.17,0.35-0.34,0.72-0.5,1.11c-0.15,0.24-0.26,0.48-0.33,0.73    c-0.08,0.25-0.17,0.49-0.28,0.73c-0.11,0.24-0.23,0.48-0.34,0.73c-0.11,0.25-0.2,0.51-0.28,0.77c-0.3,0.8-0.55,1.64-0.77,2.52    c-0.03,0.09-0.03,0.18,0,0.27c0.03,0.09,0.03,0.21,0.01,0.35c0,0.03-0.03,0.07-0.09,0.11c-0.06,0.04-0.09,0.1-0.09,0.16    c-0.1,0.41-0.18,0.84-0.26,1.28c-0.08,0.44-0.13,0.87-0.16,1.28c-0.03,0.41-0.02,0.82,0.04,1.22c0.05,0.4,0.1,0.8,0.14,1.22    c0.05,0.18,0.1,0.36,0.15,0.55c0.05,0.19,0.12,0.38,0.2,0.55c0.21,0.41,0.42,0.8,0.66,1.17c0.23,0.37,0.47,0.73,0.7,1.09    c0.24,0.41,0.52,0.77,0.85,1.06c0.29,0.24,0.57,0.47,0.84,0.71c0.27,0.24,0.54,0.47,0.79,0.71c0.18,0.18,0.38,0.27,0.6,0.29    c0.22,0.02,0.42,0.08,0.6,0.2c0.35,0.21,0.75,0.38,1.2,0.53c0.17,0.06,0.35,0.1,0.54,0.13c0.19,0.03,0.34,0.01,0.47-0.04    c0.35-0.21,0.73-0.33,1.15-0.38c0.41-0.04,0.79-0.21,1.13-0.51c0.31-0.29,0.65-0.55,1.03-0.78c0.38-0.22,0.74-0.46,1.09-0.73    c0.22-0.15,0.42-0.3,0.61-0.46c0.19-0.16,0.37-0.32,0.56-0.47c0.25-0.18,0.48-0.36,0.68-0.55c0.2-0.19,0.41-0.39,0.62-0.6    c0.27-0.33,0.54-0.66,0.81-1c0.27-0.34,0.54-0.67,0.81-1c0.34-0.35,0.66-0.7,0.98-1.04c0.32-0.34,0.65-0.69,0.99-1.04    c-0.11-0.12-0.26-0.25-0.44-0.4c0.26-0.12,0.4-0.19,0.43-0.22c0.06-0.12,0.09-0.22,0.1-0.31c0.01-0.09,0.04-0.16,0.1-0.22    c0.18-0.24,0.37-0.47,0.56-0.71c0.2-0.24,0.38-0.47,0.56-0.71c0.21-0.29,0.4-0.59,0.57-0.89c0.17-0.29,0.36-0.59,0.57-0.89    c0.06-0.06,0.11-0.12,0.16-0.18c0.04-0.06,0.1-0.12,0.16-0.18c0.14-0.29,0.27-0.59,0.4-0.89c0.12-0.29,0.25-0.59,0.4-0.89    c0.11-0.24,0.26-0.46,0.44-0.66c0.18-0.21,0.18-0.46-0.02-0.75c-0.16-0.27-0.19-0.5-0.09-0.71c0.1-0.21,0.19-0.43,0.27-0.66    c0.11-0.24,0.18-0.48,0.21-0.73c0.03-0.25,0.06-0.49,0.11-0.73c0.03-0.09,0.02-0.18,0-0.29    C286.58,60.01,286.56,59.91,286.55,59.82z M218,68.86l0.09-0.09c0.28-0.24,0.46-0.5,0.55-0.8c0.09-0.29,0.21-0.59,0.35-0.89    c0.06-0.12,0.13-0.22,0.22-0.31c0.09-0.09,0.17-0.18,0.23-0.27l0.23-0.22c0.06-0.12,0.11-0.23,0.17-0.33    c0.06-0.1,0.11-0.21,0.17-0.33c0.05-0.18,0.07-0.31,0.06-0.4c0.02-0.12,0.05-0.21,0.07-0.29c0.03-0.07,0.12-0.1,0.3-0.07    c0.04,0.03,0.09,0.03,0.15,0c0.06-0.03,0.11-0.06,0.14-0.09c0.21-0.27,0.4-0.54,0.58-0.82c0.17-0.28,0.37-0.55,0.58-0.82    c0.03-0.06,0.03-0.12,0.01-0.2c-0.02-0.07-0.04-0.15-0.05-0.24c0.42-0.12,0.74-0.32,0.95-0.62c0.21-0.29,0.43-0.58,0.68-0.84    c0.19-0.18,0.38-0.36,0.58-0.55c0.2-0.19,0.37-0.39,0.52-0.6c0.15-0.21,0.27-0.41,0.37-0.62c0.1-0.21,0.22-0.41,0.37-0.62    c0.03-0.06,0.1-0.15,0.23-0.27c0.13-0.06,0.26-0.12,0.38-0.2c0.13-0.07,0.24-0.16,0.33-0.24c0.21-0.21,0.41-0.43,0.59-0.66    s0.4-0.43,0.65-0.58c0.22-0.12,0.41-0.25,0.57-0.4c0.15-0.15,0.33-0.28,0.52-0.4c0.13-0.09,0.24-0.18,0.35-0.27    c0.11-0.09,0.23-0.19,0.35-0.31c0.06-0.03,0.19-0.13,0.37-0.31c0.19-0.18,0.31-0.29,0.37-0.35c0.12-0.12,0.27-0.18,0.44-0.18    c0.07,0,0.13,0.04,0.19,0.13s0.09,0.16,0.1,0.22c0.03,0.29,0.06,0.59,0.11,0.89c0.04,0.29,0.04,0.59,0,0.88    c-0.06,0.86-0.23,1.65-0.53,2.39c-0.3,0.74-0.67,1.46-1.11,2.17c-0.06,0.06-0.1,0.13-0.1,0.22c-0.01,0.09-0.03,0.16-0.05,0.22    c0.01,0.09-0.02,0.16-0.08,0.22c-0.24,0.29-0.48,0.59-0.72,0.89c-0.24,0.29-0.48,0.59-0.72,0.89c-0.18,0.24-0.37,0.47-0.56,0.71    c-0.2,0.24-0.4,0.47-0.61,0.71l-0.19,0.18c-0.26,0.41-0.57,0.79-0.93,1.13c-0.35,0.34-0.75,0.66-1.19,0.95    c-0.16,0.12-0.31,0.21-0.48,0.29c-0.16,0.07-0.32,0.16-0.48,0.24l-1.42,0.93c-0.06,0.06-0.12,0.09-0.19,0.09    c-0.13,0.06-0.25,0.1-0.36,0.13c-0.12,0.03-0.22,0.07-0.31,0.13c-0.13,0.06-0.24,0.1-0.34,0.11c-0.1,0.02-0.25,0.04-0.45,0.07    c-0.16,0.06-0.31,0.1-0.44,0.13c-0.13,0.03-0.28,0.07-0.44,0.13c-0.26,0.09-0.54,0.1-0.85,0.04c-0.31-0.06-0.59-0.09-0.86-0.09    L218,68.86z M255.47,52.25c-0.03,0.02-0.05,0.04-0.08,0.07c0.04-0.04,0.08-0.08,0.12-0.12C255.5,52.21,255.49,52.23,255.47,52.25z     M257.74,50.06c-0.01,0-0.01,0-0.02,0.01C257.73,50.06,257.74,50.06,257.74,50.06C257.74,50.05,257.74,50.06,257.74,50.06z     M268.41,52.68c-0.03,0-0.06,0.01-0.1,0.01c0.05-0.01,0.09-0.03,0.14-0.04C268.44,52.67,268.43,52.68,268.41,52.68z M283.39,61.79    c-0.08,0.2-0.14,0.42-0.2,0.63l-1.13,1.92c0.09-0.24,0.15-0.42,0.14-0.53c-0.29,0.47-0.59,0.94-0.88,1.39    c-0.14,0.22-0.3,0.45-0.45,0.68c-0.77,0.99-1.55,1.97-2.27,2.98c-0.12,0.01-0.25,0.04-0.35,0.01c-0.17-0.04-0.24,0.1-0.21,0.42    c0.01,0.09-0.07,0.17-0.23,0.24c-0.16,0.07-0.29,0.16-0.38,0.24c-0.13,0.09-0.24,0.18-0.35,0.27c-0.11,0.09-0.19,0.16-0.26,0.22    c0.04,0.09,0.07,0.17,0.1,0.24c0.02,0.07,0.06,0.16,0.1,0.24h-0.5c-0.17-0.03-0.32,0.02-0.44,0.13c-0.12,0.12-0.18,0.24-0.17,0.35    c-0.15,0.18-0.29,0.33-0.41,0.46c-0.12,0.13-0.26,0.27-0.41,0.42c-0.31,0.24-0.62,0.49-0.94,0.75c-0.31,0.27-0.64,0.52-0.98,0.75    c-0.35,0.24-0.71,0.49-1.09,0.75c-0.38,0.27-0.76,0.52-1.14,0.75c-0.32,0.18-0.65,0.33-0.99,0.44c-0.34,0.12-0.69,0.25-1.04,0.4    c-0.29,0.09-0.49-0.03-0.58-0.35c-0.07-0.35-0.12-0.71-0.17-1.06c-0.05-0.35-0.09-0.71-0.12-1.06c-0.01-0.15,0-0.3,0.03-0.47    c0.04-0.16,0.06-0.32,0.08-0.46c0.04-0.33,0.07-0.66,0.11-1.02c0.03-0.35,0.07-0.69,0.11-1.02l-0.01-0.13    c0.45-0.24,0.63-0.53,0.55-0.89c-0.08-0.35-0.11-0.71-0.07-1.06c0.37,0.06,0.57-0.02,0.58-0.22c0.01-0.21,0.06-0.38,0.15-0.53    c0.14-0.32,0.25-0.63,0.34-0.93c0.09-0.29,0.2-0.59,0.35-0.89c0.2-0.41,0.38-0.83,0.56-1.26c0.18-0.43,0.38-0.86,0.61-1.31    c0.08-0.18,0.18-0.35,0.28-0.51c0.1-0.16,0.21-0.33,0.33-0.51c0.23-0.41,0.45-0.8,0.65-1.17c0.2-0.37,0.42-0.74,0.65-1.13    c0.14-0.27,0.29-0.52,0.46-0.78c0.16-0.25,0.31-0.51,0.46-0.78c0.12-0.15,0.23-0.3,0.33-0.47c0.1-0.16,0.23-0.32,0.39-0.46    c0.3-0.38,0.59-0.77,0.87-1.15c0.28-0.38,0.57-0.77,0.87-1.15c0.24-0.32,0.49-0.63,0.77-0.93c0.27-0.29,0.55-0.61,0.82-0.93    c0.03-0.09,0.09-0.15,0.18-0.18c0.23-0.09,0.5-0.12,0.82-0.11c0.32,0.02,0.65,0.07,1,0.18c0.34,0.1,0.67,0.23,0.96,0.38    c0.3,0.15,0.54,0.31,0.72,0.49c0.21,0.2,0.36,0.4,0.45,0.6c0.46,1.25,0.71,2.43,0.86,3.66c0,0.11,0,0.23,0.02,0.34h0.03    c0.03,0.29,0.09,0.55,0.1,0.85C283.45,60.4,283.49,61.08,283.39,61.79z"/>
		<path class="st0" d="M124.55,16.99c0-1.61-0.28-2.96-0.85-4.05c-0.57-1.09-1.34-1.98-2.33-2.65s-2.15-1.16-3.48-1.46    c-1.33-0.3-2.76-0.45-4.29-0.45h-10.28v27.99h6.76V25.8h3.36c1.45,0,2.85-0.16,4.19-0.47c1.34-0.32,2.53-0.82,3.56-1.5    c1.03-0.69,1.84-1.59,2.45-2.71C124.25,20,124.55,18.62,124.55,16.99z M117.4,18.67c-0.26,0.43-0.63,0.78-1.09,1.05    c-0.46,0.26-0.98,0.45-1.56,0.55c-0.58,0.11-1.19,0.16-1.82,0.16h-2.85v-6.6h2.96c0.61,0,1.19,0.04,1.76,0.12    c0.57,0.08,1.07,0.24,1.52,0.47c0.45,0.24,0.8,0.57,1.07,0.99c0.26,0.42,0.4,0.96,0.4,1.62C117.79,17.69,117.66,18.23,117.4,18.67    z"/>
		<path class="st0" d="M135.34,8.37L123.6,36.36h7.35l2.06-5.49h10.83l2.17,5.49h7.51L141.9,8.37H135.34z M134.95,25.45l3.56-9.61    l3.48,9.61H134.95z"/>
		<path class="st0" d="M176.49,21.61c1.03-1.29,1.54-2.89,1.54-4.78c0-1.61-0.3-2.95-0.91-4.03c-0.61-1.08-1.42-1.95-2.43-2.61    c-1.01-0.66-2.16-1.13-3.44-1.4c-1.28-0.28-2.59-0.42-3.93-0.42h-10.67v27.99h6.6V25.25h2.3l6.08,11.11h7.91l-7.31-11.98    C174.04,23.83,175.47,22.9,176.49,21.61z M170.9,18.69c-0.3,0.45-0.69,0.79-1.17,1.03c-0.48,0.24-1.01,0.4-1.59,0.49    c-0.58,0.09-1.15,0.14-1.71,0.14h-3.22v-6.52h3.61c0.5,0,1.03,0.04,1.57,0.12c0.54,0.08,1.03,0.23,1.47,0.45    c0.44,0.22,0.79,0.54,1.07,0.95c0.28,0.41,0.42,0.94,0.42,1.6C171.35,17.66,171.2,18.24,170.9,18.69z"/>
		<polygon class="st0" points="188.39,36.36 195.15,36.36 195.15,14.14 203.06,14.14 203.06,8.37 180.49,8.37 180.49,14.14     188.39,14.14   "/>
		<polygon class="st0" points="213.34,18.06 213.45,18.06 224.72,36.36 232.39,36.36 232.39,8.37 225.83,8.37 225.98,26.63     225.87,26.63 214.64,8.37 206.93,8.37 206.93,36.36 213.49,36.36   "/>
		<polygon class="st0" points="258.48,30.59 245.47,30.59 245.47,24.78 257.09,24.78 257.09,19.36 245.47,19.36 245.47,14.06     257.77,14.06 257.77,8.37 238.95,8.37 238.95,36.36 258.48,36.36   "/>
		<path class="st0" d="M270.34,25.25h2.3l6.08,11.11h7.91l-7.31-11.98c1.82-0.55,3.24-1.48,4.27-2.77c1.03-1.29,1.54-2.89,1.54-4.78    c0-1.61-0.3-2.95-0.91-4.03c-0.61-1.08-1.42-1.95-2.43-2.61c-1.01-0.66-2.16-1.13-3.44-1.4s-2.59-0.42-3.93-0.42h-10.67v27.99h6.6    V25.25z M270.3,13.83h3.61c0.5,0,1.03,0.04,1.57,0.12c0.54,0.08,1.03,0.23,1.47,0.45c0.44,0.22,0.79,0.54,1.07,0.95    c0.28,0.41,0.42,0.94,0.42,1.6c0,0.71-0.15,1.29-0.46,1.74c-0.3,0.45-0.69,0.79-1.17,1.03c-0.48,0.24-1.01,0.4-1.59,0.49    c-0.58,0.09-1.15,0.14-1.71,0.14h-3.22V13.83z"/>
	</g>
	<path class="st0" d="M45.48,1.44c-24.22,0-43.85,19.63-43.85,43.85c0,24.22,19.63,43.85,43.85,43.85   c24.22,0,43.85-19.63,43.85-43.85C89.33,21.07,69.69,1.44,45.48,1.44z M70.77,32.37c0.01,0.14,0,0.27-0.03,0.38   c-0.03,0.12-0.03,0.25-0.03,0.38c-0.03,0.65-0.12,1.29-0.28,1.93c-0.16,0.64-0.42,1.36-0.81,2.15c-0.04,0.15-0.11,0.29-0.18,0.42   c-0.08,0.13-0.14,0.27-0.18,0.42c-0.21,0.5-0.42,0.99-0.64,1.48c-0.22,0.49-0.49,0.96-0.79,1.4l-0.08,0.02   c-0.36,0.46-0.71,0.91-1.05,1.38c-0.34,0.46-0.7,0.9-1.07,1.3c-0.63,0.69-1.28,1.38-1.96,2.07c-0.67,0.69-1.38,1.37-2.13,2.04   c-0.31,0.3-0.64,0.56-0.99,0.78c-0.35,0.22-0.73,0.45-1.14,0.69c-0.22,0.14-0.43,0.28-0.65,0.42c-0.21,0.14-0.41,0.29-0.6,0.45   c-0.16,0.13-0.3,0.24-0.41,0.36c-0.11,0.11-0.23,0.24-0.36,0.39c-0.07,0.05-0.12,0.09-0.15,0.14c-0.03,0.05-0.08,0.1-0.15,0.14   c-0.02,0.03-0.04,0.05-0.07,0.06c-0.03,0.01-0.05,0.03-0.07,0.06c-0.46,0.26-0.94,0.53-1.42,0.83c-0.57,0.29-1.15,0.58-1.76,0.89   c-0.6,0.31-1.21,0.6-1.81,0.86c-0.01,0-0.01,0-0.02,0.01c-0.01,0.03-0.01,0.05-0.02,0.08c-0.15,0.58,0,0.71-0.04,0.82   c-0.04,0.11-0.04,0.19,0,0.23c0.07,0.18,0.09,0.31,0.04,0.39c-0.05,0.08-0.09,0.18-0.11,0.3c-0.05,0.24-0.09,0.47-0.12,0.68   c-0.03,0.22-0.05,0.43-0.05,0.62c-0.05,0.69-0.09,1.36-0.12,2.01c-0.03,0.65-0.04,1.31-0.05,1.95c0,0.31,0,0.62,0.01,0.93   c0.01,0.31,0.01,0.62,0.01,0.93c0.02,0.08,0.02,0.14,0,0.17c-0.16,0.35-0.22,0.72-0.16,1.11c0.06,0.39,0.07,0.78,0.02,1.15   c-0.01,0.09-0.02,0.18-0.03,0.28c-0.02,0.1-0.03,0.2-0.03,0.28c-0.05,0.35-0.09,0.71-0.13,1.07c-0.04,0.36-0.03,0.73,0.01,1.11   c0.06,0.44,0.13,0.87,0.21,1.32c0.08,0.44,0.16,0.89,0.22,1.36c0.03,0.11,0.04,0.22,0.05,0.35c0,0.13,0.02,0.25,0.06,0.39   c-0.01,0.06,0,0.13,0.04,0.22s0.06,0.16,0.08,0.21c0.2,0.23,0.16,0.4-0.13,0.5c-0.05,0.01-0.09,0.05-0.12,0.11   c-0.03,0.06-0.03,0.12-0.02,0.17c0.11,0.22,0.21,0.45,0.28,0.69c0.07,0.23,0.17,0.46,0.28,0.69c0.04,0.05,0.08,0.08,0.11,0.1   c0.03,0.02,0.07,0.05,0.11,0.1c0.07,0.04,0.12,0.07,0.17,0.1c0.05,0.03,0.11,0.06,0.17,0.1c0.05,0.07,0.09,0.15,0.12,0.22   c0.03,0.08,0.09,0.17,0.18,0.29c-0.09-0.01-0.17,0-0.27,0.03c-0.09,0.02-0.17,0.03-0.23,0.02c-0.79,0-1.49-0.27-2.1-0.81   c-0.29-0.24-0.57-0.49-0.85-0.75c-0.28-0.27-0.56-0.52-0.85-0.75c-0.09-0.12-0.16-0.23-0.23-0.32c-0.07-0.1-0.05-0.21,0.06-0.35   c0.01-0.06,0-0.13-0.04-0.22c-0.04-0.09-0.09-0.14-0.15-0.15c-0.21-0.17-0.39-0.34-0.53-0.5c-0.14-0.16-0.25-0.39-0.32-0.68   c0,0,0-0.01,0-0.01c-0.11-0.26-0.19-0.54-0.26-0.82c-0.05-0.14-0.11-0.28-0.17-0.43c-0.18-0.42-0.29-0.83-0.34-1.24   c-0.12-0.7-0.22-1.39-0.3-2.09c-0.07-0.6-0.14-1.19-0.22-1.78c-0.01-0.05-0.02-0.1-0.03-0.16c0-0.02,0-0.04,0-0.06   c0-0.02-0.01-0.05-0.01-0.07c-0.08-0.54-0.11-1.04-0.09-1.49c-0.02-0.3-0.04-0.6-0.06-0.89c-0.02-0.29,0-0.6,0.06-0.92   c-0.02-0.39-0.03-0.77-0.04-1.15c-0.01-0.38-0.03-0.76-0.04-1.15c0.04-0.38,0.07-0.75,0.07-1.13c0-0.22,0.01-0.43,0.02-0.64   c-1.05,0.43-2.13,0.87-3.25,1.31c-0.48,0.21-0.96,0.37-1.46,0.5c-0.33,0.08-0.69,0.16-1.04,0.24c0.03,0.31,0.05,0.63,0.08,0.79   c0.06,0.27,0.05,0.58-0.17,1.03c-0.04,0.07-0.08,0.16-0.12,0.27c-0.04,0.11-0.04,0.19,0,0.24c0.07,0.18,0.09,0.32,0.04,0.4   c-0.05,0.08-0.09,0.19-0.11,0.31c-0.05,0.24-0.09,0.48-0.12,0.7c-0.03,0.22-0.05,0.44-0.05,0.64c-0.05,0.7-0.16,1.43-0.17,2.09   c0,0.32,0,0.63,0.01,0.95c0.01,0.31,0.01,0.63,0.01,0.95c0.02,0.08,0.02,0.14,0,0.17c-0.17,0.36-0.22,0.74-0.16,1.14   c0.06,0.4,0.07,0.79,0.02,1.18c-0.01,0.09-0.02,0.18-0.03,0.29c-0.02,0.11-0.03,0.2-0.03,0.29c-0.05,0.36-0.09,0.72-0.13,1.09   c-0.04,0.37-0.03,0.75,0.01,1.14c0.06,0.45,0.13,0.89,0.22,1.34c0.09,0.45,0.16,0.91,0.23,1.39c0.03,0.11,0.05,0.23,0.05,0.35   c0,0.75-0.29,1.52-0.1,1.64c0.19,0.12,0.21,0.46,0.29,0.7c0.08,0.24,0.17,0.47,0.29,0.7c0.04,0.05,0.8,0.81,0.89,0.94   c-0.09-0.01-0.45,0.06-0.51,0.04c-0.8,0-1.52-0.27-2.15-0.83c-0.29-0.24-0.29-0.21-0.58-0.48c-0.11-0.1-0.45-0.08-0.45-0.43   c0-0.19-0.59-0.57-0.65-0.67c-0.07-0.1-0.81-1.37-0.95-1.54c-0.14-0.16-0.25-0.39-0.33-0.69c0,0,0-0.01,0-0.01   c-0.11-0.27-0.19-0.55-0.26-0.84c-0.05-0.15-0.11-0.29-0.17-0.44c-0.18-0.42-0.3-0.85-0.35-1.27c-0.12-0.71-0.23-1.42-0.31-2.13   c-0.07-0.61-0.15-1.21-0.22-1.81c-0.01-0.05-0.03-0.1-0.03-0.16c0-0.02,0-0.04,0-0.06c0-0.02-0.01-0.05-0.01-0.07   c-0.08-0.55-0.11-1.06-0.09-1.52c-0.02-0.31-0.04-0.61-0.06-0.91c-0.02-0.3,0.04-2.1,0.05-2.49c0-0.39,0.01-0.77,0.03-1.15   c0.02-0.49,0.04-0.98,0.08-1.46c0.01-0.12,0.01-0.25,0.02-0.37c-0.08,0.02-0.16,0.04-0.25,0.06c-0.78,0.18-1.56,0.38-2.34,0.58   c-0.54,0.17-1.08,0.29-1.62,0.37c-0.54,0.08-1.06,0.15-1.58,0.2l-1.8,0.34c-0.62,0.08-1.23,0.15-1.83,0.22   c-0.6,0.07-1.19,0.15-1.78,0.25c-0.19,0.02-0.37,0.04-0.53,0.05c-0.16,0.01-0.34,0.03-0.53,0.05c-0.1,0.03-0.26,0.07-0.47,0.12   c-0.21,0.05-1.21-0.05-1.38-0.15c-0.54-0.36-1.01-0.95-1.42-1.77c-0.1-0.28-0.2-0.56-0.3-0.84c-0.1-0.28-0.2-0.56-0.3-0.84   c-0.1-0.28-0.2-0.57-0.29-0.87c-0.09-0.3-0.19-0.59-0.29-0.87c0.06-0.41,0.06-0.8-0.01-1.17c-0.07-0.37-0.13-0.73-0.19-1.08   c-0.07-0.26-0.12-0.51-0.15-0.76c-0.03-0.24-0.05-0.48-0.05-0.7c-0.01-0.05-0.01-0.1,0.01-0.13c0.02-0.03,0.02-0.08,0.01-0.13   c0.02-0.48,0.05-0.9,0.09-1.28c0.04-0.37,0.13-0.75,0.26-1.11c0.13-0.15,0.21-0.31,0.25-0.48c0.04-0.18,0.06-0.35,0.08-0.52   c-0.01-0.14,0-0.26,0.01-0.36c0.02-0.1,0.03-0.2,0.03-0.28c0.18-0.3,0.35-0.58,0.51-0.86c0.17-0.28,0.36-0.57,0.59-0.88   c0.03-0.12,0.08-0.22,0.15-0.31c0.08-0.09,0.15-0.2,0.23-0.33c0.14-0.09,0.22-0.2,0.21-0.31c0-0.11,0-0.21,0.01-0.29   c-0.03-0.24,0.09-0.46,0.38-0.64c0.09-0.08,0.18-0.15,0.26-0.21c0.08-0.06,0.16-0.16,0.24-0.29l0.03-0.05   c0.09-0.08,0.18-0.17,0.26-0.28c0.09-0.11,0.14-0.26,0.17-0.46c-0.01-0.05,0-0.11,0.04-0.18c0.29,0.04,0.53-0.01,0.72-0.14   c0.19-0.13,0.37-0.26,0.53-0.39c0.05-0.01,0.08-0.03,0.09-0.04c0.01-0.02,0.04-0.03,0.09-0.04c0.18-0.16,0.39-0.32,0.61-0.47   c0.23-0.16,0.44-0.33,0.64-0.52c0.38-0.27,0.72-0.53,1.03-0.79c0.31-0.26,0.64-0.51,1-0.74c0.14-0.09,0.29-0.16,0.43-0.21   c0.14-0.05,0.27-0.1,0.4-0.16c0.09,0.01,0.15,0,0.18-0.03c0.04-0.02,0.1-0.03,0.18-0.03c0.57,0.47,1.26,0.43,2.06-0.11   c0.02-0.03,0.1-0.07,0.24-0.12c0.14-0.05,0.34,0,0.61,0.16c0.03,0.02,0.06,0.06,0.09,0.12c0.03,0.06,0.07,0.13,0.11,0.2   c-0.87,0.86-1.7,1.7-2.52,2.51c-0.81,0.81-1.59,1.7-2.35,2.68c-0.4,0.52-0.81,1.13-1.25,1.83c-0.43,0.7-1.42,1.75-1.62,2.37   c-0.12,0.24-0.21,0.48-0.29,0.72c-0.07,0.24-0.17,0.48-0.29,0.72c-0.11,0.36-0.13,0.65-0.15,0.85c0.01,0.14,0.02,0.26,0.01,0.36   c-0.01,0.1-0.03,0.21-0.05,0.33c0.02,0.05,0.09,0.13,0.23,0.25c0.13,0.11,0.21,0.2,0.23,0.25l0.01,0.59l0.51,0.01   c0.07,0.04,0.13,0.05,0.18,0.03c0.24,0.04,0.43,0.05,0.56,0.04c0.14-0.01,0.27-0.03,0.41-0.04c0.14-0.01,0.27-0.03,0.41-0.04   c0.89-0.05,1.7-0.14,2.42-0.28c0.82-0.17,1.68-0.35,2.58-0.52c0.89-0.18,1.83-0.38,2.81-0.6c0.95-0.23,1.9-0.52,2.88-0.8   c0-0.42,0.02-0.84,0.05-1.24c0.05-0.82,0.11-1.62,0.18-2.39c0.07-0.78,0.12-1.57,0.14-2.38c0.03-0.78,0.08-1.57,0.17-2.37   c0.08-0.8,0.05-1.59-0.1-2.39c-0.03-0.45,0.09-0.78,0.35-0.97c0.16-0.12,0.36-0.2,0.57-0.27c-0.08-0.13-0.17-0.24-0.27-0.33   c-0.17-0.15-0.33-0.3-0.48-0.46l-0.14-0.22c0-0.56-0.04-1.1-0.11-1.62c-0.07-0.52-0.09-1.07-0.06-1.65   c-0.03-0.44,0.02-0.91,0.14-1.4c0.12-0.49,0.24-0.97,0.34-1.45c-0.02-0.04,0-0.08,0.07-0.12l0.05-0.03c0.36-0.08,0.69-0.32,1-0.72   c0.07-0.05,0.14-0.08,0.21-0.09c0.07-0.02,0.12-0.07,0.17-0.15c0.13-0.44,0.36-0.68,0.7-0.71c0.34-0.04,0.66-0.13,0.97-0.28   c0.41-0.16,0.81-0.13,1.2,0.08c0.13,0.12,0.27,0.18,0.43,0.19c0.16,0,0.32,0.02,0.5,0.06l0.18,0.04c0.38,0.27,0.67,0.66,0.87,1.17   c0.2,0.51,0.25,0.98,0.16,1.39c-0.05,0.08-0.06,0.17-0.03,0.25c0.03,0.08,0.04,0.16,0.02,0.22c0.2,0.64,0.24,1.33,0.1,2.08   c0.01,0.1,0.04,0.2,0.09,0.33c0.05,0.12,0.06,0.24,0.04,0.36c-0.06,0.39-0.14,0.78-0.26,1.16c-0.11,0.38-0.19,0.74-0.24,1.07   c-0.08,0.36-0.31,0.51-0.71,0.45c0.46,0.32,0.51,0.6,0.15,0.83c-0.1,0.09-0.22,0.15-0.33,0.23c0.16,0.09,0.33,0.18,0.48,0.31   c0.18,0.15,0.37,0.31,0.55,0.46c0.18,0.13,0.31,0.27,0.41,0.43c0.1,0.16,0.12,0.36,0.07,0.61c-0.01,0.06,0,0.11,0.04,0.16   c0.04,0.05,0.08,0.08,0.11,0.1c0.26,0.11,0.39,0.28,0.39,0.5c-0.05,0.36-0.09,0.7-0.13,1.02c-0.03,0.32-0.05,0.64-0.05,0.96   c-0.03,0.09-0.08,0.18-0.15,0.25c-0.07,0.19-0.11,0.37-0.14,0.55c-0.03,0.18-0.09,0.35-0.19,0.52c-0.19,0.28-0.27,0.57-0.25,0.88   c0.02,0.31-0.01,0.59-0.09,0.84c-0.09,0.2-0.19,0.4-0.27,0.61c-0.09,0.21-0.13,0.43-0.13,0.66c0,0.12-0.01,0.24-0.02,0.35   c0.03-0.01,0.05-0.02,0.08-0.03c0.75-0.22,1.49-0.47,2.2-0.73c0.71-0.27,1.44-0.54,2.18-0.81l0.16-0.04   c0.04-0.01,0.09-0.04,0.13-0.06c0.03-0.44,0.06-0.88,0.1-1.3c0.07-0.76,0.12-1.54,0.14-2.33c0.03-0.77,0.08-1.54,0.16-2.32   c0.08-0.78,0.05-1.56-0.09-2.34c-0.03-0.44,0.09-0.76,0.35-0.95c0.12-0.09,0.26-0.16,0.42-0.22c-0.02-0.04-0.04-0.06-0.06-0.1   c-0.07-0.13-0.17-0.23-0.3-0.3c-0.13-0.07-0.27-0.15-0.43-0.23c-0.09-0.06-0.18-0.12-0.28-0.18c-0.09-0.06-0.13-0.13-0.11-0.19   c0.17-0.5,0.09-0.89-0.25-1.18c-0.34-0.29-0.54-0.65-0.61-1.07c0.04-0.02,0.11-0.06,0.19-0.11c0.09-0.05,0.13-0.13,0.12-0.24   c-0.05-0.49,0.04-0.88,0.27-1.18c0.23-0.3,0.51-0.6,0.85-0.91c0.17-0.1,0.31-0.23,0.41-0.4c0.1-0.17,0.21-0.35,0.34-0.53   c0.33-0.53,0.58-0.98,0.76-1.37c0.31-0.75,0.81-0.98,1.49-0.68c0.27,0.07,0.46,0.11,0.57,0.1c0.56-0.21,0.95-0.28,1.15-0.23   c0.2,0.06,0.49,0.32,0.87,0.78c0.24,0.32,0.44,0.65,0.6,0.98c0.16,0.33,0.32,0.69,0.47,1.05c0.28,0.58,0.48,1.17,0.61,1.75   c0.13,0.58,0.24,1.19,0.32,1.83c0.07,0.42,0.08,0.82,0.05,1.21c-0.03,0.39-0.06,0.82-0.08,1.28c0.04,0.26-0.05,0.46-0.27,0.58   c-0.37,0.15-0.72,0.31-1.06,0.47c-0.02,0.01-0.05,0.02-0.08,0.03c0.08,0.07,0.17,0.14,0.25,0.21c0.17,0.12,0.31,0.27,0.4,0.42   c0.1,0.16,0.62,0.33,0.6,1.34c-0.05,0.35-0.09,0.69-0.12,1c-0.03,0.32-0.05,0.63-0.05,0.94c-0.03,0.09-0.08,0.18-0.15,0.25   c-0.05,0.15-0.08,0.29-0.11,0.43c0.1-0.05,0.2-0.09,0.29-0.11c0.11-0.03,0.23-0.07,0.38-0.14c0.15-0.07,0.25-0.22,0.3-0.45   c0.1-0.17,0.29-0.3,0.57-0.4c0.14-0.09,0.29-0.19,0.43-0.28c0.14-0.09,0.26-0.22,0.36-0.39c0.03,0.02,0.07,0.02,0.1-0.01   c0.04-0.02,0.1-0.03,0.18-0.03c0.11-0.03,0.19-0.08,0.25-0.15c0.07-0.07,0.15-0.12,0.25-0.15c0.16-0.13,0.3-0.24,0.4-0.33   c0.1-0.1,0.21-0.2,0.32-0.31c0.14-0.09,0.33-0.25,0.55-0.48c0.16-0.13,0.33-0.24,0.5-0.34c0.17-0.1,0.33-0.2,0.47-0.29   c0.11-0.03,0.19-0.06,0.26-0.11c0.07-0.05,0.14-0.09,0.22-0.14c0.37-0.18,0.73-0.38,1.08-0.59c0.35-0.22,0.68-0.54,0.98-0.99   c0.17-0.3,0.47-0.61,0.89-0.94c0.16-0.13,0.31-0.25,0.42-0.38c0.12-0.13,0.25-0.27,0.38-0.41c1.24-1.35,2.38-2.68,3.42-3.98   c0.16-0.26,0.28-0.66,0.37-1.18c0.09-0.53,0.19-0.93,0.32-1.21c0.03-0.2,0.08-0.36,0.15-0.48c0.07-0.12,0.14-0.24,0.22-0.37   c0.32-0.7,0.21-1.32-0.36-1.88c-0.74-0.7-1.51-1.39-2.31-2.06c-0.8-0.67-1.72-1.14-2.77-1.4c-0.24-0.05-0.47-0.12-0.7-0.22   c-0.23-0.09-0.45-0.16-0.66-0.19c-0.33-0.11-0.66-0.22-0.97-0.34c-0.31-0.12-0.62-0.2-0.95-0.26c-0.2-0.03-0.41-0.09-0.63-0.17   c-0.22-0.08-0.44-0.15-0.68-0.2c-0.62-0.15-1.27-0.29-1.94-0.44c-0.67-0.15-1.33-0.2-1.98-0.14c-0.22,0-0.44-0.02-0.66-0.06   c-0.22-0.04-0.46-0.1-0.73-0.17c-0.17-0.01-0.34-0.03-0.5-0.06c-0.16-0.03-0.33-0.05-0.5-0.06l-0.31-0.05   c-0.78-0.11-1.56-0.19-2.35-0.25c-0.78-0.06-1.56-0.12-2.33-0.18c-1.02-0.07-2-0.11-2.92-0.13c-0.92-0.01-1.81-0.02-2.65-0.03   c-0.17-0.01-0.34-0.01-0.5,0c-0.16,0.01-0.3,0.03-0.4,0.06c-0.02-0.5-0.07-0.77-0.15-0.82c-0.08-0.05-0.27-0.05-0.57,0   c-0.1,0.03-0.19,0.03-0.27,0.01c-0.08-0.02-0.17-0.02-0.27,0.01c-0.17-0.01-0.33-0.04-0.48-0.09c-0.15-0.05-0.29-0.06-0.43-0.06   c-0.42,0.11-0.82,0.16-1.22,0.15c-0.39-0.01-0.8-0.03-1.23-0.06c-0.61-0.09-1.21-0.13-1.81-0.1c-0.59,0.03-1.18,0.09-1.77,0.18   c-0.07,0.05-0.16,0.15-0.25,0.32c-0.25-0.55-0.69-0.79-1.31-0.71c-0.14,0.01-0.26,0.02-0.34,0.02c-0.08,0.01-0.02,0.06-0.04-0.05   c0.42-0.11,0.84-0.16,1.26-0.16c0.42,0,0.83,0.01,1.22,0.02c0.14-0.01,0.26,0,0.36,0.01c0.1,0.02,0.22,0.02,0.36,0.01   c0.39,0.01,0.75-0.4,1.27-0.5c0.22,0.02,0.42-0.18,0.6-0.19c0.18-0.01,0.02-0.5-0.42-0.5l-0.22-0.22l-0.84-0.09l-0.39-0.39   c-0.34-0.2-1.36-0.1-0.97-0.14c0.39-0.04,0.17-0.36-0.63-0.38l-0.19,0.04c-0.07-0.04-0.63,0.14-0.77,0.11   c-0.13-0.04-0.27-0.05-0.41-0.04c-0.1,0.03-0.23,0.04-0.36,0.05c-0.14,0.01-0.29,0.01-0.46-0.01l0.16-0.04   c-0.31-0.14-0.67-0.21-1.05-0.19c-0.39,0.02-0.69,0.14-0.91,0.36c-0.17-0.01-0.28-0.01-0.33,0l-0.04-0.16   c-0.3-0.17-0.8-0.09-0.46-0.17c0.09-0.02,0.2-0.06,0.33-0.11c0.35-0.13,0.83-0.36,1.44-0.68c0.49-0.15,1.08-0.21,1.76-0.16   c0.14-0.01,0.28-0.01,0.44-0.01c0.16,0,0.33-0.01,0.52-0.03l0.05,0.03c0.11-0.03,0.22-0.05,0.34-0.07c0.12-0.02,0.25-0.1,0.38-0.24   c0.19-0.24,0.53-0.4,1.01-0.47c0.12-0.06,0.34-0.13,0.66-0.21c0.09-0.08,0.21-0.17,0.35-0.26l0.03-0.05l0.3-0.29l-0.02-0.08   l0.08-0.02c0.14-0.01,0.28-0.03,0.44-0.07c0.16-0.04,0.3-0.06,0.44-0.07c0.3-0.05,0.58-0.09,0.87-0.12   c0.29-0.03,0.58-0.07,0.87-0.12c0.11-0.03,0.19-0.04,0.26-0.05c0.07,0,0.16-0.02,0.26-0.05c0.14-0.01,0.27-0.03,0.4-0.06   c0.13-0.03,0.27-0.05,0.4-0.06c0.36-0.01,0.75,0,1.16,0.02c0.41,0.02,0.8,0.03,1.16,0.02c0.24-0.03,0.49-0.04,0.75-0.02   c0.26,0.02,0.5,0.03,0.72,0.02c0.11-0.03,0.18-0.04,0.22-0.04c0.04,0,0.12-0.01,0.22-0.04l0.26,0.02c0.19-0.02,0.39-0.04,0.59-0.05   s0.41-0.03,0.59-0.05c0.48,0.02,0.93,0.02,1.36,0.01c0.43-0.01,0.89-0.05,1.37-0.12c0.16-0.04,0.33-0.06,0.51-0.07   c0.18,0,0.38-0.01,0.6-0.01c0.36-0.01,0.69-0.02,0.99-0.05c0.3-0.02,0.64-0.08,1-0.17c0.45-0.09,1.04-0.03,1.76,0.17   c0.2,0.03,0.37,0.06,0.51,0.1c0.14,0.04,0.29,0.06,0.46,0.07l0.1,0.06c0.09,0.01,0.2,0.02,0.34,0.04c0.15,0.02,0.27-0.03,0.38-0.14   c0.22-0.14,0.45-0.2,0.71-0.18c0.26,0.02,0.55,0.08,0.89,0.19c0.09,0.01,0.17,0.03,0.27,0.06c0.09,0.03,0.18,0.05,0.27,0.06   c0.05-0.01,0.11,0,0.18,0.04c0.09,0.01,0.19,0.02,0.31,0.05c0.12,0.03,0.25,0.03,0.38,0.03c0.78-0.12,1.43,0.09,1.96,0.63   c0.06,0.12,0.18,0.24,0.36,0.35c0.18,0.11,0.39,0.14,0.64,0.11c0.24-0.03,0.46-0.01,0.65,0.08c0.19,0.09,0.42,0.21,0.68,0.37   c0.17,0.1,0.34,0.2,0.52,0.31c0.18,0.11,0.39,0.19,0.63,0.24c0.44,0.08,0.95,0.34,1.54,0.78l0.54,0.32l0.2,0.12l0.1,0.06   c0.21,0.25,0.41,0.5,0.6,0.72c0.2,0.23,0.41,0.45,0.63,0.67c0.49,0.52,0.98,1.05,1.46,1.59c0.41,0.51,0.82,1.04,1.23,1.59   c0.41,0.55,0.73,1.14,0.98,1.78c0.13,0.16,0.21,0.34,0.26,0.52c0.05,0.18,0.1,0.41,0.17,0.67c0.03,0.1,0.05,0.2,0.07,0.27   c0.02,0.08,0.04,0.17,0.07,0.27l0.02,0.08c0.01,0.05,0.03,0.13,0.04,0.22c0.01,0.09,0.06,0.19,0.13,0.28   c0.24,0.27,0.4,0.57,0.48,0.88c0.08,0.31,0.14,0.66,0.18,1.04c0.02,0.41,0.14,0.86,0.34,1.34c-0.02,0.03-0.01,0.06,0.02,0.08   c-0.16,0.35-0.22,0.67-0.17,0.96c0.05,0.29,0.12,0.58,0.22,0.86l0.02,0.08c0.03,0.1,0.03,0.23,0.01,0.37   C70.85,32.07,70.82,32.22,70.77,32.37z"/>
</g>
</svg>