<svg width="36" height="36" viewBox="0 0 36 36" fill="none" xmlns="http://www.w3.org/2000/svg">
<g clip-path="url(#clip0_440_3916)">
<path d="M35.1795 5.37597e-07H31.8459C31.7317 -0.000128435 31.6186 0.02295 31.5135 0.0678365C31.4084 0.112723 31.3136 0.178482 31.2347 0.261126C31.1558 0.343771 31.0945 0.441578 31.0545 0.548618C31.0146 0.655658 30.9968 0.7697 31.0022 0.883829L31.2834 6.70289C29.6482 4.77597 27.6128 3.22846 25.3188 2.16803C23.0248 1.1076 20.5273 0.559718 18 0.5625C8.3911 0.5625 0.555473 8.40445 0.562505 18.0134C0.569536 27.6377 8.37422 35.4375 18 35.4375C22.3179 35.4436 26.4834 33.8416 29.6845 30.9438C29.7701 30.8673 29.8391 30.7741 29.8873 30.67C29.9356 30.5659 29.9621 30.453 29.9653 30.3383C29.9684 30.2236 29.9482 30.1094 29.9057 30.0028C29.8632 29.8962 29.7995 29.7994 29.7183 29.7183L27.3277 27.3277C27.1764 27.1764 26.9733 27.0883 26.7594 27.0811C26.5456 27.0739 26.337 27.1482 26.1759 27.289C24.287 28.9509 21.9363 29.9976 19.4373 30.2895C16.9383 30.5813 14.4097 30.1046 12.1885 28.9227C9.96742 27.7408 8.15931 25.91 7.00526 23.6742C5.85121 21.4385 5.40605 18.9042 5.72912 16.409C6.05219 13.9138 7.12814 11.5764 8.81353 9.70835C10.4989 7.84028 12.7137 6.53032 15.1626 5.9531C17.6115 5.37588 20.1781 5.55882 22.5204 6.47753C24.8627 7.39625 26.8693 9.00709 28.2727 11.0953L21.1338 10.7529C21.0197 10.7475 20.9057 10.7653 20.7986 10.8052C20.6916 10.8452 20.5938 10.9065 20.5111 10.9854C20.4285 11.0643 20.3627 11.1591 20.3178 11.2642C20.273 11.3693 20.2499 11.4824 20.25 11.5966V14.9302C20.25 15.1539 20.3389 15.3685 20.4971 15.5268C20.6554 15.685 20.87 15.7739 21.0938 15.7739H35.1795C35.4032 15.7739 35.6178 15.685 35.7761 15.5268C35.9343 15.3685 36.0232 15.1539 36.0232 14.9302V0.84375C36.0232 0.619974 35.9343 0.405363 35.7761 0.247129C35.6178 0.0888954 35.4032 5.37597e-07 35.1795 5.37597e-07Z" fill="black"/>
</g>
<defs>
<clipPath id="clip0_440_3916">
<rect width="36" height="36" fill="white"/>
</clipPath>
</defs>
</svg>
