<svg width="124" height="124" viewBox="0 0 124 124" fill="none" xmlns="http://www.w3.org/2000/svg">
<path fill-rule="evenodd" clip-rule="evenodd" d="M77.3447 82.4532V72.2252C79.6458 71.0845 86.2274 63.2503 86.9174 57.1291C88.7276 56.9909 91.5715 55.3289 92.4101 48.7679C92.8601 45.2444 91.0703 43.2654 89.9856 42.6415C89.9856 42.6415 92.6863 37.5123 92.6863 31.3195C92.6863 18.903 87.8126 8.30715 77.3447 8.30715C77.3447 8.30715 73.7085 0.636353 62.0029 0.636353C40.3099 0.636353 31.3198 14.5512 31.3198 31.3195C31.3198 36.9651 34.0199 42.6415 34.0199 42.6415C32.9358 43.2654 31.146 45.2496 31.596 48.7679C32.4346 55.3289 35.2779 56.9909 37.0882 57.1291C37.7786 63.2503 44.3601 71.0845 46.6614 72.2252V82.4532C41.5475 97.7941 0.636719 87.5668 0.636719 123.364H123.369C123.369 87.5668 82.4583 97.7941 77.3447 82.4532Z" fill="#7FCC26"/>
</svg>
