<svg width="21" height="21" viewBox="0 0 21 21" fill="none" xmlns="http://www.w3.org/2000/svg">
<path d="M20.3203 10C20.3203 15.5228 15.8432 20 10.3203 20C4.79746 20 0.320312 15.5228 0.320312 10C0.320312 4.47715 4.79746 0 10.3203 0C15.8432 0 20.3203 4.47715 20.3203 10Z" fill="#3E732A"/>
<path d="M7.95783 12.9629L15.0203 5.90039C15.187 5.73372 15.3814 5.65039 15.6037 5.65039C15.8259 5.65039 16.0203 5.73372 16.187 5.90039C16.3537 6.06706 16.437 6.26511 16.437 6.49456C16.437 6.724 16.3537 6.92178 16.187 7.08789L8.54116 14.7546C8.3745 14.9212 8.18005 15.0046 7.95783 15.0046C7.73561 15.0046 7.54117 14.9212 7.3745 14.7546L3.79117 11.1712C3.6245 11.0046 3.5445 10.8068 3.55117 10.5779C3.55783 10.349 3.64478 10.1509 3.812 9.98372C3.97922 9.8165 4.17728 9.73317 4.40617 9.73372C4.63505 9.73428 4.83283 9.81761 4.9995 9.98372L7.95783 12.9629Z" fill="white"/>
</svg>
