<svg width="630" height="777" viewBox="0 0 630 777" fill="none" xmlns="http://www.w3.org/2000/svg">
<g filter="url(#filter0_d_6177_11817)">
<rect x="106" y="295" width="463" height="351" fill="#DFC533"/>
<rect x="106" y="56" width="463" height="338" fill="#79A9C4"/>
<rect x="106" y="366" width="463" height="133" fill="#926A45"/>
<path d="M150.871 398.015C144.937 387.468 135.69 382.857 168.749 364.453C174.912 361.034 221.474 354.152 230.469 354.849C245.43 356.025 305.255 348.925 318.082 351.277C329.08 353.28 407.177 353.651 421.899 350.297C451.495 343.523 498.297 365.455 505.658 366.196C563.358 375.009 512.714 395.402 506.921 403.351C503.937 407.445 518.986 398.276 521.099 402.414C527.284 414.524 518.834 388.476 496.075 400.629C433.877 433.82 358.176 418.074 261.611 398.015C261.611 398.015 182.883 420.6 172.081 393.071C168.662 384.381 172.081 429 172.081 429L150.871 398.015Z" fill="#6F543B"/>
<path d="M141 392C144.409 383.895 174.136 372.325 184.016 373.209C190.703 373.813 184.233 381.68 217.455 366.829C225.836 363.078 241.253 373.231 249.787 374.007C264.031 375.278 262.077 375.063 274.28 377.434C284.724 379.46 298.925 372.045 310.39 374.308C320.9 376.399 339.573 369.545 349.323 368.079C359.68 366.527 374.12 378.059 388.278 375.364C392.273 374.61 428.448 366.204 445.711 366.204C454.505 366.204 472.571 376.658 479.302 374.61C485.816 372.627 523.831 379.611 528.522 385.819C531.431 389.677 520.036 396.511 522.012 400.499C527.767 412.182 509.506 424.833 487.705 436.301C428.144 467.62 356.228 451.799 264.53 431.623C264.53 431.623 183.488 463.056 173.5 436.5C170.351 428.115 148.5 410 148.5 410L141 392Z" fill="#977252"/>
<path d="M170.797 423.888C166.643 416.089 160.467 395.428 170.166 394.364C177.952 393.495 189.587 391.04 202.57 391.692C211.617 392.148 219.75 389.889 228.188 390.171C242.259 390.627 241.541 397.536 253.633 398.144C267.595 398.839 274.402 397.188 286.102 400.816C300.325 405.205 294.388 410.744 305.001 406.226C312.351 403.097 312.569 402.011 316.288 400.816C330.619 396.21 339.862 406.269 348.365 406.465C356.455 406.66 361.936 401.511 375.332 403.314C379.29 403.858 390.577 396.819 393.73 394.364C398.754 390.432 400.885 390.714 403.778 391.865C406.214 392.821 406.996 392.8 408.432 392.322C411.259 391.388 411.498 389.106 415.26 388.759C417.674 388.542 421.654 384.153 424.873 384.935C429.614 386.087 433.615 385.956 440.118 383.523C446.425 381.155 451.144 387.39 465.084 390.953C479.677 394.69 478.741 392.343 486.984 393.256C498.684 394.538 497.162 390.497 506.317 393.256C510.906 394.646 521.062 399.187 519.91 403.488C514.494 423.562 500.337 435.945 479.524 448.719C460 473 430.834 502 316.288 502C316.288 502 223.83 493.178 212.5 467C201.463 462.541 183.954 448.437 170.84 423.866L170.797 423.888Z" fill="#B58863"/>
<path d="M309.894 403.717C311.316 402.799 312.932 402.052 314.806 401.518C315.862 401.22 316.96 400.985 318.059 400.814C321.118 399.662 324.586 399.491 328.184 400.814L329.541 401.284C331.329 401.454 333.139 401.711 334.97 402.201C337.641 402.884 339.838 404.101 341.605 405.637C342.294 405.637 343.005 405.659 343.802 405.701C348.951 405.915 352.915 406.171 357.74 405.232C358.86 405.018 359.98 404.89 361.101 404.805C366.443 398.125 372.023 393.26 379.261 394.732C403.992 399.769 365.086 365.325 324.112 377.702C308.365 382.461 302.29 394.433 303.065 406C305.263 405.061 307.568 404.271 309.916 403.674L309.894 403.717Z" fill="#E1A038"/>
<path d="M363.861 373.611C364.666 364.833 358.527 348.366 349.166 337.627C346.749 334.839 344.289 333.38 340.392 327.934C331.532 315.562 338.781 294.957 338.999 295C339.086 295 338.259 298.006 338.063 304.127C337.823 311.162 337.649 315.998 339.5 320.768C341.415 325.713 343.723 326.061 351.212 334.426C356.023 339.784 358.832 342.92 361.618 347.734C362.293 348.911 370.98 364.114 370.283 374.526C370.218 375.376 370.044 377.205 370.936 379.209C372.047 381.692 374.006 382.542 377.424 385.178C381.147 388.053 383.084 389.425 382.997 390.122C382.736 392.714 373.113 396.156 367.714 392.213C364.536 389.904 363.621 385.635 363.164 383.5C362.468 380.277 363.796 374.287 363.861 373.611Z" fill="#B58863"/>
<path opacity="0.75" d="M348.89 337.84C350.511 339.744 352.047 341.846 353.455 344.057C358.702 348.785 363.203 354.389 367 361C364.654 354.345 361.497 348.698 361.113 347.997C358.382 343.159 355.609 340.007 350.917 334.622C343.579 326.216 341.297 325.888 339.441 320.897C337.649 316.103 337.798 311.265 338.033 304.172C338.204 298.021 339.014 295 338.929 295C338.716 294.956 331.634 315.665 340.294 328.099C344.112 333.571 346.523 335.038 348.89 337.84Z" fill="#82C341"/>
<path opacity="0.5" d="M339.433 323.42C339.948 323.592 340.484 323.785 341 324C340.246 322.991 339.671 321.918 339.135 320.394C337.468 315.693 337.607 310.949 337.826 303.994C338.004 297.962 338.758 295 338.679 295C338.52 294.979 333.838 309.425 337.23 321.274C337.964 321.982 338.699 322.691 339.433 323.399V323.42Z" fill="#82C341"/>
<path d="M309.113 403.805C310.551 402.883 312.185 402.133 314.08 401.597C315.148 401.297 316.259 401.061 317.37 400.89C320.463 399.733 323.971 399.561 327.609 400.89L328.981 401.361C330.79 401.533 332.62 401.79 334.471 402.283C337.173 402.969 339.395 404.19 341.181 405.734C341.878 405.734 342.597 405.755 343.403 405.798C348.61 406.012 352.618 406.269 357.498 405.326C363.751 404.105 369.938 405.412 375.994 404.405C380.242 403.698 384.556 399.475 388.15 397.054C388.434 396.861 388.717 396.711 389 396.539C388.717 394.675 387.649 393.003 385.645 391.653C359.808 374.25 338.545 378.686 320.42 389.702C313.884 393.667 309.418 398.918 307 404.405C307.719 404.19 308.438 403.976 309.157 403.805H309.113Z" fill="#C26E29"/>
<path d="M370.535 355.621C363.92 362.896 368.618 369.75 368.618 369.75C368.618 369.75 375.506 374.097 381.847 366.578C388.166 359.037 392 343 392 343C392 343 377.128 348.368 370.535 355.621Z" fill="#82C341"/>
<rect x="107" y="38" width="460" height="607" rx="14" stroke="#DFC533" stroke-width="20"/>
<circle cx="167" cy="193" r="22" fill="#EADA4B"/>
<path d="M228 185.403C228 193.358 218.344 199.807 206.432 199.807C194.521 199.807 184.865 193.358 184.865 185.403C184.865 177.449 194.521 171 206.432 171C218.344 171 228 177.449 228 185.403Z" fill="#D3D6D8"/>
<path d="M199.054 195.818C199.054 203.161 191.431 209.114 182.027 209.114C172.623 209.114 165 203.161 165 195.818C165 188.475 172.623 182.523 182.027 182.523C191.431 182.523 199.054 188.475 199.054 195.818Z" fill="#D3D6D8"/>
<path d="M249 196.04C249 203.75 234.643 210 216.932 210C199.222 210 184.865 203.75 184.865 196.04C184.865 188.33 199.222 182.08 216.932 182.08C234.643 182.08 249 188.33 249 196.04Z" fill="#D3D6D8"/>
<path d="M513.5 116.727C513.5 126.518 499.016 134.455 481.149 134.455C463.281 134.455 448.797 126.518 448.797 116.727C448.797 106.937 463.281 99 481.149 99C499.016 99 513.5 106.937 513.5 116.727Z" fill="#D3D6D8"/>
<path d="M470.081 129.545C470.081 138.583 458.646 145.909 444.541 145.909C430.435 145.909 419 138.583 419 129.545C419 120.508 430.435 113.182 444.541 113.182C458.646 113.182 470.081 120.508 470.081 129.545Z" fill="#D3D6D8"/>
<path d="M545 129.818C545 139.307 523.464 147 496.899 147C470.333 147 448.797 139.307 448.797 129.818C448.797 120.329 470.333 112.636 496.899 112.636C523.464 112.636 545 120.329 545 129.818Z" fill="#D3D6D8"/>
<line x1="111" y1="496" x2="571" y2="496" stroke="#DFC533" stroke-width="20"/>
<line x1="111" y1="48" x2="571" y2="48" stroke="#DFC533" stroke-width="20"/>
<path d="M136.928 81.52V86H134.784V81.52L130.568 74.432H132.464C132.651 74.432 132.797 74.4773 132.904 74.568C133.016 74.6587 133.109 74.7733 133.184 74.912L135.296 78.776C135.419 79.0053 135.525 79.2213 135.616 79.424C135.712 79.6267 135.797 79.8293 135.872 80.032C135.941 79.8293 136.021 79.6267 136.112 79.424C136.203 79.2213 136.307 79.0053 136.424 78.776L138.528 74.912C138.587 74.7947 138.675 74.6853 138.792 74.584C138.909 74.4827 139.059 74.432 139.24 74.432H141.144L136.928 81.52ZM148.073 76.536C148.009 76.648 147.94 76.7307 147.865 76.784C147.796 76.832 147.708 76.856 147.601 76.856C147.489 76.856 147.366 76.816 147.233 76.736C147.105 76.6507 146.95 76.5573 146.769 76.456C146.588 76.3547 146.374 76.264 146.129 76.184C145.889 76.0987 145.604 76.056 145.273 76.056C144.974 76.056 144.713 76.0933 144.489 76.168C144.265 76.2373 144.076 76.336 143.921 76.464C143.772 76.592 143.66 76.7467 143.585 76.928C143.51 77.104 143.473 77.2987 143.473 77.512C143.473 77.784 143.548 78.0107 143.697 78.192C143.852 78.3733 144.054 78.528 144.305 78.656C144.556 78.784 144.841 78.8987 145.161 79C145.481 79.1013 145.809 79.2107 146.145 79.328C146.481 79.44 146.809 79.5733 147.129 79.728C147.449 79.8773 147.734 80.0693 147.985 80.304C148.236 80.5333 148.436 80.816 148.585 81.152C148.74 81.488 148.817 81.896 148.817 82.376C148.817 82.8987 148.726 83.3893 148.545 83.848C148.369 84.3013 148.108 84.6987 147.761 85.04C147.42 85.376 147.001 85.6427 146.505 85.84C146.009 86.032 145.441 86.128 144.801 86.128C144.433 86.128 144.07 86.0907 143.713 86.016C143.356 85.9467 143.012 85.8453 142.681 85.712C142.356 85.5787 142.049 85.4187 141.761 85.232C141.473 85.0453 141.217 84.8373 140.993 84.608L141.625 83.576C141.678 83.5013 141.748 83.44 141.833 83.392C141.918 83.3387 142.009 83.312 142.105 83.312C142.238 83.312 142.382 83.368 142.537 83.48C142.692 83.5867 142.876 83.7067 143.089 83.84C143.302 83.9733 143.55 84.096 143.833 84.208C144.121 84.3147 144.465 84.368 144.865 84.368C145.478 84.368 145.953 84.224 146.289 83.936C146.625 83.6427 146.793 83.224 146.793 82.68C146.793 82.376 146.716 82.128 146.561 81.936C146.412 81.744 146.212 81.584 145.961 81.456C145.71 81.3227 145.425 81.2107 145.105 81.12C144.785 81.0293 144.46 80.9307 144.129 80.824C143.798 80.7173 143.473 80.5893 143.153 80.44C142.833 80.2907 142.548 80.096 142.297 79.856C142.046 79.616 141.844 79.3173 141.689 78.96C141.54 78.5973 141.465 78.152 141.465 77.624C141.465 77.2027 141.548 76.792 141.713 76.392C141.884 75.992 142.129 75.6373 142.449 75.328C142.769 75.0187 143.164 74.7707 143.633 74.584C144.102 74.3973 144.641 74.304 145.249 74.304C145.932 74.304 146.561 74.4107 147.137 74.624C147.713 74.8373 148.204 75.136 148.609 75.52L148.073 76.536ZM158.774 76.2H155.286V86H153.134V76.2H149.646V74.432H158.774V76.2ZM162.448 76.144V79.352H166.496V81.008H162.448V84.28H167.584V86H160.288V74.432H167.584V76.144H162.448ZM182.035 74.432V86H180.139V78.528C180.139 78.2293 180.155 77.9067 180.187 77.56L176.691 84.128C176.526 84.4427 176.272 84.6 175.931 84.6H175.627C175.286 84.6 175.032 84.4427 174.867 84.128L171.331 77.536C171.347 77.712 171.36 77.8853 171.371 78.056C171.382 78.2267 171.387 78.384 171.387 78.528V86H169.491V74.432H171.115C171.211 74.432 171.294 74.4347 171.363 74.44C171.432 74.4453 171.494 74.4587 171.547 74.48C171.606 74.5013 171.656 74.536 171.699 74.584C171.747 74.632 171.792 74.696 171.835 74.776L175.299 81.2C175.39 81.3707 175.472 81.5467 175.547 81.728C175.627 81.9093 175.704 82.096 175.779 82.288C175.854 82.0907 175.931 81.9013 176.011 81.72C176.091 81.5333 176.176 81.3547 176.267 81.184L179.683 74.776C179.726 74.696 179.771 74.632 179.819 74.584C179.867 74.536 179.918 74.5013 179.971 74.48C180.03 74.4587 180.094 74.4453 180.163 74.44C180.232 74.4347 180.315 74.432 180.411 74.432H182.035Z" fill="white"/>
<circle cx="530.805" cy="87.3734" r="2.24256" fill="#82C341"/>
<path d="M520 78.6069C524.077 68.5154 537.635 68.4134 541.406 78.6069" stroke="white" stroke-width="2" stroke-linecap="round"/>
<path d="M523.672 81.2569C526.39 74.4955 535.428 74.4271 537.943 81.2569" stroke="white" stroke-width="2" stroke-linecap="round"/>
<path d="M527.543 83.4994C528.786 80.5244 532.917 80.4943 534.067 83.4994" stroke="white" stroke-width="2" stroke-linecap="round"/>
<rect x="464" y="399.426" width="70" height="70" rx="15" fill="#231F20" fill-opacity="0.7"/>
<path d="M514.52 450.394C519.549 457.392 525.907 458.806 520.49 462.699C515.073 466.592 515.983 459.682 510.954 452.683C505.925 445.685 497.846 442.582 503.263 438.689C508.68 434.796 509.49 443.393 514.52 450.391V450.394Z" fill="white"/>
<path opacity="0.3" d="M494.819 440.466C503.777 440.466 511.04 433.203 511.04 424.245C511.04 415.286 503.777 408.023 494.819 408.023C485.86 408.023 478.598 415.286 478.598 424.245C478.598 433.203 485.86 440.466 494.819 440.466Z" fill="white"/>
<path opacity="0.22" d="M512.541 421.709C512.376 421.094 512.206 420.478 512.041 419.86C511.763 418.824 511.486 417.793 511.288 416.74C510.755 416.19 510.292 415.574 509.949 414.873C509.516 414.125 509.239 413.335 509.111 412.504C505.673 408.756 500.739 406.401 495.249 406.401C484.861 406.404 476.434 414.828 476.434 425.22C476.434 425.995 476.481 426.761 476.574 427.514C477.347 428.32 477.952 429.298 478.313 430.356C478.69 431.47 478.913 432.628 479.258 433.752C479.366 433.829 479.464 433.914 479.564 433.997C480.254 433.837 480.902 433.807 481.53 433.872C479.949 431.367 479.028 428.402 479.028 425.222C479.028 416.265 486.289 409.001 495.249 409.001C504.209 409.001 511.385 416.182 511.466 425.07C511.828 425.025 512.189 425.002 512.536 425.004C512.559 425.004 512.581 425.007 512.604 425.007C512.631 424.664 512.669 424.321 512.707 423.976C512.757 423.538 512.672 422.92 512.732 422.445C512.664 422.202 512.604 421.954 512.539 421.712L512.541 421.709Z" fill="black"/>
<path opacity="0.22" d="M506.343 437.05C504.674 438.614 502.675 439.83 500.461 440.58C500.706 440.908 501.327 441.469 501.514 441.834C501.617 442.279 501.682 442.427 501.907 442.84C504.329 441.926 506.248 440.825 508.075 439.059C507.842 438.766 507.552 438.489 507.314 438.308C506.941 438.026 506.769 437.34 506.341 437.05H506.343Z" fill="black"/>
<path d="M494.818 405.426C484.425 405.426 476 413.85 476 424.244C476 434.638 484.425 443.062 494.818 443.062C505.212 443.062 513.637 434.638 513.637 424.244C513.637 413.85 505.21 405.426 494.818 405.426ZM494.818 440.463C485.861 440.463 478.597 433.199 478.597 424.242C478.597 415.284 485.858 408.023 494.818 408.023C503.778 408.023 511.039 415.287 511.039 424.244C511.039 433.202 503.778 440.465 494.818 440.465V440.463Z" fill="white"/>
<path opacity="0.1" d="M504.658 411.069C503.715 410.513 502.712 410.048 501.663 409.683L484.699 438.277C485.38 438.895 486.115 439.453 486.891 439.953L504.658 411.069Z" fill="white"/>
<path opacity="0.1" d="M506.225 412.871C506.08 412.756 505.935 412.638 505.787 412.525L488.953 440.096C489.171 440.204 489.393 440.304 489.619 440.401L506.225 412.871Z" fill="white"/>
</g>
<path d="M83.0157 90.2433C85.5573 102.427 93.3725 101.936 93.3725 101.936C93.3725 101.936 100.26 97.3231 97.3578 85.2644C94.4553 73.2057 83.522 58.1035 83.522 58.1035C83.522 58.1035 80.4692 78.0593 83.0107 90.2433H83.0157Z" fill="#82C341"/>
<path d="M157.269 18.9434C151.224 25.6471 155.846 31.684 155.846 31.684C155.846 31.684 162.478 35.3943 168.248 28.455C174.018 21.5055 177.211 7 177.211 7C177.211 7 163.315 12.2346 157.269 18.9434Z" fill="#82C341"/>
<path d="M98.0805 141.667C98.0805 141.667 84.1896 132.11 85.8439 103.5C86.9969 83.5394 120.629 34.9285 169.34 21.9472C204.02 12.7064 224.638 27.583 224.638 27.583H222.066C222.066 27.583 209.348 22.0575 187.712 24.6648C159.67 28.0493 94.9775 69.2494 98.0805 111.653C100.131 139.631 98.0805 141.667 98.0805 141.667Z" fill="#60933F"/>
<path d="M136.368 47.007C127.485 48.085 127.445 52.9938 127.445 52.9938C127.445 52.9938 130.418 57.4963 139.231 56.1927C148.044 54.884 159.448 48.6867 159.448 48.6867C159.448 48.6867 145.256 45.934 136.373 47.012L136.368 47.007Z" fill="#82C341"/>
<defs>
<filter id="filter0_d_6177_11817" x="0" y="0" width="630" height="777" filterUnits="userSpaceOnUse" color-interpolation-filters="sRGB">
<feFlood flood-opacity="0" result="BackgroundImageFix"/>
<feColorMatrix in="SourceAlpha" type="matrix" values="0 0 0 0 0 0 0 0 0 0 0 0 0 0 0 0 0 0 127 0" result="hardAlpha"/>
<feOffset dx="-22" dy="47"/>
<feGaussianBlur stdDeviation="37.5"/>
<feComposite in2="hardAlpha" operator="out"/>
<feColorMatrix type="matrix" values="0 0 0 0 0 0 0 0 0 0 0 0 0 0 0 0 0 0 0.25 0"/>
<feBlend mode="normal" in2="BackgroundImageFix" result="effect1_dropShadow_6177_11817"/>
<feBlend mode="normal" in="SourceGraphic" in2="effect1_dropShadow_6177_11817" result="shape"/>
</filter>
</defs>
</svg>
