<svg width="102" height="551" viewBox="0 0 102 551" fill="none" xmlns="http://www.w3.org/2000/svg">
<g clip-path="url(#clip0_6187_11629)">
<g clip-path="url(#clip1_6187_11629)">
<path d="M29.435 14.8481C9.19786 31.8143 8.60963 61.7495 14.7973 80.3056C24.4011 109.116 28.3377 115.192 39.6836 153.69C45.4414 173.245 50.1585 190.075 45.0794 214.105C39.8307 238.975 30.0345 246.777 15.9737 275.679C4.28846 299.686 -3.27924 323.33 1.41522 350.221C2.81791 358.25 5.62327 383.768 25.4418 402.279C46.6405 422.072 71.1874 419.608 84.0039 432.157C96.8204 444.706 96.8543 479.66 85.9609 487.326C80.5651 491.13 74.1851 490.119 49.5816 487.076C35.7923 485.372 31.6182 490.301 29.616 493.753C26.8785 498.5 28.1567 505.961 32.2743 509.788C39.7175 516.693 53.1562 508.38 53.1222 508.005C53.043 506.915 51.9797 507.88 50.9051 507.824C44.5025 507.506 47.4323 512.571 39.1859 510.788C37.1384 510.345 32.8625 507.88 32.1272 502.293C31.6634 498.739 33.6996 492.788 37.6474 491.573C49.0952 488.064 68.269 494.185 74.6263 494.344C81.9904 494.525 84.8862 494.809 90.6893 490.778C100.338 484.066 102.114 468.894 101.979 457.777C101.854 447.715 102.307 427.728 81.2098 416.235C71.9453 411.193 51.2784 405.731 41.4709 396.373C37.0253 392.137 34.2652 391.013 23.8129 372.9C14.2882 356.399 16.0416 339.274 16.1208 330.155C16.2791 310.463 20.8039 296.177 29.2087 278.166C41.6066 251.626 46.7536 251.229 53.7444 233.013C63.7668 206.917 63.122 184.363 60.4524 171.939C56.5158 153.61 56.1764 152.27 42.0704 101.701C32.9756 69.0856 33.1905 64.1683 34.0842 58.9444C39.6836 26.4542 74.5 6.5 80 3.52564C76.5272 -4.48032 44.8305 1.93598 29.4237 14.8481H29.435Z" fill="#5F9340"/>
<path d="M29.435 14.8481C9.19786 31.8143 8.60963 61.7495 14.7973 80.3056C24.4011 109.116 28.3377 115.192 39.6836 153.69C45.4414 173.245 50.1585 190.075 45.0794 214.105C39.8307 238.975 30.0345 246.777 15.9737 275.679C4.28846 299.686 -3.27924 323.33 1.41522 350.221C2.81791 358.25 5.62327 383.768 25.4418 402.279C46.6405 422.072 71.1874 419.608 84.0039 432.157C96.8204 444.706 96.8543 479.66 85.9609 487.326C80.5651 491.13 74.1851 490.119 49.5816 487.076C35.7923 485.372 31.6182 490.301 29.616 493.753C26.8785 498.5 28.1567 505.961 32.2743 509.788C39.7175 516.693 53.1562 508.38 53.1222 508.005C53.043 506.915 51.9797 507.88 50.9051 507.824C44.5025 507.506 47.4323 512.571 39.1859 510.788C37.1384 510.345 32.8625 507.88 32.1272 502.293C31.6634 498.739 33.6996 492.788 37.6474 491.573C49.0952 488.064 68.269 494.185 74.6263 494.344C81.9904 494.525 84.8862 494.809 90.6893 490.778C100.338 484.066 102.114 468.894 101.979 457.777C101.854 447.715 102.307 427.728 81.2098 416.235C71.9453 411.193 51.2784 405.731 41.4709 396.373C37.0253 392.137 34.2652 391.013 23.8129 372.9C14.2882 356.399 16.0416 339.274 16.1208 330.155C16.2791 310.463 20.8039 296.177 29.2087 278.166C41.6066 251.626 46.7536 251.229 53.7444 233.013C63.7668 206.917 63.122 184.363 60.4524 171.939C56.5158 153.61 56.1764 152.27 42.0704 101.701C32.9756 69.0856 33.1905 64.1683 34.0842 58.9444C39.6836 26.4542 74.5 6.5 80 3.52564C76.5272 -4.48032 44.8305 1.93598 29.4237 14.8481H29.435Z" fill="url(#paint0_linear_6187_11629)" fill-opacity="0.25"/>
<path d="M73.1843 153.542C62.4301 148.499 56.6012 156.611 56.6012 156.611C56.6012 156.611 54.4634 166.373 65.4028 170.986C76.3514 175.598 95.828 174.073 95.828 174.073C95.828 174.073 83.9293 158.586 73.1751 153.542L73.1843 153.542Z" fill="#81C341"/>
<path d="M56.6097 156.778L88.5078 171.009" stroke="black" stroke-opacity="0.3"/>
<path d="M56.6097 156.778L88.5078 171.009" stroke="black" stroke-opacity="0.3"/>
<path d="M58.0714 157.393L64.707 166.198" stroke="black" stroke-opacity="0.3"/>
<path d="M67.6128 161.734L75.7341 160.835" stroke="black" stroke-opacity="0.3"/>
<path d="M75.3075 165.131L80.6914 171.174" stroke="black" stroke-opacity="0.3"/>
<path d="M83.0069 168.531L86.9023 168.271" stroke="black" stroke-opacity="0.3"/>
<g style="mix-blend-mode:multiply">
<path d="M73.1843 153.542C62.4301 148.499 56.6012 156.611 56.6012 156.611C56.6012 156.611 54.4634 166.373 65.4028 170.986C76.3514 175.598 95.828 174.073 95.828 174.073C95.828 174.073 83.9293 158.586 73.1751 153.542L73.1843 153.542Z" fill="#81C341" fill-opacity="0.25"/>
</g>
</g>
</g>
<g opacity="0.9">
<g filter="url(#filter0_if_6187_11629)">
<ellipse cx="28.2823" cy="504.391" rx="2.28415" ry="5.74167" transform="rotate(-180 28.2823 504.391)" fill="#E8E06E"/>
</g>
<g filter="url(#filter1_if_6187_11629)">
<ellipse cx="34.083" cy="538.4" rx="2.10844" ry="5.3" transform="rotate(-180 34.083 538.4)" fill="#E8E06E"/>
</g>
<g filter="url(#filter2_if_6187_11629)">
<ellipse cx="36.1887" cy="519.85" rx="2.81126" ry="7.06667" transform="rotate(-180 36.1887 519.85)" fill="#E8E06E"/>
</g>
<g filter="url(#filter3_if_6187_11629)">
<ellipse cx="31.97" cy="503.949" rx="2.81126" ry="7.06667" transform="rotate(-180 31.97 503.949)" fill="#E8E06E"/>
</g>
<g filter="url(#filter4_if_6187_11629)">
<ellipse cx="35.8372" cy="503.066" rx="2.81126" ry="7.06667" transform="rotate(-180 35.8372 503.066)" fill="#E8E06E"/>
</g>
<g filter="url(#filter5_if_6187_11629)">
<ellipse cx="36.1887" cy="511.9" rx="2.81126" ry="7.06667" transform="rotate(-180 36.1887 511.9)" fill="#E8E06E"/>
</g>
<g filter="url(#filter6_if_6187_11629)">
<ellipse cx="31.0951" cy="509.692" rx="2.98696" ry="7.50833" transform="rotate(-180 31.0951 509.692)" fill="#E8E06E"/>
</g>
<g filter="url(#filter7_if_6187_11629)">
<ellipse cx="33.5518" cy="516.758" rx="2.28415" ry="5.74167" transform="rotate(-180 33.5518 516.758)" fill="#E8E06E"/>
</g>
<g filter="url(#filter8_if_6187_11629)">
<ellipse cx="30.2158" cy="518.966" rx="2.10844" ry="5.3" transform="rotate(-180 30.2158 518.966)" fill="#E8E06E"/>
</g>
<g filter="url(#filter9_if_6187_11629)">
<ellipse cx="33.3759" cy="532.216" rx="2.10844" ry="5.3" transform="rotate(-180 33.3759 532.216)" fill="#E8E06E"/>
</g>
<g filter="url(#filter10_if_6187_11629)">
<ellipse cx="28.8095" cy="511.9" rx="2.10844" ry="7.06667" transform="rotate(-180 28.8095 511.9)" fill="#E8E06E"/>
</g>
<g filter="url(#filter11_if_6187_11629)">
<ellipse cx="35.4852" cy="533.099" rx="1.75704" ry="4.41667" transform="rotate(-180 35.4852 533.099)" fill="#E8E06E"/>
</g>
<g filter="url(#filter12_if_6187_11629)">
<ellipse cx="31.9736" cy="542.817" rx="2.10844" ry="5.3" transform="rotate(-180 31.9736 542.817)" fill="#E8E06E"/>
</g>
<g filter="url(#filter13_if_6187_11629)">
<ellipse cx="33.7272" cy="545.467" rx="1.40563" ry="3.53333" transform="rotate(-180 33.7272 545.467)" fill="#E8E06E"/>
</g>
<g filter="url(#filter14_if_6187_11629)">
<ellipse cx="28.4577" cy="520.292" rx="1.40563" ry="4.85833" transform="rotate(-180 28.4577 520.292)" fill="#E8E06E"/>
</g>
<g filter="url(#filter15_if_6187_11629)">
<ellipse cx="35.8369" cy="526.917" rx="2.10844" ry="5.3" transform="rotate(-180 35.8369 526.917)" fill="#E8E06E"/>
</g>
<g filter="url(#filter16_if_6187_11629)">
<ellipse cx="32.3252" cy="525.15" rx="2.10844" ry="5.3" transform="rotate(-180 32.3252 525.15)" fill="#E8E06E"/>
</g>
<g filter="url(#filter17_if_6187_11629)">
<ellipse cx="30.2158" cy="527.8" rx="2.10844" ry="5.3" transform="rotate(-180 30.2158 527.8)" fill="#E8E06E"/>
</g>
<g filter="url(#filter18_if_6187_11629)">
<ellipse cx="30.5673" cy="535.75" rx="2.10844" ry="5.3" transform="rotate(-180 30.5673 535.75)" fill="#E8E06E"/>
</g>
</g>
<defs>
<filter id="filter0_if_6187_11629" x="24" y="496.649" width="8.56641" height="17.4834" filterUnits="userSpaceOnUse" color-interpolation-filters="sRGB">
<feFlood flood-opacity="0" result="BackgroundImageFix"/>
<feBlend mode="normal" in="SourceGraphic" in2="BackgroundImageFix" result="shape"/>
<feColorMatrix in="SourceAlpha" type="matrix" values="0 0 0 0 0 0 0 0 0 0 0 0 0 0 0 0 0 0 127 0" result="hardAlpha"/>
<feOffset dy="4"/>
<feGaussianBlur stdDeviation="2"/>
<feComposite in2="hardAlpha" operator="arithmetic" k2="-1" k3="1"/>
<feColorMatrix type="matrix" values="0 0 0 0 0 0 0 0 0 0 0 0 0 0 0 0 0 0 0.25 0"/>
<feBlend mode="normal" in2="shape" result="effect1_innerShadow_6187_11629"/>
<feGaussianBlur stdDeviation="1" result="effect2_foregroundBlur_6187_11629"/>
</filter>
<filter id="filter1_if_6187_11629" x="29.9727" y="531.101" width="8.21875" height="16.5996" filterUnits="userSpaceOnUse" color-interpolation-filters="sRGB">
<feFlood flood-opacity="0" result="BackgroundImageFix"/>
<feBlend mode="normal" in="SourceGraphic" in2="BackgroundImageFix" result="shape"/>
<feColorMatrix in="SourceAlpha" type="matrix" values="0 0 0 0 0 0 0 0 0 0 0 0 0 0 0 0 0 0 127 0" result="hardAlpha"/>
<feOffset dy="4"/>
<feGaussianBlur stdDeviation="2"/>
<feComposite in2="hardAlpha" operator="arithmetic" k2="-1" k3="1"/>
<feColorMatrix type="matrix" values="0 0 0 0 0 0 0 0 0 0 0 0 0 0 0 0 0 0 0.25 0"/>
<feBlend mode="normal" in2="shape" result="effect1_innerShadow_6187_11629"/>
<feGaussianBlur stdDeviation="1" result="effect2_foregroundBlur_6187_11629"/>
</filter>
<filter id="filter2_if_6187_11629" x="31.3789" y="510.783" width="9.62109" height="20.1338" filterUnits="userSpaceOnUse" color-interpolation-filters="sRGB">
<feFlood flood-opacity="0" result="BackgroundImageFix"/>
<feBlend mode="normal" in="SourceGraphic" in2="BackgroundImageFix" result="shape"/>
<feColorMatrix in="SourceAlpha" type="matrix" values="0 0 0 0 0 0 0 0 0 0 0 0 0 0 0 0 0 0 127 0" result="hardAlpha"/>
<feOffset dy="4"/>
<feGaussianBlur stdDeviation="2"/>
<feComposite in2="hardAlpha" operator="arithmetic" k2="-1" k3="1"/>
<feColorMatrix type="matrix" values="0 0 0 0 0 0 0 0 0 0 0 0 0 0 0 0 0 0 0.25 0"/>
<feBlend mode="normal" in2="shape" result="effect1_innerShadow_6187_11629"/>
<feGaussianBlur stdDeviation="1" result="effect2_foregroundBlur_6187_11629"/>
</filter>
<filter id="filter3_if_6187_11629" x="27.1602" y="494.882" width="9.62109" height="20.1338" filterUnits="userSpaceOnUse" color-interpolation-filters="sRGB">
<feFlood flood-opacity="0" result="BackgroundImageFix"/>
<feBlend mode="normal" in="SourceGraphic" in2="BackgroundImageFix" result="shape"/>
<feColorMatrix in="SourceAlpha" type="matrix" values="0 0 0 0 0 0 0 0 0 0 0 0 0 0 0 0 0 0 127 0" result="hardAlpha"/>
<feOffset dy="4"/>
<feGaussianBlur stdDeviation="2"/>
<feComposite in2="hardAlpha" operator="arithmetic" k2="-1" k3="1"/>
<feColorMatrix type="matrix" values="0 0 0 0 0 0 0 0 0 0 0 0 0 0 0 0 0 0 0.25 0"/>
<feBlend mode="normal" in2="shape" result="effect1_innerShadow_6187_11629"/>
<feGaussianBlur stdDeviation="1" result="effect2_foregroundBlur_6187_11629"/>
</filter>
<filter id="filter4_if_6187_11629" x="31.0273" y="493.999" width="9.62109" height="20.1338" filterUnits="userSpaceOnUse" color-interpolation-filters="sRGB">
<feFlood flood-opacity="0" result="BackgroundImageFix"/>
<feBlend mode="normal" in="SourceGraphic" in2="BackgroundImageFix" result="shape"/>
<feColorMatrix in="SourceAlpha" type="matrix" values="0 0 0 0 0 0 0 0 0 0 0 0 0 0 0 0 0 0 127 0" result="hardAlpha"/>
<feOffset dy="4"/>
<feGaussianBlur stdDeviation="2"/>
<feComposite in2="hardAlpha" operator="arithmetic" k2="-1" k3="1"/>
<feColorMatrix type="matrix" values="0 0 0 0 0 0 0 0 0 0 0 0 0 0 0 0 0 0 0.25 0"/>
<feBlend mode="normal" in2="shape" result="effect1_innerShadow_6187_11629"/>
<feGaussianBlur stdDeviation="1" result="effect2_foregroundBlur_6187_11629"/>
</filter>
<filter id="filter5_if_6187_11629" x="31.3789" y="502.833" width="9.62109" height="20.1338" filterUnits="userSpaceOnUse" color-interpolation-filters="sRGB">
<feFlood flood-opacity="0" result="BackgroundImageFix"/>
<feBlend mode="normal" in="SourceGraphic" in2="BackgroundImageFix" result="shape"/>
<feColorMatrix in="SourceAlpha" type="matrix" values="0 0 0 0 0 0 0 0 0 0 0 0 0 0 0 0 0 0 127 0" result="hardAlpha"/>
<feOffset dy="4"/>
<feGaussianBlur stdDeviation="2"/>
<feComposite in2="hardAlpha" operator="arithmetic" k2="-1" k3="1"/>
<feColorMatrix type="matrix" values="0 0 0 0 0 0 0 0 0 0 0 0 0 0 0 0 0 0 0.25 0"/>
<feBlend mode="normal" in2="shape" result="effect1_innerShadow_6187_11629"/>
<feGaussianBlur stdDeviation="1" result="effect2_foregroundBlur_6187_11629"/>
</filter>
<filter id="filter6_if_6187_11629" x="26.1094" y="500.184" width="9.97266" height="21.0166" filterUnits="userSpaceOnUse" color-interpolation-filters="sRGB">
<feFlood flood-opacity="0" result="BackgroundImageFix"/>
<feBlend mode="normal" in="SourceGraphic" in2="BackgroundImageFix" result="shape"/>
<feColorMatrix in="SourceAlpha" type="matrix" values="0 0 0 0 0 0 0 0 0 0 0 0 0 0 0 0 0 0 127 0" result="hardAlpha"/>
<feOffset dy="4"/>
<feGaussianBlur stdDeviation="2"/>
<feComposite in2="hardAlpha" operator="arithmetic" k2="-1" k3="1"/>
<feColorMatrix type="matrix" values="0 0 0 0 0 0 0 0 0 0 0 0 0 0 0 0 0 0 0.25 0"/>
<feBlend mode="normal" in2="shape" result="effect1_innerShadow_6187_11629"/>
<feGaussianBlur stdDeviation="1" result="effect2_foregroundBlur_6187_11629"/>
</filter>
<filter id="filter7_if_6187_11629" x="29.2695" y="509.017" width="8.56641" height="17.4834" filterUnits="userSpaceOnUse" color-interpolation-filters="sRGB">
<feFlood flood-opacity="0" result="BackgroundImageFix"/>
<feBlend mode="normal" in="SourceGraphic" in2="BackgroundImageFix" result="shape"/>
<feColorMatrix in="SourceAlpha" type="matrix" values="0 0 0 0 0 0 0 0 0 0 0 0 0 0 0 0 0 0 127 0" result="hardAlpha"/>
<feOffset dy="4"/>
<feGaussianBlur stdDeviation="2"/>
<feComposite in2="hardAlpha" operator="arithmetic" k2="-1" k3="1"/>
<feColorMatrix type="matrix" values="0 0 0 0 0 0 0 0 0 0 0 0 0 0 0 0 0 0 0.25 0"/>
<feBlend mode="normal" in2="shape" result="effect1_innerShadow_6187_11629"/>
<feGaussianBlur stdDeviation="1" result="effect2_foregroundBlur_6187_11629"/>
</filter>
<filter id="filter8_if_6187_11629" x="26.1055" y="511.666" width="8.21875" height="16.5996" filterUnits="userSpaceOnUse" color-interpolation-filters="sRGB">
<feFlood flood-opacity="0" result="BackgroundImageFix"/>
<feBlend mode="normal" in="SourceGraphic" in2="BackgroundImageFix" result="shape"/>
<feColorMatrix in="SourceAlpha" type="matrix" values="0 0 0 0 0 0 0 0 0 0 0 0 0 0 0 0 0 0 127 0" result="hardAlpha"/>
<feOffset dy="4"/>
<feGaussianBlur stdDeviation="2"/>
<feComposite in2="hardAlpha" operator="arithmetic" k2="-1" k3="1"/>
<feColorMatrix type="matrix" values="0 0 0 0 0 0 0 0 0 0 0 0 0 0 0 0 0 0 0.25 0"/>
<feBlend mode="normal" in2="shape" result="effect1_innerShadow_6187_11629"/>
<feGaussianBlur stdDeviation="1" result="effect2_foregroundBlur_6187_11629"/>
</filter>
<filter id="filter9_if_6187_11629" x="29.2656" y="524.916" width="8.21875" height="16.5996" filterUnits="userSpaceOnUse" color-interpolation-filters="sRGB">
<feFlood flood-opacity="0" result="BackgroundImageFix"/>
<feBlend mode="normal" in="SourceGraphic" in2="BackgroundImageFix" result="shape"/>
<feColorMatrix in="SourceAlpha" type="matrix" values="0 0 0 0 0 0 0 0 0 0 0 0 0 0 0 0 0 0 127 0" result="hardAlpha"/>
<feOffset dy="4"/>
<feGaussianBlur stdDeviation="2"/>
<feComposite in2="hardAlpha" operator="arithmetic" k2="-1" k3="1"/>
<feColorMatrix type="matrix" values="0 0 0 0 0 0 0 0 0 0 0 0 0 0 0 0 0 0 0.25 0"/>
<feBlend mode="normal" in2="shape" result="effect1_innerShadow_6187_11629"/>
<feGaussianBlur stdDeviation="1" result="effect2_foregroundBlur_6187_11629"/>
</filter>
<filter id="filter10_if_6187_11629" x="24.6992" y="502.833" width="8.21875" height="20.1338" filterUnits="userSpaceOnUse" color-interpolation-filters="sRGB">
<feFlood flood-opacity="0" result="BackgroundImageFix"/>
<feBlend mode="normal" in="SourceGraphic" in2="BackgroundImageFix" result="shape"/>
<feColorMatrix in="SourceAlpha" type="matrix" values="0 0 0 0 0 0 0 0 0 0 0 0 0 0 0 0 0 0 127 0" result="hardAlpha"/>
<feOffset dy="4"/>
<feGaussianBlur stdDeviation="2"/>
<feComposite in2="hardAlpha" operator="arithmetic" k2="-1" k3="1"/>
<feColorMatrix type="matrix" values="0 0 0 0 0 0 0 0 0 0 0 0 0 0 0 0 0 0 0.25 0"/>
<feBlend mode="normal" in2="shape" result="effect1_innerShadow_6187_11629"/>
<feGaussianBlur stdDeviation="1" result="effect2_foregroundBlur_6187_11629"/>
</filter>
<filter id="filter11_if_6187_11629" x="31.7266" y="526.683" width="7.51562" height="14.833" filterUnits="userSpaceOnUse" color-interpolation-filters="sRGB">
<feFlood flood-opacity="0" result="BackgroundImageFix"/>
<feBlend mode="normal" in="SourceGraphic" in2="BackgroundImageFix" result="shape"/>
<feColorMatrix in="SourceAlpha" type="matrix" values="0 0 0 0 0 0 0 0 0 0 0 0 0 0 0 0 0 0 127 0" result="hardAlpha"/>
<feOffset dy="4"/>
<feGaussianBlur stdDeviation="2"/>
<feComposite in2="hardAlpha" operator="arithmetic" k2="-1" k3="1"/>
<feColorMatrix type="matrix" values="0 0 0 0 0 0 0 0 0 0 0 0 0 0 0 0 0 0 0.25 0"/>
<feBlend mode="normal" in2="shape" result="effect1_innerShadow_6187_11629"/>
<feGaussianBlur stdDeviation="1" result="effect2_foregroundBlur_6187_11629"/>
</filter>
<filter id="filter12_if_6187_11629" x="27.8633" y="535.518" width="8.21875" height="16.5996" filterUnits="userSpaceOnUse" color-interpolation-filters="sRGB">
<feFlood flood-opacity="0" result="BackgroundImageFix"/>
<feBlend mode="normal" in="SourceGraphic" in2="BackgroundImageFix" result="shape"/>
<feColorMatrix in="SourceAlpha" type="matrix" values="0 0 0 0 0 0 0 0 0 0 0 0 0 0 0 0 0 0 127 0" result="hardAlpha"/>
<feOffset dy="4"/>
<feGaussianBlur stdDeviation="2"/>
<feComposite in2="hardAlpha" operator="arithmetic" k2="-1" k3="1"/>
<feColorMatrix type="matrix" values="0 0 0 0 0 0 0 0 0 0 0 0 0 0 0 0 0 0 0.25 0"/>
<feBlend mode="normal" in2="shape" result="effect1_innerShadow_6187_11629"/>
<feGaussianBlur stdDeviation="1" result="effect2_foregroundBlur_6187_11629"/>
</filter>
<filter id="filter13_if_6187_11629" x="30.3203" y="539.934" width="6.8125" height="13.0664" filterUnits="userSpaceOnUse" color-interpolation-filters="sRGB">
<feFlood flood-opacity="0" result="BackgroundImageFix"/>
<feBlend mode="normal" in="SourceGraphic" in2="BackgroundImageFix" result="shape"/>
<feColorMatrix in="SourceAlpha" type="matrix" values="0 0 0 0 0 0 0 0 0 0 0 0 0 0 0 0 0 0 127 0" result="hardAlpha"/>
<feOffset dy="4"/>
<feGaussianBlur stdDeviation="2"/>
<feComposite in2="hardAlpha" operator="arithmetic" k2="-1" k3="1"/>
<feColorMatrix type="matrix" values="0 0 0 0 0 0 0 0 0 0 0 0 0 0 0 0 0 0 0.25 0"/>
<feBlend mode="normal" in2="shape" result="effect1_innerShadow_6187_11629"/>
<feGaussianBlur stdDeviation="1" result="effect2_foregroundBlur_6187_11629"/>
</filter>
<filter id="filter14_if_6187_11629" x="25.0508" y="513.434" width="6.8125" height="15.7168" filterUnits="userSpaceOnUse" color-interpolation-filters="sRGB">
<feFlood flood-opacity="0" result="BackgroundImageFix"/>
<feBlend mode="normal" in="SourceGraphic" in2="BackgroundImageFix" result="shape"/>
<feColorMatrix in="SourceAlpha" type="matrix" values="0 0 0 0 0 0 0 0 0 0 0 0 0 0 0 0 0 0 127 0" result="hardAlpha"/>
<feOffset dy="4"/>
<feGaussianBlur stdDeviation="2"/>
<feComposite in2="hardAlpha" operator="arithmetic" k2="-1" k3="1"/>
<feColorMatrix type="matrix" values="0 0 0 0 0 0 0 0 0 0 0 0 0 0 0 0 0 0 0.25 0"/>
<feBlend mode="normal" in2="shape" result="effect1_innerShadow_6187_11629"/>
<feGaussianBlur stdDeviation="1" result="effect2_foregroundBlur_6187_11629"/>
</filter>
<filter id="filter15_if_6187_11629" x="31.7266" y="519.617" width="8.21875" height="16.5996" filterUnits="userSpaceOnUse" color-interpolation-filters="sRGB">
<feFlood flood-opacity="0" result="BackgroundImageFix"/>
<feBlend mode="normal" in="SourceGraphic" in2="BackgroundImageFix" result="shape"/>
<feColorMatrix in="SourceAlpha" type="matrix" values="0 0 0 0 0 0 0 0 0 0 0 0 0 0 0 0 0 0 127 0" result="hardAlpha"/>
<feOffset dy="4"/>
<feGaussianBlur stdDeviation="2"/>
<feComposite in2="hardAlpha" operator="arithmetic" k2="-1" k3="1"/>
<feColorMatrix type="matrix" values="0 0 0 0 0 0 0 0 0 0 0 0 0 0 0 0 0 0 0.25 0"/>
<feBlend mode="normal" in2="shape" result="effect1_innerShadow_6187_11629"/>
<feGaussianBlur stdDeviation="1" result="effect2_foregroundBlur_6187_11629"/>
</filter>
<filter id="filter16_if_6187_11629" x="28.2148" y="517.851" width="8.21875" height="16.5996" filterUnits="userSpaceOnUse" color-interpolation-filters="sRGB">
<feFlood flood-opacity="0" result="BackgroundImageFix"/>
<feBlend mode="normal" in="SourceGraphic" in2="BackgroundImageFix" result="shape"/>
<feColorMatrix in="SourceAlpha" type="matrix" values="0 0 0 0 0 0 0 0 0 0 0 0 0 0 0 0 0 0 127 0" result="hardAlpha"/>
<feOffset dy="4"/>
<feGaussianBlur stdDeviation="2"/>
<feComposite in2="hardAlpha" operator="arithmetic" k2="-1" k3="1"/>
<feColorMatrix type="matrix" values="0 0 0 0 0 0 0 0 0 0 0 0 0 0 0 0 0 0 0.25 0"/>
<feBlend mode="normal" in2="shape" result="effect1_innerShadow_6187_11629"/>
<feGaussianBlur stdDeviation="1" result="effect2_foregroundBlur_6187_11629"/>
</filter>
<filter id="filter17_if_6187_11629" x="26.1055" y="520.5" width="8.21875" height="16.5996" filterUnits="userSpaceOnUse" color-interpolation-filters="sRGB">
<feFlood flood-opacity="0" result="BackgroundImageFix"/>
<feBlend mode="normal" in="SourceGraphic" in2="BackgroundImageFix" result="shape"/>
<feColorMatrix in="SourceAlpha" type="matrix" values="0 0 0 0 0 0 0 0 0 0 0 0 0 0 0 0 0 0 127 0" result="hardAlpha"/>
<feOffset dy="4"/>
<feGaussianBlur stdDeviation="2"/>
<feComposite in2="hardAlpha" operator="arithmetic" k2="-1" k3="1"/>
<feColorMatrix type="matrix" values="0 0 0 0 0 0 0 0 0 0 0 0 0 0 0 0 0 0 0.25 0"/>
<feBlend mode="normal" in2="shape" result="effect1_innerShadow_6187_11629"/>
<feGaussianBlur stdDeviation="1" result="effect2_foregroundBlur_6187_11629"/>
</filter>
<filter id="filter18_if_6187_11629" x="26.457" y="528.45" width="8.21875" height="16.5996" filterUnits="userSpaceOnUse" color-interpolation-filters="sRGB">
<feFlood flood-opacity="0" result="BackgroundImageFix"/>
<feBlend mode="normal" in="SourceGraphic" in2="BackgroundImageFix" result="shape"/>
<feColorMatrix in="SourceAlpha" type="matrix" values="0 0 0 0 0 0 0 0 0 0 0 0 0 0 0 0 0 0 127 0" result="hardAlpha"/>
<feOffset dy="4"/>
<feGaussianBlur stdDeviation="2"/>
<feComposite in2="hardAlpha" operator="arithmetic" k2="-1" k3="1"/>
<feColorMatrix type="matrix" values="0 0 0 0 0 0 0 0 0 0 0 0 0 0 0 0 0 0 0.25 0"/>
<feBlend mode="normal" in2="shape" result="effect1_innerShadow_6187_11629"/>
<feGaussianBlur stdDeviation="1" result="effect2_foregroundBlur_6187_11629"/>
</filter>
<linearGradient id="paint0_linear_6187_11629" x1="-230" y1="-52.4746" x2="-248.729" y2="-7.94017" gradientUnits="userSpaceOnUse">
<stop stop-color="#DBFF00"/>
<stop offset="1" stop-color="#157E0B"/>
</linearGradient>
<clipPath id="clip0_6187_11629">
<rect width="102" height="508" fill="white"/>
</clipPath>
<clipPath id="clip1_6187_11629">
<rect width="102" height="508" fill="white"/>
</clipPath>
</defs>
</svg>
