<svg width="401" height="430" viewBox="0 0 401 430" fill="none" xmlns="http://www.w3.org/2000/svg">
<g clip-path="url(#clip0_4287_16646)">
<path d="M352.611 193.72C342.714 272.271 284.941 373.134 251.878 368.967C218.801 364.8 270.364 258.267 280.274 179.715C290.171 101.164 288.197 41.2809 321.26 45.4351C354.337 49.6024 362.521 115.155 352.624 193.706L352.611 193.72Z" fill="#367E96"/>
<path d="M298.854 218.083C290.369 285.347 254.194 353.787 240.31 330.468C209.756 279.089 208.109 265.164 216.581 197.899C225.066 130.635 215.757 78.407 270.876 85.3438C325.995 92.2805 307.326 150.831 298.854 218.096L298.854 218.083Z" fill="#367E96"/>
<path d="M352.611 193.72C342.714 272.271 284.941 373.134 251.878 368.967C218.801 364.8 270.364 258.267 280.274 179.715C290.171 101.164 288.197 41.2809 321.26 45.4351C354.337 49.6024 362.521 115.155 352.624 193.706L352.611 193.72Z" fill="#367E96"/>
<path d="M273.267 93.4305C302.329 93.4305 325.889 72.5154 325.889 46.7153C325.889 20.9151 302.329 -4.42755e-07 273.267 -2.85228e-07C244.204 -1.27701e-07 220.645 20.9151 220.645 46.7153C220.645 72.5154 244.204 93.4305 273.267 93.4305Z" fill="#367E96"/>
<path d="M224.516 172.543C251.976 172.543 274.236 135.299 274.236 89.3547C274.236 43.4109 251.976 6.16602 224.516 6.16602C197.057 6.16602 174.797 43.4109 174.797 89.3547C174.797 135.299 197.057 172.543 224.516 172.543Z" fill="#367E96"/>
<path d="M184.42 269.984C155.88 276.83 140.479 313.316 179.243 333.604C179.243 333.604 202.958 333.107 217.47 331.631C217.47 331.631 221.406 331.84 218.242 336.138C209.378 348.143 208.829 350.39 220.713 346.955C227.446 345.008 228.544 324.394 228.544 324.394C228.544 324.394 181.583 334.753 168.234 317.026C158.298 303.832 166.822 285.634 190.97 279.037C190.97 279.037 208.018 264.328 184.42 269.984Z" fill="#B8D6E2" stroke="#231F20" stroke-miterlimit="10"/>
<path d="M213.312 203.36C213.312 203.36 246.898 204.98 254.873 198.109C256.155 197.011 257.07 195.613 257.475 193.837C261.07 178.37 285.61 173.562 278.903 180.904C272.196 188.246 267.019 197.207 267.019 197.207C267.019 197.207 264.509 203.425 256.403 205.868C250.141 207.75 228.66 212.309 213.168 210.323L213.286 203.373L213.312 203.36Z" fill="#B8D6E2" stroke="#231F20" stroke-miterlimit="10"/>
<path d="M298.096 94.6586L295.429 94.5541C295.429 94.5541 241.552 126.181 223.34 128.454C221.771 128.65 220.529 127.435 220.634 125.854C222.151 101.151 273.844 38.9033 273.844 38.9033C244.925 65.4876 218.425 108.114 208.083 121.583C207.482 122.366 206.253 122.144 205.965 121.191C202.056 108.428 204.449 73.992 210.502 35.8203L208.319 38.4592C208.319 38.4592 200.605 87.343 200.226 106.573L197.716 118.068C184.681 125.711 180.053 163.961 180.053 163.961C171.477 161.374 161.436 158.448 160.73 156.266C160.259 154.816 158.364 162.445 163.698 164.379C168.051 165.959 180.458 167.841 180.275 171.498L180.184 177.181C180.184 177.181 176.445 267.62 186.145 277.313C186.172 277.339 186.198 277.352 186.211 277.379C170.117 285.504 142.675 305.413 145.224 346.028C145.224 346.028 146.597 356.923 177.124 391.214C177.124 391.214 170.941 396.727 163.136 397.485C147.081 399.026 153.278 403.285 163.475 409.307C172.692 414.742 192.512 393.775 192.512 393.775C192.512 393.775 151.435 357.772 153.173 335.668C155.344 308 193.192 285.517 200.461 289.201C202.108 290.364 206.88 290.076 212.201 289.266C222.229 287.738 228.204 277.235 224.622 267.764C224.622 267.764 207.939 146.39 239.813 130.466C239.813 130.466 296.083 96.5136 298.109 94.6847L298.096 94.6586Z" fill="#B8D6E2" stroke="#231F20" stroke-miterlimit="10"/>
<path d="M389.872 134.542C353.892 135.574 296.342 137.115 259.343 212.479C245.838 239.978 237.235 266.915 204.498 285.295C195.843 290.155 193.556 285.531 175.566 296.83C168.192 301.468 153.942 315.446 148.843 322.513C140.646 333.853 133.495 341.273 125.977 353.069C111.583 375.669 110.001 392.26 89.7497 402.907C69.4984 413.553 41.2328 412.717 27.0086 394.82C20.9423 387.178 18.6152 374.898 25.7535 368.249C33.8723 360.698 48.0704 365.493 59.1178 364.513C68.714 363.664 76.9243 357.001 78.65 347.53C80.3758 338.059 72.1131 327.465 62.5431 328.601C69.4592 332.233 77.761 339.117 70.7273 349.228C66.2692 355.643 53.5091 354.624 45.2857 351.279C38.0428 348.34 25.1913 347.739 17.7915 350.247C2.05071 355.59 -4.10705 380.15 2.84821 395.251C9.80346 410.353 21.2561 418.139 36.3432 425.102C51.3912 432.051 72.087 430.693 88.1939 426.761C111.321 421.117 130.331 399.549 139.077 386.708C147.418 374.454 149.615 366.172 167.081 350.247C177.71 340.554 194.327 329.986 219.755 322.004C237.745 316.361 253.669 305.061 263.958 294.793C274.247 284.525 296.136 242.98 303 231.001C325.618 191.458 341.225 186.103 370 182.001C421.628 174.641 430.727 262.001 433.813 198.762C458.993 179.245 458.077 136.593 430.727 130.976" fill="#5F9340"/>
<path d="M389.872 134.542C353.892 135.574 296.342 137.115 259.343 212.479C245.838 239.978 237.235 266.915 204.498 285.295C195.843 290.155 193.556 285.531 175.566 296.83C168.192 301.468 153.942 315.446 148.843 322.513C140.646 333.853 133.495 341.273 125.977 353.069C111.583 375.669 110.001 392.26 89.7497 402.907C69.4984 413.553 41.2328 412.717 27.0086 394.82C20.9423 387.178 18.6152 374.898 25.7535 368.249C33.8723 360.698 48.0704 365.493 59.1178 364.513C68.714 363.664 76.9243 357.001 78.65 347.53C80.3758 338.059 72.1131 327.465 62.5431 328.601C69.4592 332.233 77.761 339.117 70.7273 349.228C66.2692 355.643 53.5091 354.624 45.2857 351.279C38.0428 348.34 25.1913 347.739 17.7915 350.247C2.05071 355.59 -4.10705 380.15 2.84821 395.251C9.80346 410.353 21.2561 418.139 36.3432 425.102C51.3912 432.051 72.087 430.693 88.1939 426.761C111.321 421.117 130.331 399.549 139.077 386.708C147.418 374.454 149.615 366.172 167.081 350.247C177.71 340.554 194.327 329.986 219.755 322.004C237.745 316.361 253.669 305.061 263.958 294.793C274.247 284.525 296.136 242.98 303 231.001C325.618 191.458 341.225 186.103 370 182.001C421.628 174.641 430.727 262.001 433.813 198.762C458.993 179.245 458.077 136.593 430.727 130.976" fill="url(#paint0_linear_4287_16646)" fill-opacity="0.25"/>
<path d="M193.531 205.843L193.832 207.228C193.832 207.228 211.886 276.517 199.323 281.05C184.262 286.497 183.843 311.645 193.086 307.386C204.291 302.239 209.115 281.964 209.115 281.964C209.115 281.964 210.553 246.288 200.957 209.017L200.708 207.476" fill="#B8D6E2"/>
<path d="M193.531 205.843L193.832 207.228C193.832 207.228 211.886 276.517 199.323 281.05C184.262 286.497 183.843 311.645 193.086 307.386C204.291 302.239 209.115 281.964 209.115 281.964C209.115 281.964 210.553 246.288 200.957 209.017L200.708 207.476" stroke="#231F20" stroke-miterlimit="10"/>
<path d="M201.635 155.639L184.168 154.471L183.453 165.146L200.919 166.314L201.635 155.639Z" fill="white" stroke="#231F20" stroke-miterlimit="10"/>
<path d="M180.313 154.089L177.691 153.914L177.088 162.921L179.71 163.096L180.313 154.089Z" stroke="#231F20" stroke-miterlimit="10"/>
<path d="M179.711 159.31L183.254 159.871" stroke="#231F20" stroke-miterlimit="10"/>
<path d="M187.793 161.44C187.937 161.44 188.054 160.849 188.054 160.12C188.054 159.392 187.937 158.801 187.793 158.801C187.648 158.801 187.531 159.392 187.531 160.12C187.531 160.849 187.648 161.44 187.793 161.44Z" fill="white" stroke="#231F20" stroke-miterlimit="10"/>
<path d="M180.066 183.373C180.066 183.373 184.995 186.508 192.513 181.884" stroke="#231F20" stroke-miterlimit="10"/>
<path d="M199.414 150.754C199.414 150.754 196.564 144.549 189.125 147.044" stroke="#231F20" stroke-miterlimit="10"/>
<path d="M122.775 355.564C126.645 362.88 133.3 360.803 133.3 360.803C133.3 360.803 138.582 356.257 134.424 349.111C130.254 341.952 118.762 334.649 118.762 334.649C118.762 334.649 118.892 348.262 122.775 355.577L122.775 355.564Z" fill="#81C341"/>
<path d="M71.4727 344.29C72.7016 345.296 73.7214 344.447 73.7214 344.447C73.7214 344.447 74.3228 343.258 73.0546 342.292C71.7865 341.338 69.2109 340.881 69.2109 340.881C69.2109 340.881 70.2438 343.285 71.4596 344.29L71.4727 344.29Z" fill="#81C341"/>
<path d="M67.2517 328.078C66.5719 329.397 67.5524 330.155 67.5524 330.155C67.5524 330.155 68.7683 330.469 69.3827 329.123C70.0103 327.777 69.9057 325.348 69.9057 325.348C69.9057 325.348 67.9185 326.759 67.2386 328.078L67.2517 328.078Z" fill="#81C341"/>
<path d="M40.5415 362.657C37.09 360.841 35.0635 363.428 35.0635 363.428C35.0635 363.428 34.2268 366.602 37.7437 368.274C41.2736 369.947 47.6797 369.725 47.6797 369.725C47.6797 369.725 43.9929 364.473 40.5415 362.67L40.5415 362.657Z" fill="#81C341"/>
<path d="M389.9 146.989C404.542 155.088 413.498 144.232 413.498 144.232C413.498 144.232 417.42 130.711 402.477 123.2C387.52 115.688 360 116.002 360 116.002C360 116.002 375.27 138.889 389.913 146.989L389.9 146.989Z" fill="#81C341"/>
<path d="M413.5 144L370 121" stroke="black" stroke-opacity="0.3"/>
<path d="M413.5 144L370 121" stroke="black" stroke-opacity="0.3"/>
<path d="M398.5 136L387 136.5" stroke="black" stroke-opacity="0.3"/>
<path d="M388 130.5L381 121.5" stroke="black" stroke-opacity="0.3"/>
<path d="M377.5 125H372" stroke="black" stroke-opacity="0.3"/>
<g style="mix-blend-mode:multiply">
<path d="M389.9 146.989C404.542 155.088 413.498 144.232 413.498 144.232C413.498 144.232 417.42 130.711 402.477 123.2C387.52 115.688 360 116.002 360 116.002C360 116.002 375.27 138.889 389.913 146.989L389.9 146.989Z" fill="#81C341" fill-opacity="0.25"/>
</g>
<path d="M272.614 292.062C275.533 280.548 266.464 276.358 266.464 276.358C266.464 276.358 256.474 276.105 254.013 287.719C251.555 299.343 256.736 318.179 256.736 318.179C256.736 318.179 269.693 303.567 272.612 292.053L272.614 292.062Z" fill="#81C341"/>
<path d="M266.301 276.398L258.359 310.412" stroke="black" stroke-opacity="0.3"/>
<path d="M266.301 276.398L258.359 310.412" stroke="black" stroke-opacity="0.3"/>
<path d="M265.973 277.952L258.582 286.133" stroke="black" stroke-opacity="0.3"/>
<path d="M263.515 288.14L265.933 295.945" stroke="black" stroke-opacity="0.3"/>
<path d="M261.635 296.34L256.719 302.77" stroke="black" stroke-opacity="0.3"/>
<path d="M259.754 304.541L260.746 308.317" stroke="black" stroke-opacity="0.3"/>
<g style="mix-blend-mode:multiply">
<path d="M272.614 292.062C275.533 280.548 266.464 276.358 266.464 276.358C266.464 276.358 256.474 276.105 254.013 287.719C251.555 299.343 256.736 318.179 256.736 318.179C256.736 318.179 269.693 303.567 272.612 292.053L272.614 292.062Z" fill="#81C341" fill-opacity="0.25"/>
</g>
</g>
<defs>
<linearGradient id="paint0_linear_4287_16646" x1="43" y1="303" x2="245.878" y2="379.517" gradientUnits="userSpaceOnUse">
<stop stop-color="#DBFF00"/>
<stop offset="1" stop-color="#157E0B"/>
</linearGradient>
<clipPath id="clip0_4287_16646">
<rect width="452" height="430" fill="white"/>
</clipPath>
</defs>
</svg>
