<svg width="76" height="75" viewBox="0 0 76 75" fill="none" xmlns="http://www.w3.org/2000/svg">
<path d="M39.7165 30.2175L39.2567 31.1614C39.8303 31.4408 41.2496 32.1505 42.4581 32.8977C43.0705 33.2763 43.5774 33.6335 43.8921 33.9249C43.9185 33.9494 43.9425 33.9724 43.9642 33.994C43.5767 34.8364 43.0134 36.1747 42.6625 37.0119L42.6616 37.0139C42.6418 37.0615 42.5915 37.0941 42.5312 37.0865C42.5311 37.0865 42.5309 37.0865 42.5308 37.0864L39.6168 36.7032L38.5482 36.5626L38.4356 37.6345L38.3458 38.4886L38.3457 38.4894C38.2539 39.3695 38.3192 40.2764 38.572 41.1485L38.5724 41.1498C38.8375 42.0593 39.3418 43.2719 40.3205 44.2507C41.8548 45.785 42.8333 47.1777 43.8387 48.7564L43.8397 48.7579C44.1307 49.2132 44.3901 50.0384 44.5906 50.9984C44.7334 51.682 44.8323 52.3609 44.8971 52.8858C43.1609 53.1792 39.3954 53.7567 35.6594 53.8639H35.6471H35.6346C31.8853 53.7589 27.8765 53.1795 26.1035 52.8873C26.1684 52.3639 26.2675 51.6861 26.4103 51.003C26.6112 50.0423 26.8709 49.2139 27.1622 48.7557C28.1674 47.1773 29.1458 45.7848 30.6799 44.2507C31.6576 43.2731 32.1653 42.0615 32.4287 41.1474C32.6814 40.2756 32.7465 39.372 32.6548 38.4898L32.6547 38.4894L32.5622 37.6026L32.4504 36.5299L31.381 36.6705L28.1569 37.0946C28.1567 37.0946 28.1565 37.0946 28.1563 37.0947C28.0961 37.1022 28.0459 37.0696 28.0261 37.0221L28.0252 37.02C27.6787 36.1934 27.1266 34.8835 26.7401 34.0394C26.7658 34.0162 26.7941 33.9914 26.8251 33.9653C27.1805 33.6656 27.742 33.3025 28.4084 32.9208C29.5383 32.2736 30.8136 31.6596 31.5344 31.3125C31.6542 31.2548 31.7586 31.2046 31.8446 31.1627C31.906 31.1331 32.0041 31.0821 32.1032 31.0055C32.1529 30.9671 32.2381 30.8954 32.3194 30.7869C32.3945 30.6867 32.5353 30.4627 32.5353 30.1423C32.5353 29.7729 32.3509 29.4943 32.1617 29.3324C32.0779 29.2608 31.9937 29.2111 31.921 29.1766C30.9821 28.2621 30.3999 26.9867 30.3999 25.5769C30.3999 22.8004 32.6524 20.55 35.4268 20.55C38.2012 20.55 40.4537 22.8004 40.4537 25.5769C40.4537 27.1842 39.9889 28.4636 39.0322 29.3175C39.0136 29.3333 38.9913 29.3533 38.967 29.3773C38.9217 29.422 38.8263 29.5224 38.7488 29.6748C38.6703 29.8294 38.5588 30.1464 38.687 30.5227C38.8146 30.8972 39.0956 31.0835 39.2592 31.1626L39.7165 30.2175ZM39.7165 30.2175C39.6322 30.1767 39.7165 30.1141 39.7165 30.1141L43.6308 37.4178C44.047 36.4249 44.7325 34.7982 45.0861 34.0774C45.4646 33.3027 42.4055 31.5899 40.6451 30.6831C40.5701 30.757 40.4926 30.8294 40.4125 30.9003L40.3786 30.9303L40.3448 30.9554L40.3474 30.9534L40.3527 30.9494L40.3635 30.9411C40.3708 30.9353 40.3786 30.9291 40.3866 30.9224C40.3944 30.9159 40.403 30.9084 40.4123 30.9001C40.4217 30.8916 40.4318 30.8822 40.4423 30.8718C40.4714 30.843 40.5398 30.7725 40.6023 30.6611C40.3184 30.5152 40.0701 30.3912 39.8781 30.2966C39.8641 30.2897 39.8503 30.283 39.8369 30.2764C40.3422 30.9573 40.3425 30.9571 40.3428 30.9569L40.3422 30.9574L39.8369 30.2764C39.7934 30.255 39.7532 30.2354 39.7165 30.2175Z" stroke="black" stroke-width="2.1"/>
</svg>
